<svg width="246" height="124" viewBox="0 0 246 124" fill="none" xmlns="http://www.w3.org/2000/svg">
<mask id="path-1-outside-1_136_3" maskUnits="userSpaceOnUse" x="-3" y="-3" width="252" height="130" fill="black">
<rect fill="white" x="-3" y="-3" width="252" height="130"/>
<path d="M111.808 78.84C112.661 79.5227 113.088 80.4187 113.088 81.528C113.088 82.6373 112.704 83.576 111.936 84.344H93.76L101.056 108.664C101.227 109.261 101.312 110.029 101.312 110.968C101.312 111.907 100.715 113.059 99.52 114.424C98.3253 115.789 97.088 116.472 95.808 116.472C93.4187 116.472 91.5413 115.875 90.176 114.68L81.088 84.344H48.448L42.048 101.752C39.8293 107.64 36.6293 112.717 32.448 116.984C28.2667 121.251 22.848 123.384 16.192 123.384C11.1573 123.384 7.232 122.061 4.416 119.416C1.51467 116.771 0.0639997 112.931 0.0639997 107.896C0.0639997 102.861 1.30133 98.3387 3.776 94.328C6.16533 90.232 9.36533 87.032 13.376 84.728C21.3973 80.12 30.3573 77.816 40.256 77.816L58.944 25.08C59.7973 22.6053 60.6933 20.7707 61.632 19.576C58.9867 10.7013 57.664 5.83733 57.664 4.98399C57.664 4.04533 58.2613 3.02133 59.456 1.91199C60.736 0.717328 62.016 0.119995 63.296 0.119995C65.7707 0.119995 67.6907 0.717328 69.056 1.91199L91.712 77.816L108.48 77.688C109.931 77.688 111.04 78.072 111.808 78.84ZM16.192 118.008C22.592 118.008 28.1387 111.565 32.832 98.68L37.824 84.472C28.4373 84.472 20.9707 86.6907 15.424 91.128C9.96267 95.5653 7.232 101.411 7.232 108.664C7.232 111.651 8.04267 113.955 9.664 115.576C11.3707 117.197 13.5467 118.008 16.192 118.008ZM66.496 29.432L50.88 77.816H79.04L66.496 29.432ZM133.071 39.8C133.071 41.336 133.412 42.872 134.095 44.408C133.327 45.432 132.047 45.944 130.255 45.944C128.463 45.944 126.927 45.304 125.647 44.024C124.452 42.744 123.855 40.6533 123.855 37.752C123.855 31.0107 125.903 25.5493 129.999 21.368C134.095 17.1013 139.556 14.968 146.383 14.968C157.647 14.968 164.346 21.112 166.479 33.4C168.356 27.6827 171.428 23.1173 175.695 19.704C179.962 16.2907 184.954 14.584 190.671 14.584C199.546 14.6693 206.202 18.04 210.639 24.696C215.076 31.2667 217.295 40.0987 217.295 51.192V87.416C217.295 92.3653 218.276 96.3333 220.239 99.32C222.287 102.307 224.932 103.8 228.175 103.8C236.196 103.8 240.207 95.7787 240.207 79.736C240.292 79.224 240.719 78.968 241.487 78.968C242.34 78.968 242.98 79.096 243.407 79.352C244.687 80.2907 245.327 82.3813 245.327 85.624C245.327 92.792 243.62 98.5947 240.207 103.032C236.794 107.469 232.271 109.688 226.639 109.688C218.788 109.688 213.284 107.085 210.127 101.88C207.055 96.5893 205.519 89.208 205.519 79.736V51.192C205.519 31.0533 200.57 20.984 190.671 20.984C186.831 20.984 183.46 21.9653 180.559 23.928C177.743 25.8053 175.524 28.152 173.903 30.968C172.282 33.784 171.002 37.1547 170.063 41.08C168.442 47.3947 167.631 54.6053 167.631 62.712V79.096C167.631 89.6773 165.924 98.0827 162.511 104.312C159.183 110.456 154.106 113.528 147.279 113.528C140.538 113.528 135.46 111.949 132.047 108.792C128.634 105.72 126.927 101.624 126.927 96.504C126.927 89.9333 129.06 86.648 133.327 86.648C134.351 86.648 135.247 86.904 136.015 87.416C136.783 87.8427 137.423 88.568 137.935 89.592C137.252 91.384 136.911 94.072 136.911 97.656C136.911 101.155 137.807 103.8 139.599 105.592C141.476 107.384 143.823 108.28 146.639 108.28C152.698 108.28 155.727 101.112 155.727 86.776V37.24C155.727 32.2907 154.703 28.3227 152.655 25.336C150.692 22.3493 147.962 20.856 144.463 20.856C141.05 20.856 138.276 22.264 136.143 25.08C134.095 27.8107 133.071 32.7173 133.071 39.8Z"/>
</mask>
<path d="M111.808 78.84C112.661 79.5227 113.088 80.4187 113.088 81.528C113.088 82.6373 112.704 83.576 111.936 84.344H93.76L101.056 108.664C101.227 109.261 101.312 110.029 101.312 110.968C101.312 111.907 100.715 113.059 99.52 114.424C98.3253 115.789 97.088 116.472 95.808 116.472C93.4187 116.472 91.5413 115.875 90.176 114.68L81.088 84.344H48.448L42.048 101.752C39.8293 107.64 36.6293 112.717 32.448 116.984C28.2667 121.251 22.848 123.384 16.192 123.384C11.1573 123.384 7.232 122.061 4.416 119.416C1.51467 116.771 0.0639997 112.931 0.0639997 107.896C0.0639997 102.861 1.30133 98.3387 3.776 94.328C6.16533 90.232 9.36533 87.032 13.376 84.728C21.3973 80.12 30.3573 77.816 40.256 77.816L58.944 25.08C59.7973 22.6053 60.6933 20.7707 61.632 19.576C58.9867 10.7013 57.664 5.83733 57.664 4.98399C57.664 4.04533 58.2613 3.02133 59.456 1.91199C60.736 0.717328 62.016 0.119995 63.296 0.119995C65.7707 0.119995 67.6907 0.717328 69.056 1.91199L91.712 77.816L108.48 77.688C109.931 77.688 111.04 78.072 111.808 78.84ZM16.192 118.008C22.592 118.008 28.1387 111.565 32.832 98.68L37.824 84.472C28.4373 84.472 20.9707 86.6907 15.424 91.128C9.96267 95.5653 7.232 101.411 7.232 108.664C7.232 111.651 8.04267 113.955 9.664 115.576C11.3707 117.197 13.5467 118.008 16.192 118.008ZM66.496 29.432L50.88 77.816H79.04L66.496 29.432ZM133.071 39.8C133.071 41.336 133.412 42.872 134.095 44.408C133.327 45.432 132.047 45.944 130.255 45.944C128.463 45.944 126.927 45.304 125.647 44.024C124.452 42.744 123.855 40.6533 123.855 37.752C123.855 31.0107 125.903 25.5493 129.999 21.368C134.095 17.1013 139.556 14.968 146.383 14.968C157.647 14.968 164.346 21.112 166.479 33.4C168.356 27.6827 171.428 23.1173 175.695 19.704C179.962 16.2907 184.954 14.584 190.671 14.584C199.546 14.6693 206.202 18.04 210.639 24.696C215.076 31.2667 217.295 40.0987 217.295 51.192V87.416C217.295 92.3653 218.276 96.3333 220.239 99.32C222.287 102.307 224.932 103.8 228.175 103.8C236.196 103.8 240.207 95.7787 240.207 79.736C240.292 79.224 240.719 78.968 241.487 78.968C242.34 78.968 242.98 79.096 243.407 79.352C244.687 80.2907 245.327 82.3813 245.327 85.624C245.327 92.792 243.62 98.5947 240.207 103.032C236.794 107.469 232.271 109.688 226.639 109.688C218.788 109.688 213.284 107.085 210.127 101.88C207.055 96.5893 205.519 89.208 205.519 79.736V51.192C205.519 31.0533 200.57 20.984 190.671 20.984C186.831 20.984 183.46 21.9653 180.559 23.928C177.743 25.8053 175.524 28.152 173.903 30.968C172.282 33.784 171.002 37.1547 170.063 41.08C168.442 47.3947 167.631 54.6053 167.631 62.712V79.096C167.631 89.6773 165.924 98.0827 162.511 104.312C159.183 110.456 154.106 113.528 147.279 113.528C140.538 113.528 135.46 111.949 132.047 108.792C128.634 105.72 126.927 101.624 126.927 96.504C126.927 89.9333 129.06 86.648 133.327 86.648C134.351 86.648 135.247 86.904 136.015 87.416C136.783 87.8427 137.423 88.568 137.935 89.592C137.252 91.384 136.911 94.072 136.911 97.656C136.911 101.155 137.807 103.8 139.599 105.592C141.476 107.384 143.823 108.28 146.639 108.28C152.698 108.28 155.727 101.112 155.727 86.776V37.24C155.727 32.2907 154.703 28.3227 152.655 25.336C150.692 22.3493 147.962 20.856 144.463 20.856C141.05 20.856 138.276 22.264 136.143 25.08C134.095 27.8107 133.071 32.7173 133.071 39.8Z" fill="#CDEEFF"/>
<path d="M111.808 78.84L109.687 80.9613L109.804 81.0788L109.934 81.1826L111.808 78.84ZM111.936 84.344V87.344H113.179L114.057 86.4653L111.936 84.344ZM93.76 84.344V81.344H89.7279L90.8865 85.206L93.76 84.344ZM101.056 108.664L103.941 107.84L103.935 107.821L103.929 107.802L101.056 108.664ZM90.176 114.68L87.3022 115.541L87.5502 116.369L88.2005 116.938L90.176 114.68ZM81.088 84.344L83.9618 83.4831L83.321 81.344H81.088V84.344ZM48.448 84.344V81.344H46.3546L45.6323 83.3088L48.448 84.344ZM42.048 101.752L44.8553 102.81L44.8596 102.799L44.8637 102.787L42.048 101.752ZM32.448 116.984L34.5906 119.084L34.5906 119.084L32.448 116.984ZM4.416 119.416L6.47003 117.229L6.45376 117.214L6.43726 117.199L4.416 119.416ZM3.776 94.328L6.32911 95.9033L6.34862 95.8717L6.36734 95.8396L3.776 94.328ZM13.376 84.728L11.8816 82.1267L11.8816 82.1267L13.376 84.728ZM40.256 77.816V80.816H42.3757L43.0837 78.818L40.256 77.816ZM58.944 25.08L61.7717 26.082L61.776 26.07L61.7801 26.058L58.944 25.08ZM61.632 19.576L63.991 21.4295L64.9508 20.2079L64.507 18.719L61.632 19.576ZM59.456 1.91199L61.4974 4.11038L61.503 4.10516L59.456 1.91199ZM69.056 1.91199L71.9307 1.05395L71.6831 0.224367L71.0315 -0.345735L69.056 1.91199ZM91.712 77.816L88.8373 78.674L89.4818 80.8331L91.7349 80.8159L91.712 77.816ZM108.48 77.688V74.688H108.469L108.457 74.6881L108.48 77.688ZM32.832 98.68L35.6508 99.7067L35.6567 99.6906L35.6624 99.6745L32.832 98.68ZM37.824 84.472L40.6544 85.4665L42.0578 81.472H37.824V84.472ZM15.424 91.128L13.5499 88.7854L13.541 88.7925L13.5322 88.7997L15.424 91.128ZM9.664 115.576L7.54268 117.697L7.56987 117.725L7.59775 117.751L9.664 115.576ZM66.496 29.432L69.4 28.6791L66.8104 18.6907L63.641 28.5105L66.496 29.432ZM50.88 77.816L48.025 76.8945L46.7594 80.816H50.88V77.816ZM79.04 77.816V80.816H82.917L81.944 77.0631L79.04 77.816ZM109.934 81.1826C109.992 81.229 110.023 81.2631 110.038 81.2814C110.052 81.299 110.057 81.309 110.059 81.3138C110.062 81.3187 110.068 81.332 110.074 81.3603C110.08 81.3897 110.088 81.4435 110.088 81.528H116.088C116.088 79.5234 115.26 77.7593 113.682 76.4974L109.934 81.1826ZM110.088 81.528C110.088 81.8607 110.007 82.0306 109.815 82.2227L114.057 86.4653C115.401 85.1214 116.088 83.4139 116.088 81.528H110.088ZM111.936 81.344H93.76V87.344H111.936V81.344ZM90.8865 85.206L98.1825 109.526L103.929 107.802L96.6335 83.482L90.8865 85.206ZM98.1714 109.488C98.2371 109.718 98.312 110.181 98.312 110.968H104.312C104.312 109.877 104.216 108.805 103.941 107.84L98.1714 109.488ZM98.312 110.968C98.312 110.809 98.3582 110.851 98.2007 111.155C98.047 111.452 97.7587 111.881 97.2623 112.448L101.778 116.4C103.064 114.929 104.312 113.06 104.312 110.968H98.312ZM97.2623 112.448C96.3919 113.443 95.9094 113.472 95.808 113.472V119.472C98.2666 119.472 100.259 118.135 101.778 116.4L97.2623 112.448ZM95.808 113.472C93.911 113.472 92.8162 113.004 92.1515 112.422L88.2005 116.938C90.2665 118.745 92.9264 119.472 95.808 119.472V113.472ZM93.0498 113.819L83.9618 83.4831L78.2142 85.2049L87.3022 115.541L93.0498 113.819ZM81.088 81.344H48.448V87.344H81.088V81.344ZM45.6323 83.3088L39.2323 100.717L44.8637 102.787L51.2637 85.3792L45.6323 83.3088ZM39.2407 100.694C37.1609 106.214 34.1798 110.931 30.3054 114.884L34.5906 119.084C39.0789 114.504 42.4978 109.066 44.8553 102.81L39.2407 100.694ZM30.3054 114.884C26.7553 118.507 22.1429 120.384 16.192 120.384V126.384C23.5531 126.384 29.778 123.995 34.5906 119.084L30.3054 114.884ZM16.192 120.384C11.6819 120.384 8.57728 119.209 6.47003 117.229L2.36197 121.603C5.88672 124.914 10.6328 126.384 16.192 126.384V120.384ZM6.43726 117.199C4.32469 115.273 3.064 112.34 3.064 107.896H-2.936C-2.936 113.521 -1.29536 118.268 2.39474 121.633L6.43726 117.199ZM3.064 107.896C3.064 103.378 4.16673 99.4079 6.32911 95.9033L1.22289 92.7527C-1.56406 97.2695 -2.936 102.345 -2.936 107.896H3.064ZM6.36734 95.8396C8.49948 92.1845 11.3261 89.3654 14.8704 87.3293L11.8816 82.1267C7.40453 84.6986 3.83119 88.2795 1.18466 92.8164L6.36734 95.8396ZM14.8704 87.3293C22.4051 83.0008 30.8437 80.816 40.256 80.816V74.816C29.8709 74.816 20.3895 77.2392 11.8816 82.1267L14.8704 87.3293ZM43.0837 78.818L61.7717 26.082L56.1163 24.0779L37.4283 76.8139L43.0837 78.818ZM61.7801 26.058C62.5913 23.7056 63.3562 22.2373 63.991 21.4295L59.273 17.7225C58.0304 19.304 57.0034 21.5051 56.1079 24.102L61.7801 26.058ZM64.507 18.719C63.1866 14.2892 62.2027 10.8817 61.5509 8.48479C61.2242 7.28359 60.9876 6.36025 60.8348 5.69982C60.6484 4.89397 60.664 4.78688 60.664 4.98399H54.664C54.664 5.60777 54.845 6.42868 54.9892 7.05217C55.1671 7.82107 55.4264 8.8284 55.7611 10.0592C56.432 12.5263 57.4321 15.9882 58.757 20.433L64.507 18.719ZM60.664 4.98399C60.664 5.16837 60.6029 5.19571 60.7033 5.02361C60.8095 4.84163 61.0413 4.5339 61.4974 4.11037L57.4146 -0.286385C56.0316 0.997916 54.664 2.77057 54.664 4.98399H60.664ZM61.503 4.10516C62.4345 3.23574 63.0183 3.12 63.296 3.12V-2.88C61.0137 -2.88 59.0375 -1.80108 57.409 -0.281172L61.503 4.10516ZM63.296 3.12C65.3098 3.12 66.4335 3.60361 67.0805 4.16973L71.0315 -0.345735C68.9478 -2.16895 66.2315 -2.88 63.296 -2.88V3.12ZM66.1813 2.77004L88.8373 78.674L94.5867 76.958L71.9307 1.05395L66.1813 2.77004ZM91.7349 80.8159L108.503 80.6879L108.457 74.6881L91.6891 74.8161L91.7349 80.8159ZM108.48 80.688C109.411 80.688 109.65 80.9248 109.687 80.9613L113.929 76.7187C112.43 75.2192 110.451 74.688 108.48 74.688V80.688ZM16.192 121.008C20.5295 121.008 24.2806 118.786 27.4255 115.133C30.5357 111.521 33.2467 106.307 35.6508 99.7067L30.0132 97.6533C27.724 103.938 25.315 108.389 22.8785 111.219C20.4767 114.008 18.2545 115.008 16.192 115.008V121.008ZM35.6624 99.6745L40.6544 85.4665L34.9936 83.4775L30.0016 97.6855L35.6624 99.6745ZM37.824 81.472C27.976 81.472 19.778 83.8029 13.5499 88.7854L17.2981 93.4706C22.1633 89.5784 28.8987 87.472 37.824 87.472V81.472ZM13.5322 88.7997C7.34515 93.8267 4.232 100.539 4.232 108.664H10.232C10.232 102.282 12.5802 97.304 17.3158 93.4563L13.5322 88.7997ZM4.232 108.664C4.232 112.196 5.20327 115.358 7.54268 117.697L11.7853 113.455C10.8821 112.551 10.232 111.106 10.232 108.664H4.232ZM7.59775 117.751C9.93248 119.969 12.8807 121.008 16.192 121.008V115.008C14.2126 115.008 12.8089 114.426 11.7302 113.401L7.59775 117.751ZM63.641 28.5105L48.025 76.8945L53.735 78.7374L69.351 30.3534L63.641 28.5105ZM50.88 80.816H79.04V74.816H50.88V80.816ZM81.944 77.0631L69.4 28.6791L63.592 30.1849L76.136 78.5689L81.944 77.0631ZM134.095 44.408L136.495 46.208L137.552 44.799L136.836 43.1896L134.095 44.408ZM125.647 44.024L123.454 46.071L123.489 46.1088L123.526 46.1453L125.647 44.024ZM129.999 21.368L132.142 23.4673L132.153 23.4565L132.163 23.4456L129.999 21.368ZM166.479 33.4L163.523 33.9132L169.329 34.3359L166.479 33.4ZM175.695 19.704L177.569 22.0466L177.569 22.0466L175.695 19.704ZM190.671 14.584L190.7 11.5841L190.685 11.584H190.671V14.584ZM210.639 24.696L208.143 26.3601L208.148 26.3676L208.153 26.375L210.639 24.696ZM220.239 99.32L217.732 100.968L217.748 100.992L217.765 101.017L220.239 99.32ZM240.207 79.736L237.248 79.2428L237.207 79.4877V79.736H240.207ZM243.407 79.352L245.181 76.9328L245.069 76.8508L244.95 76.7795L243.407 79.352ZM240.207 103.032L242.585 104.861L242.585 104.861L240.207 103.032ZM210.127 101.88L207.533 103.386L207.547 103.411L207.562 103.436L210.127 101.88ZM180.559 23.928L182.223 26.4241L182.232 26.4185L182.24 26.4128L180.559 23.928ZM173.903 30.968L176.503 32.4649L176.503 32.4649L173.903 30.968ZM170.063 41.08L172.969 41.8261L172.975 41.8019L172.981 41.7777L170.063 41.08ZM162.511 104.312L159.88 102.87L159.877 102.877L159.873 102.883L162.511 104.312ZM132.047 108.792L134.084 106.59L134.069 106.576L134.054 106.562L132.047 108.792ZM136.015 87.416L134.351 89.9121L134.452 89.9795L134.558 90.0385L136.015 87.416ZM137.935 89.592L140.738 90.66L141.207 89.4288L140.618 88.2504L137.935 89.592ZM139.599 105.592L137.478 107.713L137.502 107.738L137.528 107.762L139.599 105.592ZM152.655 25.336L150.148 26.9835L150.164 27.0082L150.181 27.0326L152.655 25.336ZM136.143 25.08L133.752 23.2684L133.747 23.2742L133.743 23.28L136.143 25.08ZM130.071 39.8C130.071 41.7939 130.517 43.7433 131.354 45.6264L136.836 43.1896C136.308 42.0006 136.071 40.878 136.071 39.8H130.071ZM131.695 42.608C131.667 42.6459 131.615 42.7066 131.445 42.7746C131.248 42.8533 130.878 42.944 130.255 42.944V48.944C132.589 48.944 134.956 48.2598 136.495 46.208L131.695 42.608ZM130.255 42.944C129.268 42.944 128.492 42.6265 127.768 41.9027L123.526 46.1453C125.362 47.9815 127.658 48.944 130.255 48.944V42.944ZM127.84 41.977C127.413 41.5199 126.855 40.362 126.855 37.752H120.855C120.855 40.9447 121.491 43.9681 123.454 46.071L127.84 41.977ZM126.855 37.752C126.855 31.6669 128.679 27.0023 132.142 23.4673L127.856 19.2687C123.127 24.0964 120.855 30.3544 120.855 37.752H126.855ZM132.163 23.4456C135.605 19.8605 140.236 17.968 146.383 17.968V11.968C138.877 11.968 132.585 14.3422 127.835 19.2904L132.163 23.4456ZM146.383 17.968C151.452 17.968 155.156 19.3365 157.827 21.7869C160.535 24.2705 162.528 28.1824 163.523 33.9132L169.435 32.8868C168.296 26.3296 165.874 21.0255 161.883 17.3651C157.856 13.6715 152.578 11.968 146.383 11.968V17.968ZM169.329 34.3359C171.044 29.114 173.803 25.0593 177.569 22.0466L173.821 17.3614C169.053 21.1754 165.669 26.2513 163.629 32.4641L169.329 34.3359ZM177.569 22.0466C181.278 19.0796 185.601 17.584 190.671 17.584V11.584C184.307 11.584 178.646 13.5017 173.821 17.3614L177.569 22.0466ZM190.642 17.5839C198.651 17.6609 204.323 20.6308 208.143 26.3601L213.135 23.0319C208.08 15.4492 200.44 11.6778 190.7 11.5841L190.642 17.5839ZM208.153 26.375C212.146 32.2881 214.295 40.4666 214.295 51.192H220.295C220.295 39.7307 218.007 30.2452 213.125 23.017L208.153 26.375ZM214.295 51.192V87.416H220.295V51.192H214.295ZM214.295 87.416C214.295 92.7333 215.346 97.3369 217.732 100.968L222.746 97.6725C221.207 95.3298 220.295 91.9974 220.295 87.416H214.295ZM217.765 101.017C220.296 104.708 223.815 106.8 228.175 106.8V100.8C226.049 100.8 224.278 99.9056 222.713 97.6234L217.765 101.017ZM228.175 106.8C230.705 106.8 233.053 106.159 235.103 104.792C237.134 103.438 238.702 101.487 239.882 99.1256C242.201 94.4881 243.207 87.9106 243.207 79.736H237.207C237.207 87.6041 236.208 93.0586 234.516 96.4424C233.691 98.0918 232.752 99.1487 231.775 99.7998C230.817 100.439 229.655 100.8 228.175 100.8V106.8ZM243.166 80.2292C243.126 80.4675 243.03 80.7653 242.831 81.0641C242.63 81.366 242.378 81.5861 242.134 81.7325C241.694 81.9969 241.375 81.968 241.487 81.968V75.968C240.831 75.968 239.915 76.0671 239.048 76.5875C238.044 77.1896 237.428 78.1626 237.248 79.2428L243.166 80.2292ZM241.487 81.968C241.773 81.968 241.941 81.9902 242.019 82.0057C242.101 82.0221 242.021 82.0189 241.864 81.9245L244.95 76.7795C243.833 76.1088 242.542 75.968 241.487 75.968V81.968ZM241.633 81.7712C241.587 81.7375 241.778 81.8461 241.978 82.5021C242.18 83.1613 242.327 84.1711 242.327 85.624H248.327C248.327 83.8342 248.154 82.1774 247.716 80.7459C247.276 79.3112 246.507 77.9052 245.181 76.9328L241.633 81.7712ZM242.327 85.624C242.327 92.3178 240.738 97.4213 237.829 101.203L242.585 104.861C246.503 99.768 248.327 93.2662 248.327 85.624H242.327ZM237.829 101.203C234.988 104.897 231.346 106.688 226.639 106.688V112.688C233.196 112.688 238.6 110.042 242.585 104.861L237.829 101.203ZM226.639 106.688C219.49 106.688 215.147 104.372 212.692 100.324L207.562 103.436C211.422 109.799 218.086 112.688 226.639 112.688V106.688ZM212.721 100.374C210.022 95.7254 208.519 88.9442 208.519 79.736H202.519C202.519 89.4718 204.088 97.4532 207.533 103.386L212.721 100.374ZM208.519 79.736V51.192H202.519V79.736H208.519ZM208.519 51.192C208.519 40.9732 207.279 32.8677 204.499 27.2126C203.089 24.3435 201.233 22.0049 198.851 20.3891C196.447 18.7588 193.681 17.984 190.671 17.984V23.984C192.61 23.984 194.175 24.4678 195.483 25.3549C196.813 26.2564 198.05 27.6938 199.115 29.8594C201.284 34.2736 202.519 41.2721 202.519 51.192H208.519ZM190.671 17.984C186.292 17.984 182.323 19.1125 178.878 21.4431L182.24 26.4128C184.597 24.8181 187.37 23.984 190.671 23.984V17.984ZM178.895 21.4318C175.711 23.5547 173.165 26.2375 171.303 29.4711L176.503 32.4649C177.884 30.0665 179.775 28.0559 182.223 26.4241L178.895 21.4318ZM171.303 29.4711C169.508 32.5887 168.135 36.2414 167.145 40.3823L172.981 41.7777C173.868 38.0679 175.055 34.9793 176.503 32.4649L171.303 29.4711ZM167.157 40.3339C165.46 46.943 164.631 54.4119 164.631 62.712H170.631C170.631 54.7987 171.423 47.8464 172.969 41.8261L167.157 40.3339ZM164.631 62.712V79.096H170.631V62.712H164.631ZM164.631 79.096C164.631 89.4015 162.961 97.2472 159.88 102.87L165.142 105.754C168.887 98.9182 170.631 89.9532 170.631 79.096H164.631ZM159.873 102.883C158.418 105.57 156.661 107.443 154.654 108.657C152.651 109.869 150.229 110.528 147.279 110.528V116.528C151.156 116.528 154.686 115.651 157.76 113.791C160.83 111.933 163.276 109.198 165.149 105.741L159.873 102.883ZM147.279 110.528C140.957 110.528 136.738 109.044 134.084 106.59L130.01 110.994C134.183 114.854 140.119 116.528 147.279 116.528V110.528ZM134.054 106.562C131.349 104.128 129.927 100.882 129.927 96.504H123.927C123.927 102.366 125.918 107.312 130.04 111.022L134.054 106.562ZM129.927 96.504C129.927 93.4475 130.441 91.6737 131.043 90.7458C131.5 90.0418 132.102 89.648 133.327 89.648V83.648C130.286 83.648 127.687 84.8969 126.011 87.4782C124.48 89.8357 123.927 92.9899 123.927 96.504H129.927ZM133.327 89.648C133.826 89.648 134.129 89.7641 134.351 89.9121L137.679 84.9198C136.365 84.0439 134.876 83.648 133.327 83.648V89.648ZM134.558 90.0385C134.658 90.0942 134.929 90.288 135.252 90.9336L140.618 88.2504C139.917 86.848 138.908 85.5911 137.472 84.7935L134.558 90.0385ZM135.132 88.524C134.251 90.8366 133.911 93.9676 133.911 97.656H139.911C139.911 94.1764 140.254 91.9314 140.738 90.66L135.132 88.524ZM133.911 97.656C133.911 101.641 134.937 105.173 137.478 107.713L141.72 103.471C140.677 102.427 139.911 100.668 139.911 97.656H133.911ZM137.528 107.762C140.013 110.134 143.123 111.28 146.639 111.28V105.28C144.523 105.28 142.94 104.634 141.67 103.422L137.528 107.762ZM146.639 111.28C148.794 111.28 150.781 110.626 152.473 109.291C154.119 107.993 155.329 106.176 156.218 104.072C157.97 99.9263 158.727 94.0644 158.727 86.776H152.727C152.727 93.8236 151.969 98.7137 150.692 101.736C150.066 103.216 149.383 104.087 148.757 104.581C148.177 105.038 147.514 105.28 146.639 105.28V111.28ZM158.727 86.776V37.24H152.727V86.776H158.727ZM158.727 37.24C158.727 31.9014 157.624 27.2784 155.129 23.6394L150.181 27.0326C151.782 29.3669 152.727 32.6799 152.727 37.24H158.727ZM155.162 23.6885C152.659 19.8795 148.998 17.856 144.463 17.856V23.856C146.926 23.856 148.726 24.8191 150.148 26.9835L155.162 23.6885ZM144.463 17.856C140.073 17.856 136.429 19.7345 133.752 23.2684L138.534 26.8916C140.124 24.7935 142.027 23.856 144.463 23.856V17.856ZM133.743 23.28C131.064 26.8524 130.071 32.6413 130.071 39.8H136.071C136.071 32.7934 137.126 28.769 138.543 26.88L133.743 23.28Z" fill="#CDEEFF" mask="url(#path-1-outside-1_136_3)"/>
</svg>
