<svg width="935" height="156" viewBox="0 0 935 156" fill="none" xmlns="http://www.w3.org/2000/svg">
<path d="M111.808 78.84C112.661 79.5227 113.088 80.4187 113.088 81.528C113.088 82.6373 112.704 83.576 111.936 84.344H93.76L101.056 108.664C101.227 109.261 101.312 110.029 101.312 110.968C101.312 111.907 100.715 113.059 99.52 114.424C98.3253 115.789 97.088 116.472 95.808 116.472C93.4187 116.472 91.5413 115.875 90.176 114.68L81.088 84.344H48.448L42.048 101.752C39.8293 107.64 36.6293 112.717 32.448 116.984C28.2667 121.251 22.848 123.384 16.192 123.384C11.1573 123.384 7.232 122.061 4.416 119.416C1.51467 116.771 0.0639997 112.931 0.0639997 107.896C0.0639997 102.861 1.30133 98.3387 3.776 94.328C6.16533 90.232 9.36533 87.032 13.376 84.728C21.3973 80.12 30.3573 77.816 40.256 77.816L58.944 25.08C59.7973 22.6053 60.6933 20.7707 61.632 19.576C58.9867 10.7013 57.664 5.83733 57.664 4.98399C57.664 4.04533 58.2613 3.02133 59.456 1.91199C60.736 0.717328 62.016 0.119995 63.296 0.119995C65.7707 0.119995 67.6907 0.717328 69.056 1.91199L91.712 77.816L108.48 77.688C109.931 77.688 111.04 78.072 111.808 78.84ZM16.192 118.008C22.592 118.008 28.1387 111.565 32.832 98.68L37.824 84.472C28.4373 84.472 20.9707 86.6907 15.424 91.128C9.96267 95.5653 7.232 101.411 7.232 108.664C7.232 111.651 8.04267 113.955 9.664 115.576C11.3707 117.197 13.5467 118.008 16.192 118.008ZM66.496 29.432L50.88 77.816H79.04L66.496 29.432ZM167.887 147.832C167.887 150.392 167.247 152.312 165.967 153.592C164.687 154.957 163.066 155.64 161.103 155.64C159.14 155.64 157.562 155.043 156.367 153.848V98.552C152.783 104.44 147.834 107.384 141.519 107.384C126.586 107.384 119.119 97.6133 119.119 78.072C119.119 68.1733 121.423 60.8773 126.031 56.184C130.724 51.4907 136.911 49.144 144.591 49.144C150.479 49.144 154.66 50.3813 157.135 52.856C158.244 50.3813 159.994 49.144 162.383 49.144C164.858 49.144 166.692 49.7413 167.887 50.936V147.832ZM133.071 93.816C134.266 97.5707 135.631 99.96 137.167 100.984C138.703 101.923 140.879 102.392 143.695 102.392C146.511 102.392 149.327 100.515 152.143 96.76C154.959 93.0053 156.367 87.032 156.367 78.84V71.16C156.367 65.1013 155.343 60.7493 153.295 58.104C151.247 55.4587 148.858 54.136 146.127 54.136C143.482 54.136 141.391 54.392 139.855 54.904C138.319 55.416 136.868 56.4827 135.503 58.104C132.687 61.176 131.279 67.832 131.279 78.072C131.279 84.8133 131.876 90.0613 133.071 93.816ZM218.432 56.952C218.432 54.392 219.157 52.472 220.608 51.192C222.059 49.8267 223.808 49.144 225.856 49.144C227.904 49.144 229.525 49.7413 230.72 50.936V87.672C230.72 92.536 231.488 96.2053 233.024 98.68C234.56 101.155 236.651 102.392 239.296 102.392C241.941 102.392 244.501 100.856 246.976 97.784C249.877 94.1147 251.328 87.3307 251.328 77.432C251.413 76.92 252.053 76.664 253.248 76.664C254.784 76.664 255.552 78.9253 255.552 83.448C255.552 90.7013 253.973 96.504 250.816 100.856C247.744 105.208 243.392 107.384 237.76 107.384C228.8 107.384 222.912 103.331 220.096 95.224C216.768 103.331 210.667 107.384 201.792 107.384C196.501 107.384 192.235 105.805 188.992 102.648C185.749 99.4053 184.128 94.7973 184.128 88.824V56.952C184.128 54.392 184.768 52.472 186.048 51.192C187.328 49.8267 188.949 49.144 190.912 49.144C192.875 49.144 194.453 49.7413 195.648 50.936V87.672C195.648 97.8267 198.208 102.904 203.328 102.904C207.168 102.904 210.624 100.6 213.696 95.992C216.853 91.384 218.432 84.8987 218.432 76.536V56.952ZM289.516 52.856C290.625 50.3813 292.375 49.144 294.764 49.144C297.239 49.144 299.073 49.7413 300.268 50.936V87.672C300.268 92.536 301.036 96.2053 302.572 98.68C304.108 101.155 306.199 102.392 308.844 102.392C316.865 102.392 320.876 94.072 320.876 77.432C320.961 76.92 321.601 76.664 322.796 76.664C324.332 76.664 325.1 78.9253 325.1 83.448C325.1 90.7013 323.521 96.504 320.364 100.856C317.292 105.208 312.94 107.384 307.308 107.384C298.689 107.384 292.972 103.587 290.156 95.992C288.535 99.4907 286.316 102.264 283.5 104.312C280.684 106.36 277.484 107.384 273.9 107.384C258.967 107.384 251.5 97.6133 251.5 78.072C251.5 68.1733 253.804 60.8773 258.412 56.184C263.105 51.4907 269.292 49.144 276.972 49.144C282.86 49.144 287.041 50.3813 289.516 52.856ZM265.452 93.816C266.647 97.5707 268.012 99.96 269.548 100.984C271.084 101.923 273.132 102.392 275.692 102.392C278.252 102.392 281.025 100.813 284.012 97.656C287.084 94.4133 288.62 90.232 288.62 85.112V67.576C288.62 63.5653 287.553 60.3227 285.42 57.848C283.372 55.3733 281.025 54.136 278.38 54.136C275.82 54.136 273.772 54.392 272.236 54.904C270.7 55.416 269.249 56.4827 267.884 58.104C265.068 61.176 263.66 67.832 263.66 78.072C263.66 84.8133 264.257 90.0613 265.452 93.816ZM334.821 39.8C334.821 41.336 335.162 42.872 335.845 44.408C335.077 45.432 333.797 45.944 332.005 45.944C330.213 45.944 328.677 45.304 327.397 44.024C326.202 42.744 325.605 40.6533 325.605 37.752C325.605 31.0107 327.653 25.5493 331.749 21.368C335.845 17.1013 341.306 14.968 348.133 14.968C359.397 14.968 366.096 21.112 368.229 33.4C370.106 27.6827 373.178 23.1173 377.445 19.704C381.712 16.2907 386.704 14.584 392.421 14.584C401.296 14.6693 407.952 18.04 412.389 24.696C416.826 31.2667 419.045 40.0987 419.045 51.192V87.416C419.045 92.3653 420.026 96.3333 421.989 99.32C424.037 102.307 426.682 103.8 429.925 103.8C437.946 103.8 441.957 95.7787 441.957 79.736C442.042 79.224 442.469 78.968 443.237 78.968C444.09 78.968 444.73 79.096 445.157 79.352C446.437 80.2907 447.077 82.3813 447.077 85.624C447.077 92.792 445.37 98.5947 441.957 103.032C438.544 107.469 434.021 109.688 428.389 109.688C420.538 109.688 415.034 107.085 411.877 101.88C408.805 96.5893 407.269 89.208 407.269 79.736V51.192C407.269 31.0533 402.32 20.984 392.421 20.984C388.581 20.984 385.21 21.9653 382.309 23.928C379.493 25.8053 377.274 28.152 375.653 30.968C374.032 33.784 372.752 37.1547 371.813 41.08C370.192 47.3947 369.381 54.6053 369.381 62.712V79.096C369.381 89.6773 367.674 98.0827 364.261 104.312C360.933 110.456 355.856 113.528 349.029 113.528C342.288 113.528 337.21 111.949 333.797 108.792C330.384 105.72 328.677 101.624 328.677 96.504C328.677 89.9333 330.81 86.648 335.077 86.648C336.101 86.648 336.997 86.904 337.765 87.416C338.533 87.8427 339.173 88.568 339.685 89.592C339.002 91.384 338.661 94.072 338.661 97.656C338.661 101.155 339.557 103.8 341.349 105.592C343.226 107.384 345.573 108.28 348.389 108.28C354.448 108.28 357.477 101.112 357.477 86.776V37.24C357.477 32.2907 356.453 28.3227 354.405 25.336C352.442 22.3493 349.712 20.856 346.213 20.856C342.8 20.856 340.026 22.264 337.893 25.08C335.845 27.8107 334.821 32.7173 334.821 39.8ZM476.182 56.952C476.182 54.392 476.907 52.472 478.358 51.192C479.809 49.8267 481.558 49.144 483.606 49.144C485.654 49.144 487.275 49.7413 488.47 50.936V87.672C488.47 92.536 489.238 96.2053 490.774 98.68C492.31 101.155 494.401 102.392 497.046 102.392C499.691 102.392 502.251 100.856 504.726 97.784C507.627 94.1147 509.078 87.3307 509.078 77.432C509.163 76.92 509.803 76.664 510.998 76.664C512.534 76.664 513.302 78.9253 513.302 83.448C513.302 90.7013 511.723 96.504 508.566 100.856C505.494 105.208 501.142 107.384 495.51 107.384C486.55 107.384 480.662 103.331 477.846 95.224C474.518 103.331 468.417 107.384 459.542 107.384C454.251 107.384 449.985 105.805 446.742 102.648C443.499 99.4053 441.878 94.7973 441.878 88.824V56.952C441.878 54.392 442.518 52.472 443.798 51.192C445.078 49.8267 446.699 49.144 448.662 49.144C450.625 49.144 452.203 49.7413 453.398 50.936V87.672C453.398 97.8267 455.958 102.904 461.078 102.904C464.918 102.904 468.374 100.6 471.446 95.992C474.603 91.384 476.182 84.8987 476.182 76.536V56.952ZM532.93 81.272C529.517 80.0773 526.103 78.84 522.69 77.56C519.362 76.1947 516.546 74.2747 514.242 71.8C511.938 69.3253 510.786 66.168 510.786 62.328C510.786 58.4027 512.578 55.2453 516.162 52.856C519.746 50.3813 524.951 49.144 531.778 49.144C538.69 49.144 544.066 50.3387 547.906 52.728C551.831 55.1173 553.794 57.8907 553.794 61.048C553.794 62.584 553.197 63.8213 552.002 64.76C550.893 65.6987 549.783 66.168 548.674 66.168C546.541 66.168 545.133 65.656 544.45 64.632C544.962 64.0347 545.218 62.8827 545.218 61.176C545.218 59.384 543.895 57.7627 541.25 56.312C538.605 54.8613 535.661 54.136 532.418 54.136C529.175 54.136 526.487 54.7333 524.354 55.928C522.221 57.1227 521.154 58.9573 521.154 61.432C521.154 63.8213 522.349 65.912 524.738 67.704C527.213 69.496 530.157 70.9893 533.57 72.184C537.069 73.3787 540.525 74.6587 543.938 76.024C547.437 77.3893 550.381 79.352 552.77 81.912C555.245 84.3867 556.482 87.4587 556.482 91.128C556.482 96.5893 554.093 100.685 549.314 103.416C544.621 106.061 538.391 107.384 530.626 107.384C522.946 107.384 516.674 105.165 511.81 100.728C507.031 96.2053 504.642 90.616 504.642 83.96C504.642 81.5707 505.111 79.6933 506.05 78.328C506.989 76.9627 508.055 76.28 509.25 76.28C511.469 76.28 512.749 76.664 513.09 77.432L513.346 77.816C512.834 79.096 512.578 80.6747 512.578 82.552C512.578 88.2693 514.242 93.0053 517.57 96.76C520.898 100.515 525.506 102.392 531.394 102.392C540.439 102.392 545.005 99.192 545.09 92.792C545.09 87.928 541.037 84.088 532.93 81.272ZM602.016 52.856C603.125 50.3813 604.875 49.144 607.264 49.144C609.739 49.144 611.573 49.7413 612.768 50.936V87.672C612.768 92.536 613.536 96.2053 615.072 98.68C616.608 101.155 618.699 102.392 621.344 102.392C629.365 102.392 633.376 94.072 633.376 77.432C633.461 76.92 634.101 76.664 635.296 76.664C636.832 76.664 637.6 78.9253 637.6 83.448C637.6 90.7013 636.021 96.504 632.864 100.856C629.792 105.208 625.44 107.384 619.808 107.384C611.189 107.384 605.472 103.587 602.656 95.992C601.035 99.4907 598.816 102.264 596 104.312C593.184 106.36 589.984 107.384 586.4 107.384C571.467 107.384 564 97.6133 564 78.072C564 68.1733 566.304 60.8773 570.912 56.184C575.605 51.4907 581.792 49.144 589.472 49.144C595.36 49.144 599.541 50.3813 602.016 52.856ZM577.952 93.816C579.147 97.5707 580.512 99.96 582.048 100.984C583.584 101.923 585.632 102.392 588.192 102.392C590.752 102.392 593.525 100.813 596.512 97.656C599.584 94.4133 601.12 90.232 601.12 85.112V67.576C601.12 63.5653 600.053 60.3227 597.92 57.848C595.872 55.3733 593.525 54.136 590.88 54.136C588.32 54.136 586.272 54.392 584.736 54.904C583.2 55.416 581.749 56.4827 580.384 58.104C577.568 61.176 576.16 67.832 576.16 78.072C576.16 84.8133 576.757 90.0613 577.952 93.816ZM702.873 76.664C704.409 76.664 705.177 78.9253 705.177 83.448C705.177 90.7013 703.598 96.504 700.441 100.856C697.369 105.208 692.846 107.384 686.873 107.384C680.9 107.384 676.292 105.336 673.049 101.24C669.892 97.144 668.313 91.3413 668.313 83.832V68.856C668.313 58.7013 665.753 53.624 660.633 53.624C656.11 53.624 652.398 55.928 649.497 60.536C646.596 65.144 645.145 72.8667 645.145 83.704V105.592C644.292 106.787 642.798 107.384 640.665 107.384C638.532 107.384 636.825 106.744 635.545 105.464C634.265 104.099 633.625 102.136 633.625 99.576V50.936C634.478 49.7413 636.1 49.144 638.489 49.144C642.926 49.144 645.145 52.344 645.145 58.744C648.729 52.344 654.404 49.144 662.169 49.144C667.716 49.144 672.11 50.8933 675.353 54.392C678.681 57.8907 680.345 62.9253 680.345 69.496V87.672C680.345 92.536 681.113 96.2053 682.649 98.68C684.185 101.155 686.446 102.392 689.433 102.392C692.505 102.392 695.193 100.515 697.497 96.76C699.801 92.92 700.953 86.4773 700.953 77.432C701.038 76.92 701.678 76.664 702.873 76.664ZM701.25 38.008C701.25 35.448 701.89 33.528 703.17 32.248C704.45 30.8827 706.071 30.2 708.034 30.2C709.997 30.2 711.575 30.7973 712.77 31.992V50.936H730.306C732.098 50.936 733.25 51.2773 733.762 51.96C734.359 52.6427 734.658 53.7947 734.658 55.416H712.77V87.672C712.77 92.3653 714.093 95.992 716.738 98.552C719.469 101.112 722.583 102.392 726.082 102.392C731.373 102.392 735.255 100.429 737.73 96.504C740.205 92.5787 741.442 86.2213 741.442 77.432C741.613 76.92 742.253 76.664 743.362 76.664C744.898 76.664 745.666 78.9253 745.666 83.448C745.666 90.36 743.917 96.0773 740.418 100.6C737.005 105.123 731.714 107.384 724.546 107.384C717.378 107.384 711.703 105.507 707.522 101.752C703.341 97.9973 701.25 92.408 701.25 84.984V38.008ZM779.766 52.856C780.875 50.3813 782.625 49.144 785.014 49.144C787.489 49.144 789.323 49.7413 790.518 50.936V87.672C790.518 92.536 791.286 96.2053 792.822 98.68C794.358 101.155 796.449 102.392 799.094 102.392C807.115 102.392 811.126 94.072 811.126 77.432C811.211 76.92 811.851 76.664 813.046 76.664C814.582 76.664 815.35 78.9253 815.35 83.448C815.35 90.7013 813.771 96.504 810.614 100.856C807.542 105.208 803.19 107.384 797.558 107.384C788.939 107.384 783.222 103.587 780.406 95.992C778.785 99.4907 776.566 102.264 773.75 104.312C770.934 106.36 767.734 107.384 764.15 107.384C749.217 107.384 741.75 97.6133 741.75 78.072C741.75 68.1733 744.054 60.8773 748.662 56.184C753.355 51.4907 759.542 49.144 767.222 49.144C773.11 49.144 777.291 50.3813 779.766 52.856ZM755.702 93.816C756.897 97.5707 758.262 99.96 759.798 100.984C761.334 101.923 763.382 102.392 765.942 102.392C768.502 102.392 771.275 100.813 774.262 97.656C777.334 94.4133 778.87 90.232 778.87 85.112V67.576C778.87 63.5653 777.803 60.3227 775.67 57.848C773.622 55.3733 771.275 54.136 768.63 54.136C766.07 54.136 764.022 54.392 762.486 54.904C760.95 55.416 759.499 56.4827 758.134 58.104C755.318 61.176 753.91 67.832 753.91 78.072C753.91 84.8133 754.507 90.0613 755.702 93.816ZM823.023 85.24V105.592C822.17 106.787 820.676 107.384 818.543 107.384C816.41 107.384 814.703 106.744 813.423 105.464C812.143 104.099 811.503 102.136 811.503 99.576V50.936C812.356 49.7413 813.85 49.144 815.983 49.144C818.116 49.144 819.823 49.8267 821.103 51.192C822.383 52.472 823.023 54.392 823.023 56.952V66.68C827.29 56.0987 833.178 50.808 840.687 50.808C846.063 50.808 849.988 52.2587 852.463 55.16C854.938 57.976 856.175 61.3467 856.175 65.272C856.175 67.4053 855.535 69.112 854.255 70.392C852.975 71.672 851.738 72.312 850.543 72.312C848.324 72.312 846.874 71.8 846.191 70.776C846.703 69.496 846.959 67.6613 846.959 65.272C846.959 62.8827 846.148 60.7067 844.527 58.744C842.906 56.7813 840.943 55.8 838.639 55.8C834.628 55.8 831.002 59.4693 827.759 66.808C824.602 74.0613 823.023 80.2053 823.023 85.24ZM899.141 52.856C900.25 50.3813 902 49.144 904.389 49.144C906.864 49.144 908.698 49.7413 909.893 50.936V87.672C909.893 92.536 910.661 96.2053 912.197 98.68C913.733 101.155 915.824 102.392 918.469 102.392C926.49 102.392 930.501 94.072 930.501 77.432C930.586 76.92 931.226 76.664 932.421 76.664C933.957 76.664 934.725 78.9253 934.725 83.448C934.725 90.7013 933.146 96.504 929.989 100.856C926.917 105.208 922.565 107.384 916.933 107.384C908.314 107.384 902.597 103.587 899.781 95.992C898.16 99.4907 895.941 102.264 893.125 104.312C890.309 106.36 887.109 107.384 883.525 107.384C868.592 107.384 861.125 97.6133 861.125 78.072C861.125 68.1733 863.429 60.8773 868.037 56.184C872.73 51.4907 878.917 49.144 886.597 49.144C892.485 49.144 896.666 50.3813 899.141 52.856ZM875.077 93.816C876.272 97.5707 877.637 99.96 879.173 100.984C880.709 101.923 882.757 102.392 885.317 102.392C887.877 102.392 890.65 100.813 893.637 97.656C896.709 94.4133 898.245 90.232 898.245 85.112V67.576C898.245 63.5653 897.178 60.3227 895.045 57.848C892.997 55.3733 890.65 54.136 888.005 54.136C885.445 54.136 883.397 54.392 881.861 54.904C880.325 55.416 878.874 56.4827 877.509 58.104C874.693 61.176 873.285 67.832 873.285 78.072C873.285 84.8133 873.882 90.0613 875.077 93.816Z" fill="black"/>
<path d="M111.808 78.84L109.687 80.9613L109.804 81.0788L109.934 81.1826L111.808 78.84ZM111.936 84.344V87.344H113.179L114.057 86.4653L111.936 84.344ZM93.76 84.344V81.344H89.7279L90.8865 85.206L93.76 84.344ZM101.056 108.664L103.941 107.84L103.935 107.821L103.929 107.802L101.056 108.664ZM90.176 114.68L87.3022 115.541L87.5502 116.369L88.2005 116.938L90.176 114.68ZM81.088 84.344L83.9618 83.4831L83.321 81.344H81.088V84.344ZM48.448 84.344V81.344H46.3546L45.6323 83.3088L48.448 84.344ZM42.048 101.752L44.8553 102.81L44.8596 102.799L44.8637 102.787L42.048 101.752ZM32.448 116.984L34.5906 119.084L34.5906 119.084L32.448 116.984ZM4.416 119.416L6.47003 117.229L6.45376 117.214L6.43726 117.199L4.416 119.416ZM3.776 94.328L6.32911 95.9033L6.34862 95.8717L6.36734 95.8396L3.776 94.328ZM13.376 84.728L11.8816 82.1267L11.8816 82.1267L13.376 84.728ZM40.256 77.816V80.816H42.3757L43.0837 78.818L40.256 77.816ZM58.944 25.08L61.7717 26.082L61.776 26.07L61.7801 26.058L58.944 25.08ZM61.632 19.576L63.991 21.4295L64.9508 20.2079L64.507 18.719L61.632 19.576ZM59.456 1.91199L61.4974 4.11038L61.503 4.10516L59.456 1.91199ZM69.056 1.91199L71.9307 1.05395L71.6831 0.224367L71.0315 -0.345735L69.056 1.91199ZM91.712 77.816L88.8373 78.674L89.4818 80.8331L91.7349 80.8159L91.712 77.816ZM108.48 77.688V74.688H108.469L108.457 74.6881L108.48 77.688ZM32.832 98.68L35.6508 99.7067L35.6567 99.6906L35.6624 99.6745L32.832 98.68ZM37.824 84.472L40.6544 85.4665L42.0578 81.472H37.824V84.472ZM15.424 91.128L13.5499 88.7854L13.541 88.7925L13.5322 88.7997L15.424 91.128ZM9.664 115.576L7.54268 117.697L7.56987 117.725L7.59775 117.751L9.664 115.576ZM66.496 29.432L69.4 28.6791L66.8104 18.6907L63.641 28.5105L66.496 29.432ZM50.88 77.816L48.025 76.8945L46.7594 80.816H50.88V77.816ZM79.04 77.816V80.816H82.917L81.944 77.0631L79.04 77.816ZM109.934 81.1826C109.992 81.229 110.023 81.2631 110.038 81.2814C110.052 81.299 110.057 81.309 110.059 81.3138C110.062 81.3187 110.068 81.332 110.074 81.3603C110.08 81.3897 110.088 81.4435 110.088 81.528H116.088C116.088 79.5234 115.26 77.7593 113.682 76.4974L109.934 81.1826ZM110.088 81.528C110.088 81.8607 110.007 82.0306 109.815 82.2227L114.057 86.4653C115.401 85.1214 116.088 83.4139 116.088 81.528H110.088ZM111.936 81.344H93.76V87.344H111.936V81.344ZM90.8865 85.206L98.1825 109.526L103.929 107.802L96.6335 83.482L90.8865 85.206ZM98.1714 109.488C98.2371 109.718 98.312 110.181 98.312 110.968H104.312C104.312 109.877 104.216 108.805 103.941 107.84L98.1714 109.488ZM98.312 110.968C98.312 110.809 98.3582 110.851 98.2007 111.155C98.047 111.452 97.7587 111.881 97.2623 112.448L101.778 116.4C103.064 114.929 104.312 113.06 104.312 110.968H98.312ZM97.2623 112.448C96.3919 113.443 95.9094 113.472 95.808 113.472V119.472C98.2666 119.472 100.259 118.135 101.778 116.4L97.2623 112.448ZM95.808 113.472C93.911 113.472 92.8162 113.004 92.1515 112.422L88.2005 116.938C90.2665 118.745 92.9264 119.472 95.808 119.472V113.472ZM93.0498 113.819L83.9618 83.4831L78.2142 85.2049L87.3022 115.541L93.0498 113.819ZM81.088 81.344H48.448V87.344H81.088V81.344ZM45.6323 83.3088L39.2323 100.717L44.8637 102.787L51.2637 85.3792L45.6323 83.3088ZM39.2407 100.694C37.1609 106.214 34.1798 110.931 30.3054 114.884L34.5906 119.084C39.0789 114.504 42.4978 109.066 44.8553 102.81L39.2407 100.694ZM30.3054 114.884C26.7553 118.507 22.1429 120.384 16.192 120.384V126.384C23.5531 126.384 29.778 123.995 34.5906 119.084L30.3054 114.884ZM16.192 120.384C11.6819 120.384 8.57728 119.209 6.47003 117.229L2.36197 121.603C5.88672 124.914 10.6328 126.384 16.192 126.384V120.384ZM6.43726 117.199C4.32469 115.273 3.064 112.34 3.064 107.896H-2.936C-2.936 113.521 -1.29536 118.268 2.39474 121.633L6.43726 117.199ZM3.064 107.896C3.064 103.378 4.16673 99.4079 6.32911 95.9033L1.22289 92.7527C-1.56406 97.2695 -2.936 102.345 -2.936 107.896H3.064ZM6.36734 95.8396C8.49948 92.1845 11.3261 89.3654 14.8704 87.3293L11.8816 82.1267C7.40453 84.6986 3.83119 88.2795 1.18466 92.8164L6.36734 95.8396ZM14.8704 87.3293C22.4051 83.0008 30.8437 80.816 40.256 80.816V74.816C29.8709 74.816 20.3895 77.2392 11.8816 82.1267L14.8704 87.3293ZM43.0837 78.818L61.7717 26.082L56.1163 24.0779L37.4283 76.8139L43.0837 78.818ZM61.7801 26.058C62.5913 23.7056 63.3562 22.2373 63.991 21.4295L59.273 17.7225C58.0304 19.304 57.0034 21.5051 56.1079 24.102L61.7801 26.058ZM64.507 18.719C63.1866 14.2892 62.2027 10.8817 61.5509 8.48479C61.2242 7.28359 60.9876 6.36025 60.8348 5.69982C60.6484 4.89397 60.664 4.78688 60.664 4.98399H54.664C54.664 5.60777 54.845 6.42868 54.9892 7.05217C55.1671 7.82107 55.4264 8.8284 55.7611 10.0592C56.432 12.5263 57.4321 15.9882 58.757 20.433L64.507 18.719ZM60.664 4.98399C60.664 5.16837 60.6029 5.19571 60.7033 5.02361C60.8095 4.84163 61.0413 4.5339 61.4974 4.11037L57.4146 -0.286385C56.0316 0.997916 54.664 2.77057 54.664 4.98399H60.664ZM61.503 4.10516C62.4345 3.23574 63.0183 3.12 63.296 3.12V-2.88C61.0137 -2.88 59.0375 -1.80108 57.409 -0.281172L61.503 4.10516ZM63.296 3.12C65.3098 3.12 66.4335 3.60361 67.0805 4.16973L71.0315 -0.345735C68.9478 -2.16895 66.2315 -2.88 63.296 -2.88V3.12ZM66.1813 2.77004L88.8373 78.674L94.5867 76.958L71.9307 1.05395L66.1813 2.77004ZM91.7349 80.8159L108.503 80.6879L108.457 74.6881L91.6891 74.8161L91.7349 80.8159ZM108.48 80.688C109.411 80.688 109.65 80.9248 109.687 80.9613L113.929 76.7187C112.43 75.2192 110.451 74.688 108.48 74.688V80.688ZM16.192 121.008C20.5295 121.008 24.2806 118.786 27.4255 115.133C30.5357 111.521 33.2467 106.307 35.6508 99.7067L30.0132 97.6533C27.724 103.938 25.315 108.389 22.8785 111.219C20.4767 114.008 18.2545 115.008 16.192 115.008V121.008ZM35.6624 99.6745L40.6544 85.4665L34.9936 83.4775L30.0016 97.6855L35.6624 99.6745ZM37.824 81.472C27.976 81.472 19.778 83.8029 13.5499 88.7854L17.2981 93.4706C22.1633 89.5784 28.8987 87.472 37.824 87.472V81.472ZM13.5322 88.7997C7.34515 93.8267 4.232 100.539 4.232 108.664H10.232C10.232 102.282 12.5802 97.304 17.3158 93.4563L13.5322 88.7997ZM4.232 108.664C4.232 112.196 5.20327 115.358 7.54268 117.697L11.7853 113.455C10.8821 112.551 10.232 111.106 10.232 108.664H4.232ZM7.59775 117.751C9.93248 119.969 12.8807 121.008 16.192 121.008V115.008C14.2126 115.008 12.8089 114.426 11.7302 113.401L7.59775 117.751ZM63.641 28.5105L48.025 76.8945L53.735 78.7374L69.351 30.3534L63.641 28.5105ZM50.88 80.816H79.04V74.816H50.88V80.816ZM81.944 77.0631L69.4 28.6791L63.592 30.1849L76.136 78.5689L81.944 77.0631ZM165.967 153.592L163.846 151.471L163.811 151.505L163.778 151.54L165.967 153.592ZM156.367 153.848H153.367V155.091L154.246 155.969L156.367 153.848ZM156.367 98.552H159.367V87.8536L153.804 96.9922L156.367 98.552ZM126.031 56.184L123.91 54.0627L123.9 54.0724L123.89 54.0822L126.031 56.184ZM157.135 52.856L155.014 54.9773L158.092 58.0555L159.873 54.0832L157.135 52.856ZM167.887 50.936H170.887V49.6934L170.008 48.8147L167.887 50.936ZM133.071 93.816L135.93 92.9064L135.93 92.9064L133.071 93.816ZM137.167 100.984L135.503 103.48L135.552 103.513L135.603 103.544L137.167 100.984ZM152.143 96.76L154.543 98.56L154.543 98.56L152.143 96.76ZM153.295 58.104L155.667 56.2675L155.667 56.2675L153.295 58.104ZM139.855 54.904L140.804 57.7501L140.804 57.75L139.855 54.904ZM135.503 58.104L137.714 60.1312L137.757 60.0847L137.798 60.0364L135.503 58.104ZM164.887 147.832C164.887 149.93 164.365 150.952 163.846 151.471L168.088 155.713C170.129 153.672 170.887 150.854 170.887 147.832H164.887ZM163.778 151.54C163.096 152.268 162.282 152.64 161.103 152.64V158.64C163.849 158.64 166.278 157.646 168.156 155.644L163.778 151.54ZM161.103 152.64C159.797 152.64 159.029 152.267 158.488 151.727L154.246 155.969C156.094 157.818 158.484 158.64 161.103 158.64V152.64ZM159.367 153.848V98.552H153.367V153.848H159.367ZM153.804 96.9922C150.705 102.084 146.676 104.384 141.519 104.384V110.384C148.991 110.384 154.861 106.796 158.93 100.112L153.804 96.9922ZM141.519 104.384C134.763 104.384 130.145 102.216 127.103 98.2344C123.944 94.1005 122.119 87.5453 122.119 78.072H116.119C116.119 88.1401 118.028 96.2408 122.335 101.878C126.76 107.667 133.341 110.384 141.519 110.384V104.384ZM122.119 78.072C122.119 68.5688 124.338 62.1904 128.172 58.2858L123.89 54.0822C118.508 59.5643 116.119 67.7779 116.119 78.072H122.119ZM128.152 58.3053C132.194 54.2635 137.571 52.144 144.591 52.144V46.144C136.251 46.144 129.255 48.7178 123.91 54.0627L128.152 58.3053ZM144.591 52.144C150.195 52.144 153.382 53.3454 155.014 54.9773L159.256 50.7347C155.939 47.4173 150.763 46.144 144.591 46.144V52.144ZM159.873 54.0832C160.265 53.2075 160.677 52.7576 161.011 52.5212C161.322 52.3017 161.734 52.144 162.383 52.144V46.144C160.642 46.144 158.986 46.605 157.547 47.6228C156.131 48.6237 155.114 50.0299 154.397 51.6288L159.873 54.0832ZM162.383 52.144C164.431 52.144 165.35 52.6412 165.766 53.0573L170.008 48.8147C168.035 46.8415 165.284 46.144 162.383 46.144V52.144ZM164.887 50.936V147.832H170.887V50.936H164.887ZM130.212 94.7256C130.849 96.7258 131.565 98.4744 132.386 99.9124C133.196 101.329 134.204 102.614 135.503 103.48L138.831 98.4878C138.594 98.3297 138.151 97.908 137.596 96.9356C137.052 95.9842 136.488 94.6609 135.93 92.9064L130.212 94.7256ZM135.603 103.544C137.805 104.89 140.612 105.392 143.695 105.392V99.392C141.146 99.392 139.601 98.9558 138.731 98.4242L135.603 103.544ZM143.695 105.392C147.941 105.392 151.535 102.571 154.543 98.56L149.743 94.96C147.119 98.4583 145.081 99.392 143.695 99.392V105.392ZM154.543 98.56C157.946 94.0232 159.367 87.2496 159.367 78.84H153.367C153.367 86.8144 151.972 91.9875 149.743 94.96L154.543 98.56ZM159.367 78.84V71.16H153.367V78.84H159.367ZM159.367 71.16C159.367 64.9111 158.34 59.7194 155.667 56.2675L150.923 59.9405C152.346 61.7793 153.367 65.2915 153.367 71.16H159.367ZM155.667 56.2675C153.193 53.0717 149.995 51.136 146.127 51.136V57.136C147.72 57.136 149.301 57.8456 150.923 59.9405L155.667 56.2675ZM146.127 51.136C143.336 51.136 140.88 51.4 138.906 52.058L140.804 57.75C141.902 57.384 143.627 57.136 146.127 57.136V51.136ZM138.906 52.0579C136.707 52.7909 134.822 54.2554 133.208 56.1716L137.798 60.0364C138.915 58.71 139.931 58.0411 140.804 57.7501L138.906 52.0579ZM133.292 56.0768C131.359 58.1847 130.152 61.2237 129.4 64.7791C128.637 68.3859 128.279 72.8367 128.279 78.072H134.279C134.279 73.0673 134.625 69.0701 135.27 66.0209C135.926 62.9202 136.831 61.0953 137.714 60.1312L133.292 56.0768ZM128.279 78.072C128.279 84.9357 128.881 90.5405 130.212 94.7256L135.93 92.9064C134.872 89.5822 134.279 84.6909 134.279 78.072H128.279ZM220.608 51.192L222.593 53.4415L222.629 53.4096L222.664 53.3766L220.608 51.192ZM230.72 50.936H233.72V49.6934L232.841 48.8147L230.72 50.936ZM233.024 98.68L235.573 97.0979L235.573 97.0979L233.024 98.68ZM246.976 97.784L249.312 99.666L249.321 99.6554L249.329 99.6447L246.976 97.784ZM251.328 77.432L248.369 76.9388L248.328 77.1837V77.432H251.328ZM250.816 100.856L248.388 99.0943L248.376 99.1101L248.365 99.126L250.816 100.856ZM220.096 95.224L222.93 94.2396L220.33 86.7547L217.321 94.0847L220.096 95.224ZM188.992 102.648L186.871 104.769L186.885 104.783L186.899 104.797L188.992 102.648ZM186.048 51.192L188.169 53.3133L188.204 53.2791L188.237 53.2438L186.048 51.192ZM195.648 50.936H198.648V49.6934L197.769 48.8147L195.648 50.936ZM213.696 95.992L211.221 94.2963L211.21 94.312L211.2 94.3279L213.696 95.992ZM221.432 56.952C221.432 54.9586 221.979 53.9827 222.593 53.4415L218.623 48.9425C216.335 50.9613 215.432 53.8254 215.432 56.952H221.432ZM222.664 53.3766C223.541 52.5511 224.548 52.144 225.856 52.144V46.144C223.068 46.144 220.576 47.1022 218.552 49.0074L222.664 53.3766ZM225.856 52.144C227.288 52.144 228.082 52.541 228.599 53.0573L232.841 48.8147C230.968 46.9417 228.52 46.144 225.856 46.144V52.144ZM227.72 50.936V87.672H233.72V50.936H227.72ZM227.72 87.672C227.72 92.7611 228.507 97.0918 230.475 100.262L235.573 97.0979C234.469 95.3189 233.72 92.3109 233.72 87.672H227.72ZM230.475 100.262C232.492 103.512 235.494 105.392 239.296 105.392V99.392C237.808 99.392 236.628 98.7974 235.573 97.0979L230.475 100.262ZM239.296 105.392C243.225 105.392 246.555 103.089 249.312 99.666L244.64 95.902C242.448 98.6234 240.658 99.392 239.296 99.392V105.392ZM249.329 99.6447C252.916 95.1084 254.328 87.3895 254.328 77.432H248.328C248.328 87.2718 246.839 93.1209 244.623 95.9233L249.329 99.6447ZM254.287 77.9252C254.209 78.396 253.988 78.8266 253.677 79.1559C253.392 79.4572 253.112 79.591 252.986 79.6414C252.783 79.7228 252.794 79.664 253.248 79.664V73.664C252.507 73.664 251.601 73.7332 250.758 74.0706C249.825 74.4437 248.639 75.3162 248.369 76.9388L254.287 77.9252ZM253.248 79.664C252.803 79.664 252.396 79.4658 252.155 79.2291C251.986 79.0632 252.028 79.0076 252.135 79.3247C252.358 79.9793 252.552 81.2764 252.552 83.448H258.552C258.552 81.097 258.362 79.002 257.817 77.3953C257.289 75.8414 255.976 73.664 253.248 73.664V79.664ZM252.552 83.448C252.552 90.2861 251.063 95.4063 248.388 99.0943L253.244 102.618C256.883 97.6017 258.552 91.1166 258.552 83.448H252.552ZM248.365 99.126C245.892 102.629 242.483 104.384 237.76 104.384V110.384C244.301 110.384 249.596 107.787 253.267 102.586L248.365 99.126ZM237.76 104.384C233.733 104.384 230.655 103.477 228.325 101.873C226.006 100.277 224.171 97.8135 222.93 94.2396L217.262 96.2084C218.837 100.741 221.354 104.358 224.923 106.815C228.481 109.265 232.827 110.384 237.76 110.384V104.384ZM217.321 94.0847C215.839 97.6944 213.824 100.211 211.364 101.845C208.901 103.481 205.765 104.384 201.792 104.384V110.384C206.694 110.384 211.046 109.26 214.684 106.843C218.325 104.424 221.025 100.86 222.871 96.3633L217.321 94.0847ZM201.792 104.384C197.141 104.384 193.673 103.019 191.085 100.499L186.899 104.797C190.796 108.592 195.862 110.384 201.792 110.384V104.384ZM191.113 100.527C188.589 98.0021 187.128 94.2524 187.128 88.824H181.128C181.128 95.3422 182.91 100.809 186.871 104.769L191.113 100.527ZM187.128 88.824V56.952H181.128V88.824H187.128ZM187.128 56.952C187.128 54.8544 187.65 53.8323 188.169 53.3133L183.927 49.0707C181.886 51.1117 181.128 53.9296 181.128 56.952H187.128ZM188.237 53.2438C188.919 52.5158 189.733 52.144 190.912 52.144V46.144C188.166 46.144 185.737 47.1375 183.859 49.1402L188.237 53.2438ZM190.912 52.144C192.218 52.144 192.986 52.5165 193.527 53.0573L197.769 48.8147C195.921 46.9661 193.531 46.144 190.912 46.144V52.144ZM192.648 50.936V87.672H198.648V50.936H192.648ZM192.648 87.672C192.648 92.9045 193.292 97.2779 194.889 100.447C195.71 102.074 196.826 103.471 198.314 104.455C199.819 105.449 201.528 105.904 203.328 105.904V99.904C202.568 99.904 202.038 99.7238 201.622 99.4495C201.19 99.1635 200.706 98.6569 200.247 97.7454C199.284 95.8367 198.648 92.5942 198.648 87.672H192.648ZM203.328 105.904C208.569 105.904 212.828 102.702 216.192 97.6561L211.2 94.3279C208.42 98.4983 205.767 99.904 203.328 99.904V105.904ZM216.171 97.6877C219.801 92.3889 221.432 85.2206 221.432 76.536H215.432C215.432 84.5767 213.905 90.3791 211.221 94.2963L216.171 97.6877ZM221.432 76.536V56.952H215.432V76.536H221.432ZM289.516 52.856L287.395 54.9773L290.473 58.0555L292.254 54.0832L289.516 52.856ZM300.268 50.936H303.268V49.6934L302.389 48.8147L300.268 50.936ZM302.572 98.68L305.121 97.0979L305.121 97.0979L302.572 98.68ZM320.876 77.432L317.917 76.9388L317.876 77.1837V77.432H320.876ZM320.364 100.856L317.936 99.0943L317.924 99.1101L317.913 99.1259L320.364 100.856ZM290.156 95.992L292.969 94.949L290.464 88.1928L287.434 94.7306L290.156 95.992ZM283.5 104.312L281.735 101.886L281.735 101.886L283.5 104.312ZM258.412 56.184L256.291 54.0627L256.281 54.0724L256.271 54.0822L258.412 56.184ZM265.452 93.816L268.311 92.9064L268.311 92.9064L265.452 93.816ZM269.548 100.984L267.884 103.48L267.933 103.513L267.984 103.544L269.548 100.984ZM284.012 97.656L281.834 95.5928L281.833 95.5944L284.012 97.656ZM285.42 57.848L283.109 59.7607L283.128 59.784L283.148 59.8068L285.42 57.848ZM272.236 54.904L273.185 57.75L273.185 57.75L272.236 54.904ZM267.884 58.104L270.095 60.1312L270.138 60.0847L270.179 60.0364L267.884 58.104ZM292.254 54.0832C292.646 53.2075 293.058 52.7576 293.392 52.5212C293.703 52.3017 294.115 52.144 294.764 52.144V46.144C293.023 46.144 291.367 46.605 289.928 47.6228C288.512 48.6237 287.495 50.0299 286.778 51.6288L292.254 54.0832ZM294.764 52.144C296.812 52.144 297.731 52.6412 298.147 53.0573L302.389 48.8147C300.416 46.8415 297.665 46.144 294.764 46.144V52.144ZM297.268 50.936V87.672H303.268V50.936H297.268ZM297.268 87.672C297.268 92.7611 298.055 97.0918 300.023 100.262L305.121 97.0979C304.017 95.3189 303.268 92.3109 303.268 87.672H297.268ZM300.023 100.262C302.04 103.512 305.042 105.392 308.844 105.392V99.392C307.356 99.392 306.176 98.7974 305.121 97.0979L300.023 100.262ZM308.844 105.392C311.397 105.392 313.76 104.72 315.814 103.3C317.844 101.896 319.4 99.8817 320.57 97.4547C322.871 92.6817 323.876 85.8972 323.876 77.432H317.876C317.876 85.6068 316.875 91.3023 315.166 94.8493C314.33 96.5823 313.38 97.6879 312.402 98.3645C311.448 99.0242 310.301 99.392 308.844 99.392V105.392ZM323.835 77.9252C323.757 78.396 323.536 78.8266 323.225 79.1559C322.94 79.4572 322.66 79.591 322.534 79.6414C322.331 79.7228 322.342 79.664 322.796 79.664V73.664C322.055 73.664 321.149 73.7332 320.306 74.0706C319.373 74.4437 318.187 75.3162 317.917 76.9388L323.835 77.9252ZM322.796 79.664C322.351 79.664 321.944 79.4658 321.703 79.2291C321.534 79.0632 321.576 79.0076 321.683 79.3247C321.906 79.9793 322.1 81.2764 322.1 83.448H328.1C328.1 81.097 327.91 79.002 327.365 77.3953C326.837 75.8414 325.524 73.664 322.796 73.664V79.664ZM322.1 83.448C322.1 90.2861 320.611 95.4063 317.936 99.0943L322.792 102.618C326.431 97.6017 328.1 91.1166 328.1 83.448H322.1ZM317.913 99.1259C315.44 102.629 312.031 104.384 307.308 104.384V110.384C313.849 110.384 319.144 107.787 322.815 102.586L317.913 99.1259ZM307.308 104.384C303.438 104.384 300.47 103.534 298.216 102.037C295.976 100.549 294.197 98.2617 292.969 94.949L287.343 97.035C288.931 101.317 291.419 104.725 294.896 107.035C298.359 109.335 302.559 110.384 307.308 110.384V104.384ZM287.434 94.7306C286.004 97.8167 284.095 100.17 281.735 101.886L285.265 106.738C288.537 104.358 291.065 101.165 292.878 97.2534L287.434 94.7306ZM281.735 101.886C279.448 103.549 276.87 104.384 273.9 104.384V110.384C278.098 110.384 281.92 109.171 285.265 106.738L281.735 101.886ZM273.9 104.384C267.144 104.384 262.526 102.216 259.484 98.2344C256.325 94.1005 254.5 87.5453 254.5 78.072H248.5C248.5 88.1401 250.409 96.2408 254.716 101.878C259.141 107.667 265.722 110.384 273.9 110.384V104.384ZM254.5 78.072C254.5 68.5688 256.719 62.1904 260.553 58.2858L256.271 54.0822C250.889 59.5643 248.5 67.7779 248.5 78.072H254.5ZM260.533 58.3053C264.575 54.2635 269.952 52.144 276.972 52.144V46.144C268.632 46.144 261.636 48.7178 256.291 54.0627L260.533 58.3053ZM276.972 52.144C282.576 52.144 285.763 53.3454 287.395 54.9773L291.637 50.7347C288.32 47.4173 283.144 46.144 276.972 46.144V52.144ZM262.593 94.7256C263.23 96.7258 263.946 98.4744 264.767 99.9124C265.577 101.329 266.585 102.614 267.884 103.48L271.212 98.4878C270.975 98.3297 270.532 97.908 269.977 96.9356C269.433 95.9842 268.869 94.6609 268.311 92.9064L262.593 94.7256ZM267.984 103.544C270.149 104.867 272.801 105.392 275.692 105.392V99.392C273.463 99.392 272.019 98.9781 271.112 98.4242L267.984 103.544ZM275.692 105.392C279.496 105.392 283.012 103.079 286.191 99.7176L281.833 95.5944C279.039 98.548 277.008 99.392 275.692 99.392V105.392ZM286.19 99.7192C289.867 95.8374 291.62 90.8787 291.62 85.112H285.62C285.62 89.5852 284.301 92.9893 281.834 95.5928L286.19 99.7192ZM291.62 85.112V67.576H285.62V85.112H291.62ZM291.62 67.576C291.62 63.0164 290.395 59.0248 287.692 55.8892L283.148 59.8068C284.711 61.6206 285.62 64.1143 285.62 67.576H291.62ZM287.731 55.9353C285.248 52.9343 282.111 51.136 278.38 51.136V57.136C279.94 57.136 281.496 57.8123 283.109 59.7607L287.731 55.9353ZM278.38 51.136C275.662 51.136 273.254 51.4025 271.287 52.0579L273.185 57.75C274.29 57.3815 275.978 57.136 278.38 57.136V51.136ZM271.287 52.0579C269.088 52.7909 267.203 54.2554 265.589 56.1716L270.179 60.0364C271.296 58.71 272.312 58.0411 273.185 57.75L271.287 52.0579ZM265.673 56.0768C263.74 58.1847 262.533 61.2237 261.781 64.7791C261.018 68.3859 260.66 72.8367 260.66 78.072H266.66C266.66 73.0673 267.006 69.0701 267.651 66.0209C268.307 62.9202 269.212 61.0953 270.095 60.1312L265.673 56.0768ZM260.66 78.072C260.66 84.9357 261.262 90.5405 262.593 94.7256L268.311 92.9064C267.253 89.5822 266.66 84.6909 266.66 78.072H260.66ZM335.845 44.408L338.245 46.208L339.302 44.799L338.586 43.1896L335.845 44.408ZM327.397 44.024L325.204 46.071L325.239 46.1088L325.276 46.1453L327.397 44.024ZM331.749 21.368L333.892 23.4673L333.903 23.4565L333.913 23.4456L331.749 21.368ZM368.229 33.4L365.273 33.9132L371.079 34.3359L368.229 33.4ZM377.445 19.704L379.319 22.0466L379.319 22.0466L377.445 19.704ZM392.421 14.584L392.45 11.5841L392.435 11.584H392.421V14.584ZM412.389 24.696L409.893 26.3601L409.898 26.3676L409.903 26.375L412.389 24.696ZM421.989 99.32L419.482 100.968L419.498 100.992L419.515 101.017L421.989 99.32ZM441.957 79.736L438.998 79.2428L438.957 79.4877V79.736H441.957ZM445.157 79.352L446.931 76.9328L446.819 76.8508L446.7 76.7795L445.157 79.352ZM441.957 103.032L444.335 104.861L444.335 104.861L441.957 103.032ZM411.877 101.88L409.283 103.386L409.297 103.411L409.312 103.436L411.877 101.88ZM382.309 23.928L383.973 26.4241L383.982 26.4185L383.99 26.4128L382.309 23.928ZM375.653 30.968L378.253 32.4649L378.253 32.4649L375.653 30.968ZM371.813 41.08L374.719 41.8261L374.725 41.8019L374.731 41.7777L371.813 41.08ZM364.261 104.312L361.63 102.87L361.627 102.877L361.623 102.883L364.261 104.312ZM333.797 108.792L335.834 106.59L335.819 106.576L335.804 106.562L333.797 108.792ZM337.765 87.416L336.101 89.9121L336.202 89.9795L336.308 90.0385L337.765 87.416ZM339.685 89.592L342.488 90.66L342.957 89.4288L342.368 88.2504L339.685 89.592ZM341.349 105.592L339.228 107.713L339.252 107.738L339.278 107.762L341.349 105.592ZM354.405 25.336L351.898 26.9835L351.914 27.0082L351.931 27.0326L354.405 25.336ZM337.893 25.08L335.502 23.2684L335.497 23.2742L335.493 23.28L337.893 25.08ZM331.821 39.8C331.821 41.7939 332.267 43.7433 333.104 45.6264L338.586 43.1896C338.058 42.0006 337.821 40.878 337.821 39.8H331.821ZM333.445 42.608C333.417 42.6459 333.365 42.7066 333.195 42.7746C332.998 42.8533 332.628 42.944 332.005 42.944V48.944C334.339 48.944 336.706 48.2598 338.245 46.208L333.445 42.608ZM332.005 42.944C331.018 42.944 330.242 42.6265 329.518 41.9027L325.276 46.1453C327.112 47.9815 329.408 48.944 332.005 48.944V42.944ZM329.59 41.977C329.163 41.5199 328.605 40.362 328.605 37.752H322.605C322.605 40.9447 323.241 43.9681 325.204 46.071L329.59 41.977ZM328.605 37.752C328.605 31.6669 330.429 27.0023 333.892 23.4673L329.606 19.2687C324.877 24.0964 322.605 30.3544 322.605 37.752H328.605ZM333.913 23.4456C337.355 19.8605 341.986 17.968 348.133 17.968V11.968C340.627 11.968 334.335 14.3422 329.585 19.2904L333.913 23.4456ZM348.133 17.968C353.202 17.968 356.906 19.3365 359.577 21.7869C362.285 24.2705 364.278 28.1824 365.273 33.9132L371.185 32.8868C370.046 26.3296 367.624 21.0255 363.633 17.3651C359.606 13.6715 354.328 11.968 348.133 11.968V17.968ZM371.079 34.3359C372.794 29.114 375.553 25.0593 379.319 22.0466L375.571 17.3614C370.803 21.1754 367.419 26.2513 365.379 32.4641L371.079 34.3359ZM379.319 22.0466C383.028 19.0796 387.351 17.584 392.421 17.584V11.584C386.057 11.584 380.396 13.5017 375.571 17.3614L379.319 22.0466ZM392.392 17.5839C400.401 17.6609 406.073 20.6308 409.893 26.3601L414.885 23.0319C409.83 15.4492 402.19 11.6778 392.45 11.5841L392.392 17.5839ZM409.903 26.375C413.896 32.2881 416.045 40.4666 416.045 51.192H422.045C422.045 39.7307 419.757 30.2452 414.875 23.017L409.903 26.375ZM416.045 51.192V87.416H422.045V51.192H416.045ZM416.045 87.416C416.045 92.7333 417.096 97.3369 419.482 100.968L424.496 97.6725C422.957 95.3298 422.045 91.9974 422.045 87.416H416.045ZM419.515 101.017C422.046 104.708 425.565 106.8 429.925 106.8V100.8C427.799 100.8 426.028 99.9056 424.463 97.6234L419.515 101.017ZM429.925 106.8C432.455 106.8 434.803 106.159 436.853 104.792C438.884 103.438 440.452 101.487 441.632 99.1256C443.951 94.4881 444.957 87.9106 444.957 79.736H438.957C438.957 87.6041 437.958 93.0586 436.266 96.4424C435.441 98.0918 434.502 99.1487 433.525 99.7998C432.567 100.439 431.405 100.8 429.925 100.8V106.8ZM444.916 80.2292C444.876 80.4675 444.78 80.7653 444.581 81.0641C444.38 81.366 444.128 81.5861 443.884 81.7325C443.444 81.9969 443.125 81.968 443.237 81.968V75.968C442.581 75.968 441.665 76.0671 440.798 76.5875C439.794 77.1896 439.178 78.1626 438.998 79.2428L444.916 80.2292ZM443.237 81.968C443.523 81.968 443.691 81.9902 443.769 82.0057C443.851 82.0221 443.771 82.0189 443.614 81.9245L446.7 76.7795C445.583 76.1088 444.292 75.968 443.237 75.968V81.968ZM443.383 81.7712C443.337 81.7375 443.528 81.8461 443.728 82.5021C443.93 83.1613 444.077 84.1711 444.077 85.624H450.077C450.077 83.8342 449.904 82.1774 449.466 80.7459C449.026 79.3112 448.257 77.9052 446.931 76.9328L443.383 81.7712ZM444.077 85.624C444.077 92.3178 442.488 97.4213 439.579 101.203L444.335 104.861C448.253 99.768 450.077 93.2662 450.077 85.624H444.077ZM439.579 101.203C436.738 104.897 433.096 106.688 428.389 106.688V112.688C434.946 112.688 440.35 110.042 444.335 104.861L439.579 101.203ZM428.389 106.688C421.24 106.688 416.897 104.372 414.442 100.324L409.312 103.436C413.172 109.799 419.836 112.688 428.389 112.688V106.688ZM414.471 100.374C411.772 95.7254 410.269 88.9442 410.269 79.736H404.269C404.269 89.4718 405.838 97.4532 409.283 103.386L414.471 100.374ZM410.269 79.736V51.192H404.269V79.736H410.269ZM410.269 51.192C410.269 40.9732 409.029 32.8677 406.249 27.2126C404.839 24.3435 402.983 22.0049 400.601 20.3891C398.197 18.7588 395.431 17.984 392.421 17.984V23.984C394.36 23.984 395.925 24.4678 397.233 25.3549C398.563 26.2564 399.8 27.6938 400.865 29.8594C403.034 34.2736 404.269 41.2721 404.269 51.192H410.269ZM392.421 17.984C388.042 17.984 384.073 19.1125 380.628 21.4431L383.99 26.4128C386.347 24.8181 389.12 23.984 392.421 23.984V17.984ZM380.645 21.4318C377.461 23.5547 374.915 26.2375 373.053 29.4711L378.253 32.4649C379.634 30.0665 381.525 28.0559 383.973 26.4241L380.645 21.4318ZM373.053 29.4711C371.258 32.5887 369.885 36.2414 368.895 40.3823L374.731 41.7777C375.618 38.0679 376.805 34.9793 378.253 32.4649L373.053 29.4711ZM368.907 40.3339C367.21 46.943 366.381 54.4119 366.381 62.712H372.381C372.381 54.7987 373.173 47.8464 374.719 41.8261L368.907 40.3339ZM366.381 62.712V79.096H372.381V62.712H366.381ZM366.381 79.096C366.381 89.4015 364.711 97.2472 361.63 102.87L366.892 105.754C370.637 98.9182 372.381 89.9532 372.381 79.096H366.381ZM361.623 102.883C360.168 105.57 358.411 107.443 356.404 108.657C354.401 109.869 351.979 110.528 349.029 110.528V116.528C352.906 116.528 356.436 115.651 359.51 113.791C362.58 111.933 365.026 109.198 366.899 105.741L361.623 102.883ZM349.029 110.528C342.707 110.528 338.488 109.044 335.834 106.59L331.76 110.994C335.933 114.854 341.869 116.528 349.029 116.528V110.528ZM335.804 106.562C333.099 104.128 331.677 100.882 331.677 96.504H325.677C325.677 102.366 327.668 107.312 331.79 111.022L335.804 106.562ZM331.677 96.504C331.677 93.4475 332.191 91.6737 332.793 90.7458C333.25 90.0418 333.852 89.648 335.077 89.648V83.648C332.036 83.648 329.437 84.8969 327.761 87.4782C326.23 89.8357 325.677 92.9899 325.677 96.504H331.677ZM335.077 89.648C335.576 89.648 335.879 89.7641 336.101 89.9121L339.429 84.9198C338.115 84.0439 336.626 83.648 335.077 83.648V89.648ZM336.308 90.0385C336.408 90.0942 336.679 90.288 337.002 90.9336L342.368 88.2504C341.667 86.848 340.658 85.5911 339.222 84.7935L336.308 90.0385ZM336.882 88.524C336.001 90.8366 335.661 93.9676 335.661 97.656H341.661C341.661 94.1764 342.004 91.9314 342.488 90.66L336.882 88.524ZM335.661 97.656C335.661 101.641 336.687 105.173 339.228 107.713L343.47 103.471C342.427 102.427 341.661 100.668 341.661 97.656H335.661ZM339.278 107.762C341.763 110.134 344.873 111.28 348.389 111.28V105.28C346.273 105.28 344.69 104.634 343.42 103.422L339.278 107.762ZM348.389 111.28C350.544 111.28 352.531 110.626 354.223 109.291C355.869 107.993 357.079 106.176 357.968 104.072C359.72 99.9263 360.477 94.0644 360.477 86.776H354.477C354.477 93.8236 353.719 98.7137 352.442 101.736C351.816 103.216 351.133 104.087 350.507 104.581C349.927 105.038 349.264 105.28 348.389 105.28V111.28ZM360.477 86.776V37.24H354.477V86.776H360.477ZM360.477 37.24C360.477 31.9014 359.374 27.2784 356.879 23.6394L351.931 27.0326C353.532 29.3669 354.477 32.6799 354.477 37.24H360.477ZM356.912 23.6885C354.409 19.8795 350.748 17.856 346.213 17.856V23.856C348.676 23.856 350.476 24.8191 351.898 26.9835L356.912 23.6885ZM346.213 17.856C341.823 17.856 338.179 19.7345 335.502 23.2684L340.284 26.8916C341.874 24.7935 343.777 23.856 346.213 23.856V17.856ZM335.493 23.28C332.814 26.8524 331.821 32.6413 331.821 39.8H337.821C337.821 32.7934 338.876 28.769 340.293 26.88L335.493 23.28ZM478.358 51.192L480.343 53.4415L480.379 53.4096L480.414 53.3766L478.358 51.192ZM488.47 50.936H491.47V49.6934L490.591 48.8147L488.47 50.936ZM490.774 98.68L493.323 97.0979L493.323 97.0979L490.774 98.68ZM504.726 97.784L507.062 99.666L507.071 99.6554L507.079 99.6447L504.726 97.784ZM509.078 77.432L506.119 76.9388L506.078 77.1837V77.432H509.078ZM508.566 100.856L506.138 99.0943L506.126 99.1101L506.115 99.126L508.566 100.856ZM477.846 95.224L480.68 94.2396L478.08 86.7547L475.071 94.0847L477.846 95.224ZM446.742 102.648L444.621 104.769L444.635 104.783L444.649 104.797L446.742 102.648ZM443.798 51.192L445.919 53.3133L445.954 53.2791L445.987 53.2438L443.798 51.192ZM453.398 50.936H456.398V49.6934L455.519 48.8147L453.398 50.936ZM471.446 95.992L468.971 94.2963L468.96 94.312L468.95 94.3279L471.446 95.992ZM479.182 56.952C479.182 54.9586 479.729 53.9827 480.343 53.4415L476.373 48.9425C474.085 50.9613 473.182 53.8254 473.182 56.952H479.182ZM480.414 53.3766C481.291 52.5511 482.298 52.144 483.606 52.144V46.144C480.818 46.144 478.326 47.1022 476.302 49.0074L480.414 53.3766ZM483.606 52.144C485.038 52.144 485.832 52.541 486.349 53.0573L490.591 48.8147C488.718 46.9417 486.27 46.144 483.606 46.144V52.144ZM485.47 50.936V87.672H491.47V50.936H485.47ZM485.47 87.672C485.47 92.7611 486.257 97.0918 488.225 100.262L493.323 97.0979C492.219 95.3189 491.47 92.3109 491.47 87.672H485.47ZM488.225 100.262C490.242 103.512 493.244 105.392 497.046 105.392V99.392C495.558 99.392 494.378 98.7974 493.323 97.0979L488.225 100.262ZM497.046 105.392C500.975 105.392 504.305 103.089 507.062 99.666L502.39 95.902C500.198 98.6234 498.408 99.392 497.046 99.392V105.392ZM507.079 99.6447C510.666 95.1084 512.078 87.3895 512.078 77.432H506.078C506.078 87.2718 504.589 93.1209 502.373 95.9233L507.079 99.6447ZM512.037 77.9252C511.959 78.396 511.738 78.8266 511.427 79.1559C511.142 79.4572 510.862 79.591 510.736 79.6414C510.533 79.7228 510.544 79.664 510.998 79.664V73.664C510.257 73.664 509.351 73.7332 508.508 74.0706C507.575 74.4437 506.389 75.3162 506.119 76.9388L512.037 77.9252ZM510.998 79.664C510.553 79.664 510.146 79.4658 509.905 79.2291C509.736 79.0632 509.778 79.0076 509.885 79.3247C510.108 79.9793 510.302 81.2764 510.302 83.448H516.302C516.302 81.097 516.112 79.002 515.567 77.3953C515.039 75.8414 513.726 73.664 510.998 73.664V79.664ZM510.302 83.448C510.302 90.2861 508.813 95.4063 506.138 99.0943L510.994 102.618C514.633 97.6017 516.302 91.1166 516.302 83.448H510.302ZM506.115 99.126C503.642 102.629 500.233 104.384 495.51 104.384V110.384C502.051 110.384 507.346 107.787 511.017 102.586L506.115 99.126ZM495.51 104.384C491.483 104.384 488.405 103.477 486.075 101.873C483.756 100.277 481.921 97.8135 480.68 94.2396L475.012 96.2084C476.587 100.741 479.104 104.358 482.673 106.815C486.231 109.265 490.577 110.384 495.51 110.384V104.384ZM475.071 94.0847C473.589 97.6944 471.574 100.211 469.114 101.845C466.651 103.481 463.515 104.384 459.542 104.384V110.384C464.444 110.384 468.796 109.26 472.434 106.843C476.075 104.424 478.775 100.86 480.621 96.3633L475.071 94.0847ZM459.542 104.384C454.891 104.384 451.423 103.019 448.835 100.499L444.649 104.797C448.546 108.592 453.612 110.384 459.542 110.384V104.384ZM448.863 100.527C446.339 98.0021 444.878 94.2524 444.878 88.824H438.878C438.878 95.3422 440.66 100.809 444.621 104.769L448.863 100.527ZM444.878 88.824V56.952H438.878V88.824H444.878ZM444.878 56.952C444.878 54.8544 445.4 53.8323 445.919 53.3133L441.677 49.0707C439.636 51.1117 438.878 53.9296 438.878 56.952H444.878ZM445.987 53.2438C446.669 52.5158 447.483 52.144 448.662 52.144V46.144C445.916 46.144 443.487 47.1375 441.609 49.1402L445.987 53.2438ZM448.662 52.144C449.968 52.144 450.736 52.5165 451.277 53.0573L455.519 48.8147C453.671 46.9661 451.281 46.144 448.662 46.144V52.144ZM450.398 50.936V87.672H456.398V50.936H450.398ZM450.398 87.672C450.398 92.9045 451.042 97.2779 452.639 100.447C453.46 102.074 454.576 103.471 456.064 104.455C457.569 105.449 459.278 105.904 461.078 105.904V99.904C460.318 99.904 459.788 99.7238 459.372 99.4495C458.94 99.1635 458.456 98.6569 457.997 97.7454C457.034 95.8367 456.398 92.5942 456.398 87.672H450.398ZM461.078 105.904C466.319 105.904 470.578 102.702 473.942 97.6561L468.95 94.3279C466.17 98.4983 463.517 99.904 461.078 99.904V105.904ZM473.921 97.6877C477.551 92.3889 479.182 85.2206 479.182 76.536H473.182C473.182 84.5767 471.655 90.3791 468.971 94.2963L473.921 97.6877ZM479.182 76.536V56.952H473.182V76.536H479.182ZM532.93 81.272L531.939 84.1036L531.946 84.1059L532.93 81.272ZM522.69 77.56L521.551 80.3355L521.594 80.3529L521.637 80.369L522.69 77.56ZM514.242 71.8L512.046 73.8443L512.046 73.8443L514.242 71.8ZM516.162 52.856L517.826 55.3521L517.846 55.3386L517.867 55.3247L516.162 52.856ZM547.906 52.728L546.321 55.2752L546.334 55.2829L546.346 55.2906L547.906 52.728ZM552.002 64.76L550.149 62.401L550.106 62.4347L550.064 62.4698L552.002 64.76ZM544.45 64.632L542.172 62.6796L540.693 64.4051L541.954 66.2961L544.45 64.632ZM541.25 56.312L542.692 53.6816L542.692 53.6816L541.25 56.312ZM524.354 55.928L525.82 58.5455L525.82 58.5455L524.354 55.928ZM524.738 67.704L522.938 70.104L522.958 70.1191L522.978 70.1338L524.738 67.704ZM533.57 72.184L532.579 75.0156L532.59 75.0194L532.601 75.023L533.57 72.184ZM543.938 76.024L542.824 78.8094L542.836 78.8141L542.847 78.8187L543.938 76.024ZM552.77 81.912L550.577 83.959L550.612 83.9968L550.649 84.0333L552.77 81.912ZM549.314 103.416L550.787 106.029L550.795 106.025L550.802 106.021L549.314 103.416ZM511.81 100.728L509.748 102.907L509.768 102.926L509.788 102.944L511.81 100.728ZM506.05 78.328L508.522 80.0276L508.522 80.0276L506.05 78.328ZM513.09 77.432L510.349 78.6504L510.452 78.8837L510.594 79.0961L513.09 77.432ZM513.346 77.816L516.131 78.9302L516.718 77.4649L515.842 76.1519L513.346 77.816ZM517.57 96.76L519.815 94.7701L519.815 94.7701L517.57 96.76ZM545.09 92.792L548.09 92.832L548.09 92.812V92.792H545.09ZM533.921 78.4404C530.529 77.2531 527.136 76.0233 523.743 74.751L521.637 80.369C525.07 81.6567 528.505 82.9016 531.939 84.1036L533.921 78.4404ZM523.829 74.7845C520.876 73.573 518.428 71.8931 516.438 69.7557L512.046 73.8443C514.664 76.6562 517.848 78.8164 521.551 80.3355L523.829 74.7845ZM516.438 69.7557C514.721 67.9124 513.786 65.5202 513.786 62.328H507.786C507.786 66.8158 509.155 70.7382 512.046 73.8443L516.438 69.7557ZM513.786 62.328C513.786 59.5158 514.981 57.249 517.826 55.3521L514.498 50.3598C510.175 53.2416 507.786 57.2896 507.786 62.328H513.786ZM517.867 55.3247C520.739 53.3416 525.241 52.144 531.778 52.144V46.144C524.662 46.144 518.753 47.4211 514.457 50.3873L517.867 55.3247ZM531.778 52.144C538.404 52.144 543.145 53.2991 546.321 55.2752L549.491 50.1808C544.987 47.3782 538.976 46.144 531.778 46.144V52.144ZM546.346 55.2906C549.821 57.4058 550.794 59.3694 550.794 61.048H556.794C556.794 56.412 553.842 52.8289 549.466 50.1654L546.346 55.2906ZM550.794 61.048C550.794 61.6753 550.61 62.0384 550.149 62.401L553.855 67.119C555.783 65.6043 556.794 63.4927 556.794 61.048H550.794ZM550.064 62.4698C549.326 63.0943 548.879 63.168 548.674 63.168V69.168C550.688 69.168 552.459 68.303 553.94 67.0502L550.064 62.4698ZM548.674 63.168C547.821 63.168 547.311 63.0621 547.043 62.9646C546.807 62.8786 546.861 62.8408 546.946 62.9679L541.954 66.2961C543.503 68.6196 546.269 69.168 548.674 69.168V63.168ZM546.728 66.5844C547.425 65.7711 547.769 64.8064 547.955 63.9708C548.146 63.1096 548.218 62.1603 548.218 61.176H542.218C542.218 61.8983 542.162 62.3783 542.097 62.6692C542.027 62.9856 541.987 62.8955 542.172 62.6796L546.728 66.5844ZM548.218 61.176C548.218 57.6831 545.613 55.2834 542.692 53.6816L539.808 58.9424C542.177 60.242 542.218 61.0849 542.218 61.176H548.218ZM542.692 53.6816C539.572 51.9704 536.126 51.136 532.418 51.136V57.136C535.195 57.136 537.637 57.7522 539.808 58.9424L542.692 53.6816ZM532.418 51.136C528.824 51.136 525.592 51.7963 522.888 53.3105L525.82 58.5455C527.383 57.6703 529.527 57.136 532.418 57.136V51.136ZM522.888 53.3105C521.425 54.1296 520.202 55.2439 519.36 56.6921C518.52 58.1386 518.154 59.7539 518.154 61.432H524.154C524.154 60.6355 524.322 60.0961 524.548 59.7079C524.772 59.3215 525.149 58.9211 525.82 58.5455L522.888 53.3105ZM518.154 61.432C518.154 64.9999 520.003 67.9025 522.938 70.104L526.538 65.304C524.695 63.9215 524.154 62.6428 524.154 61.432H518.154ZM522.978 70.1338C525.727 72.1241 528.94 73.742 532.579 75.0156L534.561 69.3524C531.373 68.2367 528.698 66.8679 526.498 65.2742L522.978 70.1338ZM532.601 75.023C536.051 76.2012 539.459 77.4633 542.824 78.8094L545.052 73.2386C541.591 71.854 538.087 70.5562 534.539 69.3449L532.601 75.023ZM542.847 78.8187C545.958 80.0327 548.516 81.7512 550.577 83.959L554.963 79.865C552.245 76.9528 548.915 74.746 545.029 73.2293L542.847 78.8187ZM550.649 84.0333C552.531 85.9157 553.482 88.2114 553.482 91.128H559.482C559.482 86.7059 557.958 82.8576 554.891 79.7907L550.649 84.0333ZM553.482 91.128C553.482 95.5024 551.679 98.6096 547.826 100.811L550.802 106.021C556.507 102.761 559.482 97.6763 559.482 91.128H553.482ZM547.841 100.803C543.753 103.107 538.089 104.384 530.626 104.384V110.384C538.694 110.384 545.489 109.016 550.787 106.029L547.841 100.803ZM530.626 104.384C523.561 104.384 518.052 102.362 513.832 98.5117L509.788 102.944C515.296 107.969 522.331 110.384 530.626 110.384V104.384ZM513.872 98.5491C509.7 94.6005 507.642 89.8026 507.642 83.96H501.642C501.642 91.4294 504.363 97.8102 509.748 102.907L513.872 98.5491ZM507.642 83.96C507.642 81.9212 508.048 80.7166 508.522 80.0276L503.578 76.6284C502.174 78.6701 501.642 81.2202 501.642 83.96H507.642ZM508.522 80.0276C508.831 79.5781 509.062 79.3888 509.171 79.3188C509.197 79.3021 509.216 79.2925 509.227 79.2872C509.238 79.282 509.244 79.2803 509.245 79.28C509.246 79.2797 509.245 79.28 509.244 79.2802C509.242 79.2804 509.244 79.28 509.25 79.28V73.28C506.715 73.28 504.841 74.791 503.578 76.6284L508.522 80.0276ZM509.25 79.28C509.722 79.28 510.106 79.3006 510.411 79.3341C510.72 79.3681 510.911 79.4113 511.012 79.4415C511.119 79.4737 511.058 79.4715 510.92 79.3735C510.765 79.2635 510.519 79.0335 510.349 78.6504L515.831 76.2136C515.141 74.6592 513.725 73.9913 512.736 73.6945C511.693 73.3816 510.486 73.28 509.25 73.28V79.28ZM510.594 79.0961L510.85 79.4801L515.842 76.1519L515.586 75.7679L510.594 79.0961ZM510.561 76.7018C509.866 78.4392 509.578 80.4223 509.578 82.552H515.578C515.578 80.927 515.802 79.7528 516.131 78.9302L510.561 76.7018ZM509.578 82.552C509.578 88.8933 511.443 94.3699 515.325 98.7499L519.815 94.7701C517.041 91.6408 515.578 87.6453 515.578 82.552H509.578ZM515.325 98.7499C519.323 103.26 524.811 105.392 531.394 105.392V99.392C526.201 99.392 522.473 97.7692 519.815 94.7701L515.325 98.7499ZM531.394 105.392C536.182 105.392 540.311 104.561 543.324 102.449C546.521 100.207 548.036 96.8322 548.09 92.832L542.09 92.752C542.058 95.1518 541.248 96.5766 539.88 97.5354C538.328 98.6232 535.651 99.392 531.394 99.392V105.392ZM548.09 92.792C548.09 85.8331 542.21 81.3199 533.914 78.4381L531.946 84.1059C539.863 86.8561 542.09 90.0229 542.09 92.792H548.09ZM602.016 52.856L599.895 54.9773L602.973 58.0555L604.754 54.0832L602.016 52.856ZM612.768 50.936H615.768V49.6934L614.889 48.8147L612.768 50.936ZM615.072 98.68L617.621 97.0979L617.621 97.0979L615.072 98.68ZM633.376 77.432L630.417 76.9388L630.376 77.1837V77.432H633.376ZM632.864 100.856L630.436 99.0943L630.424 99.1101L630.413 99.1259L632.864 100.856ZM602.656 95.992L605.469 94.949L602.964 88.1928L599.934 94.7306L602.656 95.992ZM596 104.312L594.235 101.886L594.235 101.886L596 104.312ZM570.912 56.184L568.791 54.0627L568.781 54.0724L568.771 54.0822L570.912 56.184ZM577.952 93.816L580.811 92.9064L580.811 92.9064L577.952 93.816ZM582.048 100.984L580.384 103.48L580.433 103.513L580.484 103.544L582.048 100.984ZM596.512 97.656L594.334 95.5928L594.333 95.5944L596.512 97.656ZM597.92 57.848L595.609 59.7607L595.628 59.784L595.648 59.8068L597.92 57.848ZM584.736 54.904L585.685 57.75L585.685 57.75L584.736 54.904ZM580.384 58.104L582.595 60.1312L582.638 60.0847L582.679 60.0364L580.384 58.104ZM604.754 54.0832C605.146 53.2075 605.558 52.7576 605.892 52.5212C606.203 52.3017 606.615 52.144 607.264 52.144V46.144C605.523 46.144 603.867 46.605 602.428 47.6228C601.012 48.6237 599.995 50.0299 599.278 51.6288L604.754 54.0832ZM607.264 52.144C609.312 52.144 610.231 52.6412 610.647 53.0573L614.889 48.8147C612.916 46.8415 610.165 46.144 607.264 46.144V52.144ZM609.768 50.936V87.672H615.768V50.936H609.768ZM609.768 87.672C609.768 92.7611 610.555 97.0918 612.523 100.262L617.621 97.0979C616.517 95.3189 615.768 92.3109 615.768 87.672H609.768ZM612.523 100.262C614.54 103.512 617.542 105.392 621.344 105.392V99.392C619.856 99.392 618.676 98.7974 617.621 97.0979L612.523 100.262ZM621.344 105.392C623.897 105.392 626.26 104.72 628.314 103.3C630.344 101.896 631.9 99.8817 633.07 97.4547C635.371 92.6817 636.376 85.8972 636.376 77.432H630.376C630.376 85.6068 629.375 91.3023 627.666 94.8493C626.83 96.5823 625.88 97.6879 624.902 98.3645C623.948 99.0242 622.801 99.392 621.344 99.392V105.392ZM636.335 77.9252C636.257 78.396 636.036 78.8266 635.725 79.1559C635.44 79.4572 635.16 79.591 635.034 79.6414C634.831 79.7228 634.842 79.664 635.296 79.664V73.664C634.555 73.664 633.649 73.7332 632.806 74.0706C631.873 74.4437 630.687 75.3162 630.417 76.9388L636.335 77.9252ZM635.296 79.664C634.851 79.664 634.444 79.4658 634.203 79.2291C634.034 79.0632 634.076 79.0076 634.183 79.3247C634.406 79.9793 634.6 81.2764 634.6 83.448H640.6C640.6 81.097 640.41 79.002 639.865 77.3953C639.337 75.8414 638.024 73.664 635.296 73.664V79.664ZM634.6 83.448C634.6 90.2861 633.111 95.4063 630.436 99.0943L635.292 102.618C638.931 97.6017 640.6 91.1166 640.6 83.448H634.6ZM630.413 99.1259C627.94 102.629 624.531 104.384 619.808 104.384V110.384C626.349 110.384 631.644 107.787 635.315 102.586L630.413 99.1259ZM619.808 104.384C615.938 104.384 612.97 103.534 610.716 102.037C608.476 100.549 606.697 98.2617 605.469 94.949L599.843 97.035C601.431 101.317 603.919 104.725 607.396 107.035C610.859 109.335 615.059 110.384 619.808 110.384V104.384ZM599.934 94.7306C598.504 97.8167 596.595 100.17 594.235 101.886L597.765 106.738C601.037 104.358 603.565 101.165 605.378 97.2534L599.934 94.7306ZM594.235 101.886C591.948 103.549 589.37 104.384 586.4 104.384V110.384C590.598 110.384 594.42 109.171 597.765 106.738L594.235 101.886ZM586.4 104.384C579.644 104.384 575.026 102.216 571.984 98.2344C568.825 94.1005 567 87.5453 567 78.072H561C561 88.1401 562.909 96.2408 567.216 101.878C571.641 107.667 578.222 110.384 586.4 110.384V104.384ZM567 78.072C567 68.5688 569.219 62.1904 573.053 58.2858L568.771 54.0822C563.389 59.5643 561 67.7779 561 78.072H567ZM573.033 58.3053C577.075 54.2635 582.452 52.144 589.472 52.144V46.144C581.132 46.144 574.136 48.7178 568.791 54.0627L573.033 58.3053ZM589.472 52.144C595.076 52.144 598.263 53.3454 599.895 54.9773L604.137 50.7347C600.82 47.4173 595.644 46.144 589.472 46.144V52.144ZM575.093 94.7256C575.73 96.7258 576.446 98.4744 577.267 99.9124C578.077 101.329 579.085 102.614 580.384 103.48L583.712 98.4878C583.475 98.3297 583.032 97.908 582.477 96.9356C581.933 95.9842 581.369 94.6609 580.811 92.9064L575.093 94.7256ZM580.484 103.544C582.649 104.867 585.301 105.392 588.192 105.392V99.392C585.963 99.392 584.519 98.9781 583.612 98.4242L580.484 103.544ZM588.192 105.392C591.996 105.392 595.512 103.079 598.691 99.7176L594.333 95.5944C591.539 98.548 589.508 99.392 588.192 99.392V105.392ZM598.69 99.7192C602.367 95.8374 604.12 90.8787 604.12 85.112H598.12C598.12 89.5852 596.801 92.9893 594.334 95.5928L598.69 99.7192ZM604.12 85.112V67.576H598.12V85.112H604.12ZM604.12 67.576C604.12 63.0164 602.895 59.0248 600.192 55.8892L595.648 59.8068C597.211 61.6206 598.12 64.1143 598.12 67.576H604.12ZM600.231 55.9353C597.748 52.9343 594.611 51.136 590.88 51.136V57.136C592.44 57.136 593.996 57.8123 595.609 59.7607L600.231 55.9353ZM590.88 51.136C588.162 51.136 585.754 51.4025 583.787 52.0579L585.685 57.75C586.79 57.3815 588.478 57.136 590.88 57.136V51.136ZM583.787 52.0579C581.588 52.7909 579.703 54.2554 578.089 56.1716L582.679 60.0364C583.796 58.71 584.812 58.0411 585.685 57.75L583.787 52.0579ZM578.173 56.0768C576.24 58.1847 575.033 61.2237 574.281 64.7791C573.518 68.3859 573.16 72.8367 573.16 78.072H579.16C579.16 73.0673 579.506 69.0701 580.151 66.0209C580.807 62.9202 581.712 61.0953 582.595 60.1312L578.173 56.0768ZM573.16 78.072C573.16 84.9357 573.762 90.5405 575.093 94.7256L580.811 92.9064C579.753 89.5822 579.16 84.6909 579.16 78.072H573.16ZM700.441 100.856L698.013 99.0943L698.001 99.1101L697.99 99.126L700.441 100.856ZM673.049 101.24L670.673 103.072L670.685 103.087L670.697 103.102L673.049 101.24ZM649.497 60.536L652.036 62.1344L652.036 62.1344L649.497 60.536ZM645.145 105.592L647.586 107.336L648.145 106.553V105.592H645.145ZM635.545 105.464L633.356 107.516L633.389 107.551L633.424 107.585L635.545 105.464ZM633.625 50.936L631.184 49.1923L630.625 49.9746V50.936H633.625ZM645.145 58.744H642.145V70.2411L647.763 60.2098L645.145 58.744ZM675.353 54.392L673.153 56.4313L673.166 56.4456L673.179 56.4596L675.353 54.392ZM682.649 98.68L685.198 97.0979L685.198 97.0979L682.649 98.68ZM697.497 96.76L700.054 98.329L700.062 98.3163L700.069 98.3035L697.497 96.76ZM700.953 77.432L697.994 76.9388L697.953 77.1837V77.432H700.953ZM702.873 79.664C702.428 79.664 702.021 79.4658 701.78 79.2291C701.611 79.0632 701.653 79.0076 701.76 79.3247C701.983 79.9793 702.177 81.2764 702.177 83.448H708.177C708.177 81.097 707.987 79.002 707.442 77.3953C706.914 75.8414 705.601 73.664 702.873 73.664V79.664ZM702.177 83.448C702.177 90.2861 700.688 95.4063 698.013 99.0943L702.869 102.618C706.508 97.6017 708.177 91.1166 708.177 83.448H702.177ZM697.99 99.126C695.555 102.576 692.009 104.384 686.873 104.384V110.384C693.684 110.384 699.183 107.84 702.892 102.586L697.99 99.126ZM686.873 104.384C681.668 104.384 677.989 102.646 675.401 99.3779L670.697 103.102C674.595 108.026 680.131 110.384 686.873 110.384V104.384ZM675.425 99.4085C672.819 96.0278 671.313 90.9679 671.313 83.832H665.313C665.313 91.7147 666.964 98.2602 670.673 103.072L675.425 99.4085ZM671.313 83.832V68.856H665.313V83.832H671.313ZM671.313 68.856C671.313 63.6235 670.669 59.2501 669.072 56.0814C668.251 54.4542 667.135 53.0568 665.647 52.0734C664.143 51.0785 662.433 50.624 660.633 50.624V56.624C661.393 56.624 661.924 56.8042 662.339 57.0785C662.771 57.3645 663.255 57.8711 663.714 58.7826C664.677 60.6913 665.313 63.9338 665.313 68.856H671.313ZM660.633 50.624C654.857 50.624 650.279 53.6637 646.958 58.9376L652.036 62.1344C654.518 58.1923 657.364 56.624 660.633 56.624V50.624ZM646.958 58.9376C643.579 64.304 642.145 72.7625 642.145 83.704H648.145C648.145 72.9708 649.612 65.984 652.036 62.1344L646.958 58.9376ZM642.145 83.704V105.592H648.145V83.704H642.145ZM642.704 103.848C642.638 103.94 642.294 104.384 640.665 104.384V110.384C643.302 110.384 645.945 109.633 647.586 107.336L642.704 103.848ZM640.665 104.384C639.174 104.384 638.284 103.96 637.666 103.343L633.424 107.585C635.366 109.528 637.889 110.384 640.665 110.384V104.384ZM637.734 103.412C637.141 102.78 636.625 101.658 636.625 99.576H630.625C630.625 102.614 631.389 105.417 633.356 107.516L637.734 103.412ZM636.625 99.576V50.936H630.625V99.576H636.625ZM636.066 52.6797C636.075 52.6668 636.455 52.144 638.489 52.144V46.144C635.745 46.144 632.881 46.8158 631.184 49.1923L636.066 52.6797ZM638.489 52.144C639.883 52.144 640.552 52.5842 641.016 53.2533C641.618 54.1216 642.145 55.798 642.145 58.744H648.145C648.145 55.2899 647.563 52.1664 645.946 49.8347C644.192 47.3038 641.532 46.144 638.489 46.144V52.144ZM647.763 60.2098C650.779 54.8238 655.411 52.144 662.169 52.144V46.144C653.396 46.144 646.679 49.8642 642.527 57.2782L647.763 60.2098ZM662.169 52.144C667.029 52.144 670.572 53.6463 673.153 56.4313L677.553 52.3527C673.649 48.1403 668.402 46.144 662.169 46.144V52.144ZM673.179 56.4596C675.81 59.2249 677.345 63.4124 677.345 69.496H683.345C683.345 62.4383 681.552 56.5564 677.527 52.3244L673.179 56.4596ZM677.345 69.496V87.672H683.345V69.496H677.345ZM677.345 87.672C677.345 92.7611 678.132 97.0918 680.1 100.262L685.198 97.0979C684.094 95.3189 683.345 92.3109 683.345 87.672H677.345ZM680.1 100.262C682.2 103.645 685.441 105.392 689.433 105.392V99.392C687.452 99.392 686.17 98.6639 685.198 97.0979L680.1 100.262ZM689.433 105.392C693.963 105.392 697.464 102.55 700.054 98.329L694.94 95.191C692.922 98.4789 691.047 99.392 689.433 99.392V105.392ZM700.069 98.3035C702.819 93.7216 703.953 86.5694 703.953 77.432H697.953C697.953 86.3853 696.783 92.1184 694.925 95.2165L700.069 98.3035ZM703.912 77.9252C703.834 78.396 703.613 78.8266 703.302 79.1559C703.017 79.4572 702.737 79.591 702.611 79.6414C702.408 79.7228 702.419 79.664 702.873 79.664V73.664C702.132 73.664 701.226 73.7332 700.383 74.0706C699.45 74.4437 698.264 75.3162 697.994 76.9388L703.912 77.9252ZM703.17 32.248L705.291 34.3693L705.326 34.3351L705.359 34.2998L703.17 32.248ZM712.77 31.992H715.77V30.7494L714.891 29.8707L712.77 31.992ZM712.77 50.936H709.77V53.936H712.77V50.936ZM733.762 51.96L731.362 53.76L731.43 53.8504L731.504 53.9355L733.762 51.96ZM734.658 55.416V58.416H737.658V55.416H734.658ZM712.77 55.416V52.416H709.77V55.416H712.77ZM716.738 98.552L714.652 100.708L714.669 100.724L714.686 100.741L716.738 98.552ZM737.73 96.504L740.268 98.1039L740.268 98.1039L737.73 96.504ZM741.442 77.432L738.596 76.4833L738.442 76.9452V77.432H741.442ZM740.418 100.6L738.045 98.7644L738.034 98.7785L738.023 98.7928L740.418 100.6ZM707.522 101.752L709.526 99.5199L707.522 101.752ZM704.25 38.008C704.25 35.9104 704.772 34.8883 705.291 34.3693L701.049 30.1267C699.008 32.1677 698.25 34.9856 698.25 38.008H704.25ZM705.359 34.2998C706.041 33.5718 706.855 33.2 708.034 33.2V27.2C705.288 27.2 702.859 28.1935 700.981 30.1962L705.359 34.2998ZM708.034 33.2C709.34 33.2 710.108 33.5725 710.649 34.1133L714.891 29.8707C713.043 28.0221 710.653 27.2 708.034 27.2V33.2ZM709.77 31.992V50.936H715.77V31.992H709.77ZM712.77 53.936H730.306V47.936H712.77V53.936ZM730.306 53.936C731.04 53.936 731.462 54.0093 731.662 54.0684C731.865 54.1286 731.622 54.1072 731.362 53.76L736.162 50.16C735.39 49.1301 734.315 48.5967 733.366 48.3156C732.414 48.0334 731.364 47.936 730.306 47.936V53.936ZM731.504 53.9355C731.415 53.833 731.463 53.8295 731.53 54.0889C731.597 54.3485 731.658 54.7744 731.658 55.416H737.658C737.658 53.5825 737.351 51.5056 736.02 49.9845L731.504 53.9355ZM734.658 52.416H712.77V58.416H734.658V52.416ZM709.77 55.416V87.672H715.77V55.416H709.77ZM709.77 87.672C709.77 92.9424 711.272 97.4374 714.652 100.708L718.824 96.3962C716.913 94.5466 715.77 91.7883 715.77 87.672H709.77ZM714.686 100.741C717.93 103.782 721.765 105.392 726.082 105.392V99.392C723.402 99.392 721.007 98.442 718.79 96.3634L714.686 100.741ZM726.082 105.392C732.233 105.392 737.159 103.036 740.268 98.1039L735.192 94.9041C733.352 97.823 730.513 99.392 726.082 99.392V105.392ZM740.268 98.1039C743.211 93.4347 744.442 86.3603 744.442 77.432H738.442C738.442 86.0823 737.198 91.7226 735.192 94.9041L740.268 98.1039ZM744.288 78.3807C744.169 78.737 743.965 79.0429 743.721 79.2739C743.491 79.4918 743.276 79.5966 743.164 79.6414C742.98 79.7152 742.985 79.664 743.362 79.664V73.664C742.63 73.664 741.76 73.7408 740.936 74.0706C740.041 74.4284 739.034 75.1687 738.596 76.4833L744.288 78.3807ZM743.362 79.664C742.917 79.664 742.51 79.4658 742.269 79.229C742.1 79.0632 742.142 79.0076 742.249 79.3247C742.472 79.9793 742.666 81.2764 742.666 83.448H748.666C748.666 81.097 748.476 79.002 747.931 77.3953C747.403 75.8414 746.09 73.664 743.362 73.664V79.664ZM742.666 83.448C742.666 89.8385 741.058 94.8701 738.045 98.7644L742.791 102.436C746.776 97.2846 748.666 90.8815 748.666 83.448H742.666ZM738.023 98.7928C735.325 102.369 731.048 104.384 724.546 104.384V110.384C732.38 110.384 738.685 107.876 742.813 102.407L738.023 98.7928ZM724.546 104.384C717.907 104.384 713.018 102.656 709.526 99.5199L705.518 103.984C710.388 108.358 716.849 110.384 724.546 110.384V104.384ZM709.526 99.5199C706.166 96.5019 704.25 91.8447 704.25 84.984H698.25C698.25 92.9713 700.516 99.4927 705.518 103.984L709.526 99.5199ZM704.25 84.984V38.008H698.25V84.984H704.25ZM779.766 52.856L777.645 54.9773L780.723 58.0555L782.504 54.0832L779.766 52.856ZM790.518 50.936H793.518V49.6934L792.639 48.8147L790.518 50.936ZM792.822 98.68L795.371 97.0979L795.371 97.0979L792.822 98.68ZM811.126 77.432L808.167 76.9388L808.126 77.1837V77.432H811.126ZM810.614 100.856L808.186 99.0943L808.174 99.1101L808.163 99.1259L810.614 100.856ZM780.406 95.992L783.219 94.949L780.714 88.1928L777.684 94.7306L780.406 95.992ZM773.75 104.312L771.985 101.886L771.985 101.886L773.75 104.312ZM748.662 56.184L746.541 54.0627L746.531 54.0724L746.521 54.0822L748.662 56.184ZM755.702 93.816L758.561 92.9064L758.561 92.9064L755.702 93.816ZM759.798 100.984L758.134 103.48L758.183 103.513L758.234 103.544L759.798 100.984ZM774.262 97.656L772.084 95.5928L772.083 95.5944L774.262 97.656ZM775.67 57.848L773.359 59.7607L773.378 59.784L773.398 59.8068L775.67 57.848ZM762.486 54.904L763.435 57.75L763.435 57.75L762.486 54.904ZM758.134 58.104L760.345 60.1312L760.388 60.0847L760.429 60.0364L758.134 58.104ZM782.504 54.0832C782.896 53.2075 783.308 52.7576 783.642 52.5212C783.953 52.3017 784.365 52.144 785.014 52.144V46.144C783.273 46.144 781.617 46.605 780.178 47.6228C778.762 48.6237 777.745 50.0299 777.028 51.6288L782.504 54.0832ZM785.014 52.144C787.062 52.144 787.981 52.6412 788.397 53.0573L792.639 48.8147C790.666 46.8415 787.915 46.144 785.014 46.144V52.144ZM787.518 50.936V87.672H793.518V50.936H787.518ZM787.518 87.672C787.518 92.7611 788.305 97.0918 790.273 100.262L795.371 97.0979C794.267 95.3189 793.518 92.3109 793.518 87.672H787.518ZM790.273 100.262C792.29 103.512 795.292 105.392 799.094 105.392V99.392C797.606 99.392 796.426 98.7974 795.371 97.0979L790.273 100.262ZM799.094 105.392C801.647 105.392 804.01 104.72 806.064 103.3C808.094 101.896 809.65 99.8817 810.82 97.4547C813.121 92.6817 814.126 85.8972 814.126 77.432H808.126C808.126 85.6068 807.125 91.3023 805.416 94.8493C804.58 96.5823 803.63 97.6879 802.652 98.3645C801.698 99.0242 800.551 99.392 799.094 99.392V105.392ZM814.085 77.9252C814.007 78.396 813.786 78.8266 813.475 79.1559C813.19 79.4572 812.91 79.591 812.784 79.6414C812.581 79.7228 812.592 79.664 813.046 79.664V73.664C812.305 73.664 811.399 73.7332 810.556 74.0706C809.623 74.4437 808.437 75.3162 808.167 76.9388L814.085 77.9252ZM813.046 79.664C812.601 79.664 812.194 79.4658 811.953 79.2291C811.784 79.0632 811.826 79.0076 811.933 79.3247C812.156 79.9793 812.35 81.2764 812.35 83.448H818.35C818.35 81.097 818.16 79.002 817.615 77.3953C817.087 75.8414 815.774 73.664 813.046 73.664V79.664ZM812.35 83.448C812.35 90.2861 810.861 95.4063 808.186 99.0943L813.042 102.618C816.681 97.6017 818.35 91.1166 818.35 83.448H812.35ZM808.163 99.1259C805.69 102.629 802.281 104.384 797.558 104.384V110.384C804.099 110.384 809.394 107.787 813.065 102.586L808.163 99.1259ZM797.558 104.384C793.688 104.384 790.72 103.534 788.466 102.037C786.226 100.549 784.447 98.2617 783.219 94.949L777.593 97.035C779.181 101.317 781.669 104.725 785.146 107.035C788.609 109.335 792.809 110.384 797.558 110.384V104.384ZM777.684 94.7306C776.254 97.8167 774.345 100.17 771.985 101.886L775.515 106.738C778.787 104.358 781.315 101.165 783.128 97.2534L777.684 94.7306ZM771.985 101.886C769.698 103.549 767.12 104.384 764.15 104.384V110.384C768.348 110.384 772.17 109.171 775.515 106.738L771.985 101.886ZM764.15 104.384C757.394 104.384 752.776 102.216 749.734 98.2344C746.575 94.1005 744.75 87.5453 744.75 78.072H738.75C738.75 88.1401 740.659 96.2408 744.966 101.878C749.391 107.667 755.972 110.384 764.15 110.384V104.384ZM744.75 78.072C744.75 68.5688 746.969 62.1904 750.803 58.2858L746.521 54.0822C741.139 59.5643 738.75 67.7779 738.75 78.072H744.75ZM750.783 58.3053C754.825 54.2635 760.202 52.144 767.222 52.144V46.144C758.882 46.144 751.886 48.7178 746.541 54.0627L750.783 58.3053ZM767.222 52.144C772.826 52.144 776.013 53.3454 777.645 54.9773L781.887 50.7347C778.57 47.4173 773.394 46.144 767.222 46.144V52.144ZM752.843 94.7256C753.48 96.7258 754.196 98.4744 755.017 99.9124C755.827 101.329 756.835 102.614 758.134 103.48L761.462 98.4878C761.225 98.3297 760.782 97.908 760.227 96.9356C759.683 95.9842 759.119 94.6609 758.561 92.9064L752.843 94.7256ZM758.234 103.544C760.399 104.867 763.051 105.392 765.942 105.392V99.392C763.713 99.392 762.269 98.9781 761.362 98.4242L758.234 103.544ZM765.942 105.392C769.746 105.392 773.262 103.079 776.441 99.7176L772.083 95.5944C769.289 98.548 767.258 99.392 765.942 99.392V105.392ZM776.44 99.7192C780.117 95.8374 781.87 90.8787 781.87 85.112H775.87C775.87 89.5852 774.551 92.9893 772.084 95.5928L776.44 99.7192ZM781.87 85.112V67.576H775.87V85.112H781.87ZM781.87 67.576C781.87 63.0164 780.645 59.0248 777.942 55.8892L773.398 59.8068C774.961 61.6206 775.87 64.1143 775.87 67.576H781.87ZM777.981 55.9353C775.498 52.9343 772.361 51.136 768.63 51.136V57.136C770.19 57.136 771.746 57.8123 773.359 59.7607L777.981 55.9353ZM768.63 51.136C765.912 51.136 763.504 51.4025 761.537 52.0579L763.435 57.75C764.54 57.3815 766.228 57.136 768.63 57.136V51.136ZM761.537 52.0579C759.338 52.7909 757.453 54.2554 755.839 56.1716L760.429 60.0364C761.546 58.71 762.562 58.0411 763.435 57.75L761.537 52.0579ZM755.923 56.0768C753.99 58.1847 752.783 61.2237 752.031 64.7791C751.268 68.3859 750.91 72.8367 750.91 78.072H756.91C756.91 73.0673 757.256 69.0701 757.901 66.0209C758.557 62.9202 759.462 61.0953 760.345 60.1312L755.923 56.0768ZM750.91 78.072C750.91 84.9357 751.512 90.5405 752.843 94.7256L758.561 92.9064C757.503 89.5822 756.91 84.6909 756.91 78.072H750.91ZM823.023 105.592L825.464 107.336L826.023 106.553V105.592H823.023ZM813.423 105.464L811.234 107.516L811.267 107.551L811.302 107.585L813.423 105.464ZM811.503 50.936L809.062 49.1923L808.503 49.9746V50.936H811.503ZM821.103 51.192L818.914 53.2438L818.947 53.2791L818.982 53.3133L821.103 51.192ZM823.023 66.68H820.023L825.805 67.8019L823.023 66.68ZM852.463 55.16L850.18 57.1068L850.195 57.1237L850.21 57.1403L852.463 55.16ZM846.191 70.776L843.406 69.6618L842.819 71.127L843.695 72.4401L846.191 70.776ZM844.527 58.744L842.214 60.6546L842.214 60.6546L844.527 58.744ZM827.759 66.808L825.015 65.5955L825.012 65.6031L825.008 65.6106L827.759 66.808ZM820.023 85.24V105.592H826.023V85.24H820.023ZM820.582 103.848C820.516 103.94 820.172 104.384 818.543 104.384V110.384C821.18 110.384 823.823 109.633 825.464 107.336L820.582 103.848ZM818.543 104.384C817.052 104.384 816.162 103.96 815.544 103.343L811.302 107.585C813.244 109.528 815.767 110.384 818.543 110.384V104.384ZM815.612 103.412C815.019 102.78 814.503 101.658 814.503 99.576H808.503C808.503 102.614 809.267 105.417 811.234 107.516L815.612 103.412ZM814.503 99.576V50.936H808.503V99.576H814.503ZM813.944 52.6797C814.01 52.5879 814.354 52.144 815.983 52.144V46.144C813.346 46.144 810.703 46.8948 809.062 49.1923L813.944 52.6797ZM815.983 52.144C817.415 52.144 818.283 52.5705 818.914 53.2438L823.292 49.1402C821.363 47.0828 818.818 46.144 815.983 46.144V52.144ZM818.982 53.3133C819.501 53.8323 820.023 54.8544 820.023 56.952H826.023C826.023 53.9296 825.265 51.1117 823.224 49.0707L818.982 53.3133ZM820.023 56.952V66.68H826.023V56.952H820.023ZM825.805 67.8019C829.889 57.6753 834.998 53.808 840.687 53.808V47.808C831.357 47.808 824.691 54.522 820.241 65.5581L825.805 67.8019ZM840.687 53.808C845.559 53.808 848.48 55.1137 850.18 57.1068L854.746 53.2132C851.496 49.4037 846.567 47.808 840.687 47.808V53.808ZM850.21 57.1403C852.179 59.3813 853.175 62.0381 853.175 65.272H859.175C859.175 60.6553 857.696 56.5707 854.716 53.1797L850.21 57.1403ZM853.175 65.272C853.175 66.7626 852.751 67.6529 852.134 68.2707L856.376 72.5133C858.319 70.5711 859.175 68.0481 859.175 65.272H853.175ZM852.134 68.2707C851.131 69.2734 850.613 69.312 850.543 69.312V75.312C852.862 75.312 854.819 74.0706 856.376 72.5133L852.134 68.2707ZM850.543 69.312C849.637 69.312 849.086 69.2037 848.789 69.099C848.521 69.0042 848.587 68.9612 848.687 69.1119L843.695 72.4401C845.261 74.7892 848.107 75.312 850.543 75.312V69.312ZM848.976 71.8902C849.698 70.0868 849.959 67.8047 849.959 65.272H843.959C843.959 67.518 843.708 68.9052 843.406 69.6618L848.976 71.8902ZM849.959 65.272C849.959 62.1376 848.874 59.2957 846.84 56.8334L842.214 60.6546C843.423 62.1176 843.959 63.6277 843.959 65.272H849.959ZM846.84 56.8334C844.716 54.2628 841.939 52.8 838.639 52.8V58.8C839.947 58.8 841.095 59.2999 842.214 60.6546L846.84 56.8334ZM838.639 52.8C835.62 52.8 832.985 54.2094 830.777 56.4431C828.606 58.6399 826.711 61.7573 825.015 65.5955L830.503 68.0205C832.05 64.52 833.589 62.1334 835.045 60.6609C836.464 59.2253 837.648 58.8 838.639 58.8V52.8ZM825.008 65.6106C821.77 73.0494 820.023 79.6255 820.023 85.24H826.023C826.023 80.7852 827.433 75.0733 830.51 68.0054L825.008 65.6106ZM899.141 52.856L897.02 54.9773L900.098 58.0555L901.879 54.0832L899.141 52.856ZM909.893 50.936H912.893V49.6934L912.014 48.8147L909.893 50.936ZM912.197 98.68L914.746 97.0979L914.746 97.0979L912.197 98.68ZM930.501 77.432L927.542 76.9388L927.501 77.1837V77.432H930.501ZM929.989 100.856L927.561 99.0943L927.549 99.1101L927.538 99.1259L929.989 100.856ZM899.781 95.992L902.594 94.949L900.089 88.1928L897.059 94.7306L899.781 95.992ZM893.125 104.312L891.36 101.886L891.36 101.886L893.125 104.312ZM868.037 56.184L865.916 54.0627L865.906 54.0724L865.896 54.0822L868.037 56.184ZM875.077 93.816L877.936 92.9064L877.936 92.9064L875.077 93.816ZM879.173 100.984L877.509 103.48L877.558 103.513L877.609 103.544L879.173 100.984ZM893.637 97.656L891.459 95.5928L891.458 95.5944L893.637 97.656ZM895.045 57.848L892.734 59.7607L892.753 59.784L892.773 59.8068L895.045 57.848ZM881.861 54.904L882.81 57.75L882.81 57.75L881.861 54.904ZM877.509 58.104L879.72 60.1312L879.763 60.0847L879.804 60.0364L877.509 58.104ZM901.879 54.0832C902.271 53.2075 902.683 52.7576 903.017 52.5212C903.328 52.3017 903.74 52.144 904.389 52.144V46.144C902.648 46.144 900.992 46.605 899.553 47.6228C898.137 48.6237 897.12 50.0299 896.403 51.6288L901.879 54.0832ZM904.389 52.144C906.437 52.144 907.356 52.6412 907.772 53.0573L912.014 48.8147C910.041 46.8415 907.29 46.144 904.389 46.144V52.144ZM906.893 50.936V87.672H912.893V50.936H906.893ZM906.893 87.672C906.893 92.7611 907.68 97.0918 909.648 100.262L914.746 97.0979C913.642 95.3189 912.893 92.3109 912.893 87.672H906.893ZM909.648 100.262C911.665 103.512 914.667 105.392 918.469 105.392V99.392C916.981 99.392 915.801 98.7974 914.746 97.0979L909.648 100.262ZM918.469 105.392C921.022 105.392 923.385 104.72 925.439 103.3C927.469 101.896 929.025 99.8817 930.195 97.4547C932.496 92.6817 933.501 85.8972 933.501 77.432H927.501C927.501 85.6068 926.5 91.3023 924.791 94.8493C923.955 96.5823 923.005 97.6879 922.027 98.3645C921.073 99.0242 919.926 99.392 918.469 99.392V105.392ZM933.46 77.9252C933.382 78.396 933.161 78.8266 932.85 79.1559C932.565 79.4572 932.285 79.591 932.159 79.6414C931.956 79.7228 931.967 79.664 932.421 79.664V73.664C931.68 73.664 930.774 73.7332 929.931 74.0706C928.998 74.4437 927.812 75.3162 927.542 76.9388L933.46 77.9252ZM932.421 79.664C931.976 79.664 931.569 79.4658 931.328 79.2291C931.159 79.0632 931.201 79.0076 931.308 79.3247C931.531 79.9793 931.725 81.2764 931.725 83.448H937.725C937.725 81.097 937.535 79.002 936.99 77.3953C936.462 75.8414 935.149 73.664 932.421 73.664V79.664ZM931.725 83.448C931.725 90.2861 930.236 95.4063 927.561 99.0943L932.417 102.618C936.056 97.6017 937.725 91.1166 937.725 83.448H931.725ZM927.538 99.1259C925.065 102.629 921.656 104.384 916.933 104.384V110.384C923.474 110.384 928.769 107.787 932.44 102.586L927.538 99.1259ZM916.933 104.384C913.063 104.384 910.095 103.534 907.841 102.037C905.601 100.549 903.822 98.2617 902.594 94.949L896.968 97.035C898.556 101.317 901.044 104.725 904.521 107.035C907.984 109.335 912.184 110.384 916.933 110.384V104.384ZM897.059 94.7306C895.629 97.8167 893.72 100.17 891.36 101.886L894.89 106.738C898.162 104.358 900.69 101.165 902.503 97.2534L897.059 94.7306ZM891.36 101.886C889.073 103.549 886.495 104.384 883.525 104.384V110.384C887.723 110.384 891.545 109.171 894.89 106.738L891.36 101.886ZM883.525 104.384C876.769 104.384 872.151 102.216 869.109 98.2344C865.95 94.1005 864.125 87.5453 864.125 78.072H858.125C858.125 88.1401 860.034 96.2408 864.341 101.878C868.766 107.667 875.347 110.384 883.525 110.384V104.384ZM864.125 78.072C864.125 68.5688 866.344 62.1904 870.178 58.2858L865.896 54.0822C860.514 59.5643 858.125 67.7779 858.125 78.072H864.125ZM870.158 58.3053C874.2 54.2635 879.577 52.144 886.597 52.144V46.144C878.257 46.144 871.261 48.7178 865.916 54.0627L870.158 58.3053ZM886.597 52.144C892.201 52.144 895.388 53.3454 897.02 54.9773L901.262 50.7347C897.945 47.4173 892.769 46.144 886.597 46.144V52.144ZM872.218 94.7256C872.855 96.7258 873.571 98.4744 874.392 99.9124C875.202 101.329 876.21 102.614 877.509 103.48L880.837 98.4878C880.6 98.3297 880.157 97.908 879.602 96.9356C879.058 95.9842 878.494 94.6609 877.936 92.9064L872.218 94.7256ZM877.609 103.544C879.774 104.867 882.426 105.392 885.317 105.392V99.392C883.088 99.392 881.644 98.9781 880.737 98.4242L877.609 103.544ZM885.317 105.392C889.121 105.392 892.637 103.079 895.816 99.7176L891.458 95.5944C888.664 98.548 886.633 99.392 885.317 99.392V105.392ZM895.815 99.7192C899.492 95.8374 901.245 90.8787 901.245 85.112H895.245C895.245 89.5852 893.926 92.9893 891.459 95.5928L895.815 99.7192ZM901.245 85.112V67.576H895.245V85.112H901.245ZM901.245 67.576C901.245 63.0164 900.02 59.0248 897.317 55.8892L892.773 59.8068C894.336 61.6206 895.245 64.1143 895.245 67.576H901.245ZM897.356 55.9353C894.873 52.9343 891.736 51.136 888.005 51.136V57.136C889.565 57.136 891.121 57.8123 892.734 59.7607L897.356 55.9353ZM888.005 51.136C885.287 51.136 882.879 51.4025 880.912 52.0579L882.81 57.75C883.915 57.3815 885.603 57.136 888.005 57.136V51.136ZM880.912 52.0579C878.713 52.7909 876.828 54.2554 875.214 56.1716L879.804 60.0364C880.921 58.71 881.937 58.0411 882.81 57.75L880.912 52.0579ZM875.298 56.0768C873.365 58.1847 872.158 61.2237 871.406 64.7791C870.643 68.3859 870.285 72.8367 870.285 78.072H876.285C876.285 73.0673 876.631 69.0701 877.276 66.0209C877.932 62.9202 878.837 61.0953 879.72 60.1312L875.298 56.0768ZM870.285 78.072C870.285 84.9357 870.887 90.5405 872.218 94.7256L877.936 92.9064C876.878 89.5822 876.285 84.6909 876.285 78.072H870.285Z" fill="black"/>
</svg>
