<svg width="935" height="156" viewBox="0 0 935 156" fill="none" xmlns="http://www.w3.org/2000/svg">
<path d="M111.808 78.84C112.661 79.5227 113.088 80.4187 113.088 81.528C113.088 82.6373 112.704 83.576 111.936 84.344H93.76L101.056 108.664C101.227 109.261 101.312 110.029 101.312 110.968C101.312 111.907 100.715 113.059 99.52 114.424C98.3253 115.789 97.088 116.472 95.808 116.472C93.4187 116.472 91.5413 115.875 90.176 114.68L81.088 84.344H48.448L42.048 101.752C39.8293 107.64 36.6293 112.717 32.448 116.984C28.2667 121.251 22.848 123.384 16.192 123.384C11.1573 123.384 7.232 122.061 4.416 119.416C1.51467 116.771 0.0639997 112.931 0.0639997 107.896C0.0639997 102.861 1.30133 98.3387 3.776 94.328C6.16533 90.232 9.36533 87.032 13.376 84.728C21.3973 80.12 30.3573 77.816 40.256 77.816L58.944 25.08C59.7973 22.6053 60.6933 20.7707 61.632 19.576C58.9867 10.7013 57.664 5.83733 57.664 4.98399C57.664 4.04533 58.2613 3.02133 59.456 1.91199C60.736 0.717328 62.016 0.119995 63.296 0.119995C65.7707 0.119995 67.6907 0.717328 69.056 1.91199L91.712 77.816L108.48 77.688C109.931 77.688 111.04 78.072 111.808 78.84ZM16.192 118.008C22.592 118.008 28.1387 111.565 32.832 98.68L37.824 84.472C28.4373 84.472 20.9707 86.6907 15.424 91.128C9.96267 95.5653 7.232 101.411 7.232 108.664C7.232 111.651 8.04267 113.955 9.664 115.576C11.3707 117.197 13.5467 118.008 16.192 118.008ZM66.496 29.432L50.88 77.816H79.04L66.496 29.432ZM167.887 147.832C167.887 150.392 167.247 152.312 165.967 153.592C164.687 154.957 163.066 155.64 161.103 155.64C159.14 155.64 157.562 155.043 156.367 153.848V98.552C152.783 104.44 147.834 107.384 141.519 107.384C126.586 107.384 119.119 97.6133 119.119 78.072C119.119 68.1733 121.423 60.8773 126.031 56.184C130.724 51.4907 136.911 49.144 144.591 49.144C150.479 49.144 154.66 50.3813 157.135 52.856C158.244 50.3813 159.994 49.144 162.383 49.144C164.858 49.144 166.692 49.7413 167.887 50.936V147.832ZM133.071 93.816C134.266 97.5707 135.631 99.96 137.167 100.984C138.703 101.923 140.879 102.392 143.695 102.392C146.511 102.392 149.327 100.515 152.143 96.76C154.959 93.0053 156.367 87.032 156.367 78.84V71.16C156.367 65.1013 155.343 60.7493 153.295 58.104C151.247 55.4587 148.858 54.136 146.127 54.136C143.482 54.136 141.391 54.392 139.855 54.904C138.319 55.416 136.868 56.4827 135.503 58.104C132.687 61.176 131.279 67.832 131.279 78.072C131.279 84.8133 131.876 90.0613 133.071 93.816ZM218.432 56.952C218.432 54.392 219.157 52.472 220.608 51.192C222.059 49.8267 223.808 49.144 225.856 49.144C227.904 49.144 229.525 49.7413 230.72 50.936V87.672C230.72 92.536 231.488 96.2053 233.024 98.68C234.56 101.155 236.651 102.392 239.296 102.392C241.941 102.392 244.501 100.856 246.976 97.784C249.877 94.1147 251.328 87.3307 251.328 77.432C251.413 76.92 252.053 76.664 253.248 76.664C254.784 76.664 255.552 78.9253 255.552 83.448C255.552 90.7013 253.973 96.504 250.816 100.856C247.744 105.208 243.392 107.384 237.76 107.384C228.8 107.384 222.912 103.331 220.096 95.224C216.768 103.331 210.667 107.384 201.792 107.384C196.501 107.384 192.235 105.805 188.992 102.648C185.749 99.4053 184.128 94.7973 184.128 88.824V56.952C184.128 54.392 184.768 52.472 186.048 51.192C187.328 49.8267 188.949 49.144 190.912 49.144C192.875 49.144 194.453 49.7413 195.648 50.936V87.672C195.648 97.8267 198.208 102.904 203.328 102.904C207.168 102.904 210.624 100.6 213.696 95.992C216.853 91.384 218.432 84.8987 218.432 76.536V56.952ZM289.516 52.856C290.625 50.3813 292.375 49.144 294.764 49.144C297.239 49.144 299.073 49.7413 300.268 50.936V87.672C300.268 92.536 301.036 96.2053 302.572 98.68C304.108 101.155 306.199 102.392 308.844 102.392C316.865 102.392 320.876 94.072 320.876 77.432C320.961 76.92 321.601 76.664 322.796 76.664C324.332 76.664 325.1 78.9253 325.1 83.448C325.1 90.7013 323.521 96.504 320.364 100.856C317.292 105.208 312.94 107.384 307.308 107.384C298.689 107.384 292.972 103.587 290.156 95.992C288.535 99.4907 286.316 102.264 283.5 104.312C280.684 106.36 277.484 107.384 273.9 107.384C258.967 107.384 251.5 97.6133 251.5 78.072C251.5 68.1733 253.804 60.8773 258.412 56.184C263.105 51.4907 269.292 49.144 276.972 49.144C282.86 49.144 287.041 50.3813 289.516 52.856ZM265.452 93.816C266.647 97.5707 268.012 99.96 269.548 100.984C271.084 101.923 273.132 102.392 275.692 102.392C278.252 102.392 281.025 100.813 284.012 97.656C287.084 94.4133 288.62 90.232 288.62 85.112V67.576C288.62 63.5653 287.553 60.3227 285.42 57.848C283.372 55.3733 281.025 54.136 278.38 54.136C275.82 54.136 273.772 54.392 272.236 54.904C270.7 55.416 269.249 56.4827 267.884 58.104C265.068 61.176 263.66 67.832 263.66 78.072C263.66 84.8133 264.257 90.0613 265.452 93.816ZM334.821 39.8C334.821 41.336 335.162 42.872 335.845 44.408C335.077 45.432 333.797 45.944 332.005 45.944C330.213 45.944 328.677 45.304 327.397 44.024C326.202 42.744 325.605 40.6533 325.605 37.752C325.605 31.0107 327.653 25.5493 331.749 21.368C335.845 17.1013 341.306 14.968 348.133 14.968C359.397 14.968 366.096 21.112 368.229 33.4C370.106 27.6827 373.178 23.1173 377.445 19.704C381.712 16.2907 386.704 14.584 392.421 14.584C401.296 14.6693 407.952 18.04 412.389 24.696C416.826 31.2667 419.045 40.0987 419.045 51.192V87.416C419.045 92.3653 420.026 96.3333 421.989 99.32C424.037 102.307 426.682 103.8 429.925 103.8C437.946 103.8 441.957 95.7787 441.957 79.736C442.042 79.224 442.469 78.968 443.237 78.968C444.09 78.968 444.73 79.096 445.157 79.352C446.437 80.2907 447.077 82.3813 447.077 85.624C447.077 92.792 445.37 98.5947 441.957 103.032C438.544 107.469 434.021 109.688 428.389 109.688C420.538 109.688 415.034 107.085 411.877 101.88C408.805 96.5893 407.269 89.208 407.269 79.736V51.192C407.269 31.0533 402.32 20.984 392.421 20.984C388.581 20.984 385.21 21.9653 382.309 23.928C379.493 25.8053 377.274 28.152 375.653 30.968C374.032 33.784 372.752 37.1547 371.813 41.08C370.192 47.3947 369.381 54.6053 369.381 62.712V79.096C369.381 89.6773 367.674 98.0827 364.261 104.312C360.933 110.456 355.856 113.528 349.029 113.528C342.288 113.528 337.21 111.949 333.797 108.792C330.384 105.72 328.677 101.624 328.677 96.504C328.677 89.9333 330.81 86.648 335.077 86.648C336.101 86.648 336.997 86.904 337.765 87.416C338.533 87.8427 339.173 88.568 339.685 89.592C339.002 91.384 338.661 94.072 338.661 97.656C338.661 101.155 339.557 103.8 341.349 105.592C343.226 107.384 345.573 108.28 348.389 108.28C354.448 108.28 357.477 101.112 357.477 86.776V37.24C357.477 32.2907 356.453 28.3227 354.405 25.336C352.442 22.3493 349.712 20.856 346.213 20.856C342.8 20.856 340.026 22.264 337.893 25.08C335.845 27.8107 334.821 32.7173 334.821 39.8ZM476.182 56.952C476.182 54.392 476.907 52.472 478.358 51.192C479.809 49.8267 481.558 49.144 483.606 49.144C485.654 49.144 487.275 49.7413 488.47 50.936V87.672C488.47 92.536 489.238 96.2053 490.774 98.68C492.31 101.155 494.401 102.392 497.046 102.392C499.691 102.392 502.251 100.856 504.726 97.784C507.627 94.1147 509.078 87.3307 509.078 77.432C509.163 76.92 509.803 76.664 510.998 76.664C512.534 76.664 513.302 78.9253 513.302 83.448C513.302 90.7013 511.723 96.504 508.566 100.856C505.494 105.208 501.142 107.384 495.51 107.384C486.55 107.384 480.662 103.331 477.846 95.224C474.518 103.331 468.417 107.384 459.542 107.384C454.251 107.384 449.985 105.805 446.742 102.648C443.499 99.4053 441.878 94.7973 441.878 88.824V56.952C441.878 54.392 442.518 52.472 443.798 51.192C445.078 49.8267 446.699 49.144 448.662 49.144C450.625 49.144 452.203 49.7413 453.398 50.936V87.672C453.398 97.8267 455.958 102.904 461.078 102.904C464.918 102.904 468.374 100.6 471.446 95.992C474.603 91.384 476.182 84.8987 476.182 76.536V56.952ZM532.93 81.272C529.517 80.0773 526.103 78.84 522.69 77.56C519.362 76.1947 516.546 74.2747 514.242 71.8C511.938 69.3253 510.786 66.168 510.786 62.328C510.786 58.4027 512.578 55.2453 516.162 52.856C519.746 50.3813 524.951 49.144 531.778 49.144C538.69 49.144 544.066 50.3387 547.906 52.728C551.831 55.1173 553.794 57.8907 553.794 61.048C553.794 62.584 553.197 63.8213 552.002 64.76C550.893 65.6987 549.783 66.168 548.674 66.168C546.541 66.168 545.133 65.656 544.45 64.632C544.962 64.0347 545.218 62.8827 545.218 61.176C545.218 59.384 543.895 57.7627 541.25 56.312C538.605 54.8613 535.661 54.136 532.418 54.136C529.175 54.136 526.487 54.7333 524.354 55.928C522.221 57.1227 521.154 58.9573 521.154 61.432C521.154 63.8213 522.349 65.912 524.738 67.704C527.213 69.496 530.157 70.9893 533.57 72.184C537.069 73.3787 540.525 74.6587 543.938 76.024C547.437 77.3893 550.381 79.352 552.77 81.912C555.245 84.3867 556.482 87.4587 556.482 91.128C556.482 96.5893 554.093 100.685 549.314 103.416C544.621 106.061 538.391 107.384 530.626 107.384C522.946 107.384 516.674 105.165 511.81 100.728C507.031 96.2053 504.642 90.616 504.642 83.96C504.642 81.5707 505.111 79.6933 506.05 78.328C506.989 76.9627 508.055 76.28 509.25 76.28C511.469 76.28 512.749 76.664 513.09 77.432L513.346 77.816C512.834 79.096 512.578 80.6747 512.578 82.552C512.578 88.2693 514.242 93.0053 517.57 96.76C520.898 100.515 525.506 102.392 531.394 102.392C540.439 102.392 545.005 99.192 545.09 92.792C545.09 87.928 541.037 84.088 532.93 81.272ZM602.016 52.856C603.125 50.3813 604.875 49.144 607.264 49.144C609.739 49.144 611.573 49.7413 612.768 50.936V87.672C612.768 92.536 613.536 96.2053 615.072 98.68C616.608 101.155 618.699 102.392 621.344 102.392C629.365 102.392 633.376 94.072 633.376 77.432C633.461 76.92 634.101 76.664 635.296 76.664C636.832 76.664 637.6 78.9253 637.6 83.448C637.6 90.7013 636.021 96.504 632.864 100.856C629.792 105.208 625.44 107.384 619.808 107.384C611.189 107.384 605.472 103.587 602.656 95.992C601.035 99.4907 598.816 102.264 596 104.312C593.184 106.36 589.984 107.384 586.4 107.384C571.467 107.384 564 97.6133 564 78.072C564 68.1733 566.304 60.8773 570.912 56.184C575.605 51.4907 581.792 49.144 589.472 49.144C595.36 49.144 599.541 50.3813 602.016 52.856ZM577.952 93.816C579.147 97.5707 580.512 99.96 582.048 100.984C583.584 101.923 585.632 102.392 588.192 102.392C590.752 102.392 593.525 100.813 596.512 97.656C599.584 94.4133 601.12 90.232 601.12 85.112V67.576C601.12 63.5653 600.053 60.3227 597.92 57.848C595.872 55.3733 593.525 54.136 590.88 54.136C588.32 54.136 586.272 54.392 584.736 54.904C583.2 55.416 581.749 56.4827 580.384 58.104C577.568 61.176 576.16 67.832 576.16 78.072C576.16 84.8133 576.757 90.0613 577.952 93.816ZM702.873 76.664C704.409 76.664 705.177 78.9253 705.177 83.448C705.177 90.7013 703.598 96.504 700.441 100.856C697.369 105.208 692.846 107.384 686.873 107.384C680.9 107.384 676.292 105.336 673.049 101.24C669.892 97.144 668.313 91.3413 668.313 83.832V68.856C668.313 58.7013 665.753 53.624 660.633 53.624C656.11 53.624 652.398 55.928 649.497 60.536C646.596 65.144 645.145 72.8667 645.145 83.704V105.592C644.292 106.787 642.798 107.384 640.665 107.384C638.532 107.384 636.825 106.744 635.545 105.464C634.265 104.099 633.625 102.136 633.625 99.576V50.936C634.478 49.7413 636.1 49.144 638.489 49.144C642.926 49.144 645.145 52.344 645.145 58.744C648.729 52.344 654.404 49.144 662.169 49.144C667.716 49.144 672.11 50.8933 675.353 54.392C678.681 57.8907 680.345 62.9253 680.345 69.496V87.672C680.345 92.536 681.113 96.2053 682.649 98.68C684.185 101.155 686.446 102.392 689.433 102.392C692.505 102.392 695.193 100.515 697.497 96.76C699.801 92.92 700.953 86.4773 700.953 77.432C701.038 76.92 701.678 76.664 702.873 76.664ZM701.25 38.008C701.25 35.448 701.89 33.528 703.17 32.248C704.45 30.8827 706.071 30.2 708.034 30.2C709.997 30.2 711.575 30.7973 712.77 31.992V50.936H730.306C732.098 50.936 733.25 51.2773 733.762 51.96C734.359 52.6427 734.658 53.7947 734.658 55.416H712.77V87.672C712.77 92.3653 714.093 95.992 716.738 98.552C719.469 101.112 722.583 102.392 726.082 102.392C731.373 102.392 735.255 100.429 737.73 96.504C740.205 92.5787 741.442 86.2213 741.442 77.432C741.613 76.92 742.253 76.664 743.362 76.664C744.898 76.664 745.666 78.9253 745.666 83.448C745.666 90.36 743.917 96.0773 740.418 100.6C737.005 105.123 731.714 107.384 724.546 107.384C717.378 107.384 711.703 105.507 707.522 101.752C703.341 97.9973 701.25 92.408 701.25 84.984V38.008ZM779.766 52.856C780.875 50.3813 782.625 49.144 785.014 49.144C787.489 49.144 789.323 49.7413 790.518 50.936V87.672C790.518 92.536 791.286 96.2053 792.822 98.68C794.358 101.155 796.449 102.392 799.094 102.392C807.115 102.392 811.126 94.072 811.126 77.432C811.211 76.92 811.851 76.664 813.046 76.664C814.582 76.664 815.35 78.9253 815.35 83.448C815.35 90.7013 813.771 96.504 810.614 100.856C807.542 105.208 803.19 107.384 797.558 107.384C788.939 107.384 783.222 103.587 780.406 95.992C778.785 99.4907 776.566 102.264 773.75 104.312C770.934 106.36 767.734 107.384 764.15 107.384C749.217 107.384 741.75 97.6133 741.75 78.072C741.75 68.1733 744.054 60.8773 748.662 56.184C753.355 51.4907 759.542 49.144 767.222 49.144C773.11 49.144 777.291 50.3813 779.766 52.856ZM755.702 93.816C756.897 97.5707 758.262 99.96 759.798 100.984C761.334 101.923 763.382 102.392 765.942 102.392C768.502 102.392 771.275 100.813 774.262 97.656C777.334 94.4133 778.87 90.232 778.87 85.112V67.576C778.87 63.5653 777.803 60.3227 775.67 57.848C773.622 55.3733 771.275 54.136 768.63 54.136C766.07 54.136 764.022 54.392 762.486 54.904C760.95 55.416 759.499 56.4827 758.134 58.104C755.318 61.176 753.91 67.832 753.91 78.072C753.91 84.8133 754.507 90.0613 755.702 93.816ZM823.023 85.24V105.592C822.17 106.787 820.676 107.384 818.543 107.384C816.41 107.384 814.703 106.744 813.423 105.464C812.143 104.099 811.503 102.136 811.503 99.576V50.936C812.356 49.7413 813.85 49.144 815.983 49.144C818.116 49.144 819.823 49.8267 821.103 51.192C822.383 52.472 823.023 54.392 823.023 56.952V66.68C827.29 56.0987 833.178 50.808 840.687 50.808C846.063 50.808 849.988 52.2587 852.463 55.16C854.938 57.976 856.175 61.3467 856.175 65.272C856.175 67.4053 855.535 69.112 854.255 70.392C852.975 71.672 851.738 72.312 850.543 72.312C848.324 72.312 846.874 71.8 846.191 70.776C846.703 69.496 846.959 67.6613 846.959 65.272C846.959 62.8827 846.148 60.7067 844.527 58.744C842.906 56.7813 840.943 55.8 838.639 55.8C834.628 55.8 831.002 59.4693 827.759 66.808C824.602 74.0613 823.023 80.2053 823.023 85.24ZM899.141 52.856C900.25 50.3813 902 49.144 904.389 49.144C906.864 49.144 908.698 49.7413 909.893 50.936V87.672C909.893 92.536 910.661 96.2053 912.197 98.68C913.733 101.155 915.824 102.392 918.469 102.392C926.49 102.392 930.501 94.072 930.501 77.432C930.586 76.92 931.226 76.664 932.421 76.664C933.957 76.664 934.725 78.9253 934.725 83.448C934.725 90.7013 933.146 96.504 929.989 100.856C926.917 105.208 922.565 107.384 916.933 107.384C908.314 107.384 902.597 103.587 899.781 95.992C898.16 99.4907 895.941 102.264 893.125 104.312C890.309 106.36 887.109 107.384 883.525 107.384C868.592 107.384 861.125 97.6133 861.125 78.072C861.125 68.1733 863.429 60.8773 868.037 56.184C872.73 51.4907 878.917 49.144 886.597 49.144C892.485 49.144 896.666 50.3813 899.141 52.856ZM875.077 93.816C876.272 97.5707 877.637 99.96 879.173 100.984C880.709 101.923 882.757 102.392 885.317 102.392C887.877 102.392 890.65 100.813 893.637 97.656C896.709 94.4133 898.245 90.232 898.245 85.112V67.576C898.245 63.5653 897.178 60.3227 895.045 57.848C892.997 55.3733 890.65 54.136 888.005 54.136C885.445 54.136 883.397 54.392 881.861 54.904C880.325 55.416 878.874 56.4827 877.509 58.104C874.693 61.176 873.285 67.832 873.285 78.072C873.285 84.8133 873.882 90.0613 875.077 93.816Z" fill="white"/>
<path d="M111.808 78.84L111.101 79.5471L111.14 79.5863L111.183 79.6209L111.808 78.84ZM111.936 84.344V85.344H112.35L112.643 85.0511L111.936 84.344ZM93.76 84.344V83.344H92.416L92.8022 84.6313L93.76 84.344ZM101.056 108.664L102.018 108.389L102.014 108.377L101.056 108.664ZM90.176 114.68L89.2181 114.967L89.3007 115.243L89.5175 115.433L90.176 114.68ZM81.088 84.344L82.0459 84.057L81.8323 83.344H81.088V84.344ZM48.448 84.344V83.344H47.7502L47.5094 83.9989L48.448 84.344ZM42.048 101.752L42.9838 102.105L42.9866 102.097L42.048 101.752ZM32.448 116.984L33.1622 117.684L33.1622 117.684L32.448 116.984ZM4.416 119.416L5.10068 118.687L5.09525 118.682L5.08975 118.677L4.416 119.416ZM3.776 94.328L4.62704 94.8531L4.63354 94.8426L4.63978 94.8319L3.776 94.328ZM13.376 84.728L12.8779 83.8609L12.8779 83.8609L13.376 84.728ZM40.256 77.816V78.816H40.9626L41.1986 78.15L40.256 77.816ZM58.944 25.08L59.8866 25.414L59.8894 25.406L58.944 25.08ZM61.632 19.576L62.4183 20.1938L62.7383 19.7866L62.5903 19.2903L61.632 19.576ZM59.456 1.91199L60.1365 2.64479L60.1383 2.64305L59.456 1.91199ZM69.056 1.91199L70.0142 1.62598L69.9317 1.34945L69.7145 1.15942L69.056 1.91199ZM91.712 77.816L90.7538 78.102L90.9686 78.8217L91.7196 78.816L91.712 77.816ZM108.48 77.688L108.48 76.688L108.472 76.688L108.48 77.688ZM32.832 98.68L33.7717 99.0223L33.7755 99.0115L32.832 98.68ZM37.824 84.472L38.7675 84.8035L39.2353 83.472H37.824V84.472ZM15.424 91.128L14.7993 90.3471L14.7934 90.3519L15.424 91.128ZM9.664 115.576L8.95689 116.283L8.96596 116.292L8.97525 116.301L9.664 115.576ZM66.496 29.432L67.464 29.181L66.6008 25.8516L65.5443 29.1248L66.496 29.432ZM50.88 77.816L49.9283 77.5088L49.5065 78.816H50.88V77.816ZM79.04 77.816V78.816H80.3323L80.008 77.565L79.04 77.816ZM111.183 79.6209C111.795 80.1104 112.088 80.7171 112.088 81.528H114.088C114.088 80.1202 113.527 78.9349 112.433 78.0591L111.183 79.6209ZM112.088 81.528C112.088 82.3785 111.805 83.0609 111.229 83.6369L112.643 85.0511C113.603 84.0911 114.088 82.8962 114.088 81.528H112.088ZM111.936 83.344H93.76V85.344H111.936V83.344ZM92.8022 84.6313L100.098 108.951L102.014 108.377L94.7178 84.0567L92.8022 84.6313ZM100.094 108.939C100.23 109.414 100.312 110.08 100.312 110.968H102.312C102.312 109.979 102.223 109.109 102.018 108.389L100.094 108.939ZM100.312 110.968C100.312 111.522 99.9315 112.435 98.7674 113.765L100.273 115.083C101.498 113.682 102.312 112.291 102.312 110.968H100.312ZM98.7674 113.765C97.6809 115.007 96.6951 115.472 95.808 115.472V117.472C97.4809 117.472 98.9698 116.571 100.273 115.083L98.7674 113.765ZM95.808 115.472C93.5828 115.472 91.9663 114.918 90.8345 113.927L89.5175 115.433C91.1164 116.832 93.2546 117.472 95.808 117.472V115.472ZM91.1339 114.393L82.0459 84.057L80.1301 84.631L89.2181 114.967L91.1339 114.393ZM81.088 83.344H48.448V85.344H81.088V83.344ZM47.5094 83.9989L41.1094 101.407L42.9866 102.097L49.3866 84.6891L47.5094 83.9989ZM41.1122 101.399C38.9399 107.165 35.8128 112.122 31.7338 116.284L33.1622 117.684C37.4458 113.313 40.7188 108.115 42.9838 102.105L41.1122 101.399ZM31.7338 116.284C27.7629 120.336 22.613 122.384 16.192 122.384V124.384C23.083 124.384 28.7705 122.165 33.1622 117.684L31.7338 116.284ZM16.192 122.384C11.3322 122.384 7.68043 121.111 5.10068 118.687L3.73132 120.145C6.78357 123.012 10.9825 124.384 16.192 124.384V122.384ZM5.08975 118.677C2.45134 116.271 1.064 112.734 1.064 107.896H-0.936C-0.936 113.128 0.577992 117.27 3.74225 120.155L5.08975 118.677ZM1.064 107.896C1.064 103.034 2.25646 98.6951 4.62704 94.8531L2.92496 93.8029C0.346202 97.9823 -0.936 102.689 -0.936 107.896H1.064ZM4.63978 94.8319C6.94338 90.8828 10.0189 87.8098 13.8741 85.5951L12.8779 83.8609C8.71173 86.2542 5.38728 89.5812 2.91222 93.8241L4.63978 94.8319ZM13.8741 85.5951C21.7333 81.0803 30.5195 78.816 40.256 78.816V76.816C30.1952 76.816 21.0614 79.1597 12.8779 83.8609L13.8741 85.5951ZM41.1986 78.15L59.8866 25.414L58.0014 24.746L39.3134 77.482L41.1986 78.15ZM59.8894 25.406C60.7287 22.9721 61.581 21.2595 62.4183 20.1938L60.8457 18.9582C59.8057 20.2818 58.866 22.2386 57.9986 24.754L59.8894 25.406ZM62.5903 19.2903C61.2684 14.8555 60.2791 11.4299 59.621 9.00959C59.2916 7.79852 59.0474 6.84719 58.8863 6.1506C58.8056 5.80184 58.7477 5.52535 58.7105 5.31659C58.6919 5.21237 58.6796 5.131 58.6721 5.06984C58.6642 5.00465 58.664 4.98027 58.664 4.98399H56.664C56.664 5.33414 56.7794 5.91711 56.9377 6.60138C57.1072 7.33413 57.359 8.31346 57.691 9.53439C58.3556 11.9781 59.3503 15.4218 60.6737 19.8617L62.5903 19.2903ZM58.664 4.98399C58.664 4.47025 59.0046 3.6958 60.1365 2.64479L58.7755 1.1792C57.5181 2.34686 56.664 3.62041 56.664 4.98399H58.664ZM60.1383 2.64305C61.3022 1.5568 62.3501 1.12 63.296 1.12V-0.880005C61.6819 -0.880005 60.1698 -0.122141 58.7737 1.18094L60.1383 2.64305ZM63.296 1.12C65.6171 1.12 67.2716 1.67942 68.3975 2.66457L69.7145 1.15942C68.1097 -0.244764 65.9243 -0.880005 63.296 -0.880005V1.12ZM68.0978 2.19801L90.7538 78.102L92.6702 77.53L70.0142 1.62598L68.0978 2.19801ZM91.7196 78.816L108.488 78.688L108.472 76.688L91.7044 76.816L91.7196 78.816ZM108.48 78.688C109.757 78.688 110.577 79.0229 111.101 79.5471L112.515 78.1329C111.503 77.1211 110.104 76.688 108.48 76.688V78.688ZM16.192 119.008C19.7712 119.008 23.0127 117.194 25.9098 113.828C28.7954 110.477 31.4058 105.517 33.7716 99.0222L31.8924 98.3378C29.5649 104.728 27.0552 109.433 24.3942 112.524C21.7447 115.601 19.0128 117.008 16.192 117.008V119.008ZM33.7755 99.0115L38.7675 84.8035L36.8805 84.1405L31.8885 98.3485L33.7755 99.0115ZM37.824 83.472C28.2836 83.472 20.5731 85.7281 14.7993 90.3471L16.0487 91.9089C21.3682 87.6532 28.5911 85.472 37.824 85.472V83.472ZM14.7934 90.3519C9.09016 94.9858 6.232 101.12 6.232 108.664H8.232C8.232 101.701 10.8352 96.1449 16.0546 91.9041L14.7934 90.3519ZM6.232 108.664C6.232 111.832 7.0962 114.422 8.95689 116.283L10.3711 114.869C8.98913 113.487 8.232 111.469 8.232 108.664H6.232ZM8.97525 116.301C10.8913 118.121 13.3247 119.008 16.192 119.008V117.008C13.7686 117.008 11.8501 116.273 10.3527 114.851L8.97525 116.301ZM65.5443 29.1248L49.9283 77.5088L51.8317 78.1231L67.4477 29.7391L65.5443 29.1248ZM50.88 78.816H79.04V76.816H50.88V78.816ZM80.008 77.565L67.464 29.181L65.528 29.683L78.072 78.067L80.008 77.565ZM165.967 153.592L165.26 152.885L165.248 152.896L165.237 152.908L165.967 153.592ZM156.367 153.848H155.367V154.262L155.66 154.555L156.367 153.848ZM156.367 98.552H157.367V94.9859L155.513 98.0321L156.367 98.552ZM126.031 56.184L125.324 55.4769L125.317 55.4834L126.031 56.184ZM157.135 52.856L156.428 53.5631L157.454 54.5892L158.048 53.2651L157.135 52.856ZM167.887 50.936H168.887V50.5218L168.594 50.2289L167.887 50.936ZM133.071 93.816L134.024 93.5128L134.024 93.5128L133.071 93.816ZM137.167 100.984L136.612 101.816L136.629 101.827L136.646 101.837L137.167 100.984ZM152.143 96.76L152.943 97.36L152.943 97.36L152.143 96.76ZM153.295 58.104L154.086 57.4918L154.086 57.4918L153.295 58.104ZM139.855 54.904L140.171 55.8527L140.171 55.8527L139.855 54.904ZM135.503 58.104L136.24 58.7797L136.254 58.7642L136.268 58.7481L135.503 58.104ZM166.887 147.832C166.887 150.238 166.286 151.859 165.26 152.885L166.674 154.299C168.208 152.765 168.887 150.546 168.887 147.832H166.887ZM165.237 152.908C164.157 154.061 162.804 154.64 161.103 154.64V156.64C163.327 156.64 165.217 155.854 166.697 154.276L165.237 152.908ZM161.103 154.64C159.359 154.64 158.051 154.118 157.074 153.141L155.66 154.555C157.073 155.968 158.921 156.64 161.103 156.64V154.64ZM157.367 153.848V98.552H155.367V153.848H157.367ZM155.513 98.0321C152.09 103.655 147.448 106.384 141.519 106.384V108.384C148.219 108.384 153.476 105.225 157.221 99.0719L155.513 98.0321ZM141.519 106.384C134.289 106.384 129.017 104.033 125.514 99.4488C121.972 94.8139 120.119 87.7435 120.119 78.072H118.119C118.119 87.9418 120 95.5274 123.924 100.663C127.888 105.85 133.815 108.384 141.519 108.384V106.384ZM120.119 78.072C120.119 68.3051 122.395 61.315 126.745 56.8846L125.317 55.4834C120.451 60.4397 118.119 68.0415 118.119 78.072H120.119ZM126.738 56.8911C131.214 52.415 137.131 50.144 144.591 50.144V48.144C136.691 48.144 130.234 50.5664 125.324 55.4769L126.738 56.8911ZM144.591 50.144C150.384 50.144 154.234 51.3694 156.428 53.5631L157.842 52.1489C155.087 49.3933 150.574 48.144 144.591 48.144V50.144ZM158.048 53.2651C158.548 52.1483 159.162 51.3796 159.856 50.8884C160.543 50.4028 161.37 50.144 162.383 50.144V48.144C161.006 48.144 159.764 48.5039 158.702 49.2556C157.647 50.0017 156.831 51.0891 156.222 52.4469L158.048 53.2651ZM162.383 50.144C164.715 50.144 166.245 50.708 167.18 51.6431L168.594 50.2289C167.14 48.7747 165 48.144 162.383 48.144V50.144ZM166.887 50.936V147.832H168.887V50.936H166.887ZM132.118 94.1192C132.728 96.0375 133.394 97.6444 134.123 98.9201C134.848 100.189 135.667 101.186 136.612 101.816L137.722 100.152C137.131 99.7579 136.5 99.0484 135.859 97.9279C135.223 96.8143 134.608 95.3492 134.024 93.5128L132.118 94.1192ZM136.646 101.837C138.404 102.912 140.79 103.392 143.695 103.392V101.392C140.968 101.392 139.002 100.934 137.688 100.131L136.646 101.837ZM143.695 103.392C146.988 103.392 150.063 101.2 152.943 97.36L151.343 96.16C148.591 99.8292 146.034 101.392 143.695 101.392V103.392ZM152.943 97.36C155.955 93.3446 157.367 87.1045 157.367 78.84H155.367C155.367 86.9595 153.963 92.666 151.343 96.16L152.943 97.36ZM157.367 78.84V71.16H155.367V78.84H157.367ZM157.367 71.16C157.367 65.0379 156.342 60.406 154.086 57.4918L152.504 58.7162C154.344 61.0926 155.367 65.1647 155.367 71.16H157.367ZM154.086 57.4918C151.896 54.663 149.237 53.136 146.127 53.136V55.136C148.478 55.136 150.598 56.2543 152.504 58.7162L154.086 57.4918ZM146.127 53.136C143.433 53.136 141.221 53.3947 139.539 53.9553L140.171 55.8527C141.561 55.3893 143.53 55.136 146.127 55.136V53.136ZM139.539 53.9553C137.782 54.541 136.186 55.7402 134.738 57.4599L136.268 58.7481C137.55 57.2251 138.856 56.291 140.171 55.8527L139.539 53.9553ZM134.766 57.4283C133.183 59.1549 132.077 61.7892 131.357 65.193C130.633 68.614 130.279 72.9136 130.279 78.072H132.279C132.279 72.9904 132.629 68.842 133.313 65.607C134.001 62.3547 135.007 60.1251 136.24 58.7797L134.766 57.4283ZM130.279 78.072C130.279 84.8541 130.878 90.221 132.118 94.1192L134.024 93.5128C132.875 89.9016 132.279 84.7725 132.279 78.072H130.279ZM220.608 51.192L221.27 51.9418L221.282 51.9312L221.293 51.9202L220.608 51.192ZM230.72 50.936H231.72V50.5218L231.427 50.2289L230.72 50.936ZM233.024 98.68L233.874 98.1526L233.874 98.1526L233.024 98.68ZM246.976 97.784L247.755 98.4114L247.76 98.4042L246.976 97.784ZM251.328 77.432L250.342 77.2676L250.328 77.3492V77.432H251.328ZM250.816 100.856L250.007 100.269L249.999 100.279L250.816 100.856ZM220.096 95.224L221.041 94.8959L220.174 92.4009L219.171 94.8442L220.096 95.224ZM188.992 102.648L188.285 103.355L188.294 103.364L188.992 102.648ZM186.048 51.192L186.755 51.8991L186.767 51.8877L186.778 51.8759L186.048 51.192ZM195.648 50.936H196.648V50.5218L196.355 50.2289L195.648 50.936ZM213.696 95.992L212.871 95.4267L212.864 95.4373L213.696 95.992ZM219.432 56.952C219.432 54.5809 220.098 52.9756 221.27 51.9418L219.946 50.4422C218.217 51.9684 217.432 54.2031 217.432 56.952H219.432ZM221.293 51.9202C222.553 50.7348 224.055 50.144 225.856 50.144V48.144C223.561 48.144 221.564 48.9185 219.923 50.4638L221.293 51.9202ZM225.856 50.144C227.699 50.144 229.044 50.6745 230.013 51.6431L231.427 50.2289C230.006 48.8081 228.109 48.144 225.856 48.144V50.144ZM229.72 50.936V87.672H231.72V50.936H229.72ZM229.72 87.672C229.72 92.611 230.494 96.5008 232.174 99.2074L233.874 98.1526C232.482 95.9098 231.72 92.461 231.72 87.672H229.72ZM232.174 99.2074C233.871 101.94 236.265 103.392 239.296 103.392V101.392C237.036 101.392 235.249 100.369 233.874 98.1526L232.174 99.2074ZM239.296 103.392C242.369 103.392 245.186 101.6 247.755 98.4113L246.197 97.1567C243.817 100.112 241.514 101.392 239.296 101.392V103.392ZM247.76 98.4042C250.89 94.4459 252.328 87.3503 252.328 77.432H250.328C250.328 87.311 248.864 93.7834 246.192 97.1638L247.76 98.4042ZM252.314 77.5964C252.302 77.668 252.266 77.7369 252.223 77.7826C252.189 77.8191 252.179 77.8103 252.243 77.7845C252.389 77.7263 252.698 77.664 253.248 77.664V75.664C252.603 75.664 251.995 75.7297 251.501 75.9275C250.976 76.1372 250.46 76.5561 250.342 77.2676L252.314 77.5964ZM253.248 77.664C253.363 77.664 253.693 77.692 254.029 78.6816C254.359 79.6535 254.552 81.2166 254.552 83.448H256.552C256.552 81.1568 256.361 79.3278 255.923 78.0384C255.491 76.7667 254.669 75.664 253.248 75.664V77.664ZM254.552 83.448C254.552 90.5629 253.003 96.1381 250.007 100.269L251.625 101.443C254.943 96.8699 256.552 90.8397 256.552 83.448H254.552ZM249.999 100.279C247.127 104.348 243.089 106.384 237.76 106.384V108.384C243.695 108.384 248.361 106.068 251.633 101.433L249.999 100.279ZM237.76 106.384C233.431 106.384 229.93 105.406 227.191 103.52C224.455 101.637 222.393 98.7894 221.041 94.8959L219.151 95.5521C220.615 99.7653 222.905 102.998 226.057 105.168C229.206 107.335 233.129 108.384 237.76 108.384V106.384ZM219.171 94.8442C217.568 98.7497 215.325 101.615 212.471 103.511C209.616 105.408 206.075 106.384 201.792 106.384V108.384C206.384 108.384 210.331 107.334 213.577 105.177C216.825 103.02 219.296 99.805 221.021 95.6038L219.171 94.8442ZM201.792 106.384C196.715 106.384 192.714 104.877 189.69 101.932L188.294 103.364C191.755 106.734 196.288 108.384 201.792 108.384V106.384ZM189.699 101.941C186.696 98.9376 185.128 94.6157 185.128 88.824H183.128C183.128 94.979 184.803 99.8731 188.285 103.355L189.699 101.941ZM185.128 88.824V56.952H183.128V88.824H185.128ZM185.128 56.952C185.128 54.5461 185.729 52.9254 186.755 51.8991L185.341 50.4849C183.807 52.0186 183.128 54.2379 183.128 56.952H185.128ZM186.778 51.8759C187.858 50.723 189.211 50.144 190.912 50.144V48.144C188.688 48.144 186.798 48.9303 185.318 50.5081L186.778 51.8759ZM190.912 50.144C192.656 50.144 193.964 50.6664 194.941 51.6431L196.355 50.2289C194.942 48.8163 193.094 48.144 190.912 48.144V50.144ZM194.648 50.936V87.672H196.648V50.936H194.648ZM194.648 87.672C194.648 92.801 195.289 96.7975 196.675 99.5462C197.375 100.935 198.281 102.035 199.417 102.786C200.558 103.541 201.875 103.904 203.328 103.904V101.904C202.221 101.904 201.298 101.632 200.519 101.118C199.735 100.599 199.041 99.7958 198.461 98.6458C197.287 96.3171 196.648 92.6976 196.648 87.672H194.648ZM203.328 103.904C207.635 103.904 211.359 101.301 214.528 96.5467L212.864 95.4373C209.889 99.8994 206.701 101.904 203.328 101.904V103.904ZM214.521 96.5572C217.836 91.719 219.432 85.006 219.432 76.536H217.432C217.432 84.7914 215.871 91.049 212.871 95.4268L214.521 96.5572ZM219.432 76.536V56.952H217.432V76.536H219.432ZM289.516 52.856L288.809 53.5631L289.835 54.5892L290.429 53.2651L289.516 52.856ZM300.268 50.936H301.268V50.5218L300.975 50.2289L300.268 50.936ZM302.572 98.68L303.422 98.1526L303.422 98.1526L302.572 98.68ZM320.876 77.432L319.89 77.2676L319.876 77.3492V77.432H320.876ZM320.364 100.856L319.555 100.269L319.547 100.279L320.364 100.856ZM290.156 95.992L291.094 95.6443L290.259 93.3923L289.249 95.5715L290.156 95.992ZM283.5 104.312L282.912 103.503L282.912 103.503L283.5 104.312ZM258.412 56.184L257.705 55.4769L257.698 55.4834L258.412 56.184ZM265.452 93.816L266.405 93.5128L266.405 93.5128L265.452 93.816ZM269.548 100.984L268.993 101.816L269.01 101.827L269.027 101.837L269.548 100.984ZM284.012 97.656L283.286 96.9683L283.286 96.9688L284.012 97.656ZM285.42 57.848L284.65 58.4856L284.656 58.4933L284.663 58.5009L285.42 57.848ZM272.236 54.904L272.552 55.8527L272.552 55.8527L272.236 54.904ZM267.884 58.104L268.621 58.7797L268.635 58.7642L268.649 58.7481L267.884 58.104ZM290.429 53.2651C290.929 52.1483 291.543 51.3796 292.237 50.8884C292.924 50.4028 293.751 50.144 294.764 50.144V48.144C293.387 48.144 292.145 48.5039 291.083 49.2556C290.028 50.0017 289.212 51.0891 288.603 52.4469L290.429 53.2651ZM294.764 50.144C297.096 50.144 298.626 50.708 299.561 51.6431L300.975 50.2289C299.521 48.7747 297.381 48.144 294.764 48.144V50.144ZM299.268 50.936V87.672H301.268V50.936H299.268ZM299.268 87.672C299.268 92.611 300.042 96.5008 301.722 99.2074L303.422 98.1526C302.03 95.9098 301.268 92.461 301.268 87.672H299.268ZM301.722 99.2074C303.419 101.94 305.813 103.392 308.844 103.392V101.392C306.584 101.392 304.797 100.369 303.422 98.1526L301.722 99.2074ZM308.844 103.392C311.032 103.392 312.989 102.821 314.677 101.655C316.356 100.493 317.71 98.7819 318.769 96.5862C320.873 92.2219 321.876 85.8004 321.876 77.432H319.876C319.876 85.7036 318.874 91.7621 316.967 95.7178C316.02 97.6821 314.868 99.0906 313.539 100.009C312.219 100.923 310.667 101.392 308.844 101.392V103.392ZM321.862 77.5964C321.85 77.668 321.814 77.7369 321.771 77.7826C321.737 77.8191 321.727 77.8103 321.791 77.7845C321.937 77.7263 322.246 77.664 322.796 77.664V75.664C322.151 75.664 321.543 75.7297 321.049 75.9275C320.524 76.1372 320.008 76.5561 319.89 77.2676L321.862 77.5964ZM322.796 77.664C322.911 77.664 323.241 77.692 323.577 78.6816C323.907 79.6535 324.1 81.2166 324.1 83.448H326.1C326.1 81.1568 325.909 79.3278 325.471 78.0384C325.039 76.7667 324.217 75.664 322.796 75.664V77.664ZM324.1 83.448C324.1 90.5629 322.551 96.1381 319.555 100.269L321.173 101.443C324.491 96.8699 326.1 90.8397 326.1 83.448H324.1ZM319.547 100.279C316.675 104.348 312.637 106.384 307.308 106.384V108.384C313.243 108.384 317.909 106.068 321.181 101.433L319.547 100.279ZM307.308 106.384C303.145 106.384 299.767 105.468 297.109 103.703C294.457 101.941 292.442 99.2801 291.094 95.6443L289.218 96.3397C290.686 100.299 292.938 103.333 296.003 105.369C299.063 107.401 302.852 108.384 307.308 108.384V106.384ZM289.249 95.5715C287.691 98.9327 285.576 101.566 282.912 103.503L284.088 105.121C287.056 102.962 289.378 100.049 291.063 96.4125L289.249 95.5715ZM282.912 103.503C280.272 105.423 277.279 106.384 273.9 106.384V108.384C277.689 108.384 281.096 107.297 284.088 105.121L282.912 103.503ZM273.9 106.384C266.67 106.384 261.398 104.033 257.895 99.4488C254.353 94.8139 252.5 87.7435 252.5 78.072H250.5C250.5 87.9418 252.381 95.5274 256.305 100.663C260.269 105.85 266.196 108.384 273.9 108.384V106.384ZM252.5 78.072C252.5 68.3051 254.776 61.315 259.126 56.8846L257.698 55.4834C252.832 60.4397 250.5 68.0415 250.5 78.072H252.5ZM259.119 56.8911C263.595 52.415 269.512 50.144 276.972 50.144V48.144C269.072 48.144 262.615 50.5664 257.705 55.4769L259.119 56.8911ZM276.972 50.144C282.765 50.144 286.615 51.3694 288.809 53.5631L290.223 52.1489C287.468 49.3933 282.955 48.144 276.972 48.144V50.144ZM264.499 94.1192C265.109 96.0375 265.775 97.6444 266.504 98.9201C267.229 100.189 268.048 101.186 268.993 101.816L270.103 100.152C269.512 99.7579 268.881 99.0484 268.24 97.9279C267.604 96.8143 266.989 95.3492 266.405 93.5128L264.499 94.1192ZM269.027 101.837C270.772 102.904 273.022 103.392 275.692 103.392V101.392C273.242 101.392 271.396 100.941 270.069 100.131L269.027 101.837ZM275.692 103.392C278.667 103.392 281.688 101.568 284.738 98.3432L283.286 96.9688C280.363 100.058 277.837 101.392 275.692 101.392V103.392ZM284.738 98.3437C288.012 94.888 289.62 90.4476 289.62 85.112H287.62C287.62 90.0164 286.156 93.9387 283.286 96.9683L284.738 98.3437ZM289.62 85.112V67.576H287.62V85.112H289.62ZM289.62 67.576C289.62 63.3823 288.501 59.89 286.177 57.1951L284.663 58.5009C286.606 60.7553 287.62 63.7483 287.62 67.576H289.62ZM286.19 57.2104C283.997 54.5603 281.387 53.136 278.38 53.136V55.136C280.664 55.136 282.747 56.1863 284.65 58.4856L286.19 57.2104ZM278.38 53.136C275.767 53.136 273.599 53.3955 271.92 53.9553L272.552 55.8527C273.945 55.3885 275.873 55.136 278.38 55.136V53.136ZM271.92 53.9553C270.163 54.541 268.567 55.7402 267.119 57.4599L268.649 58.7481C269.931 57.2251 271.237 56.291 272.552 55.8527L271.92 53.9553ZM267.147 57.4283C265.564 59.1549 264.458 61.7892 263.738 65.193C263.014 68.614 262.66 72.9136 262.66 78.072H264.66C264.66 72.9904 265.01 68.842 265.694 65.607C266.382 62.3547 267.388 60.1251 268.621 58.7797L267.147 57.4283ZM262.66 78.072C262.66 84.8541 263.259 90.221 264.499 94.1192L266.405 93.5128C265.256 89.9016 264.66 84.7725 264.66 78.072H262.66ZM335.845 44.408L336.645 45.008L336.997 44.5383L336.759 44.0019L335.845 44.408ZM327.397 44.024L326.666 44.7063L326.678 44.7189L326.69 44.7311L327.397 44.024ZM331.749 21.368L332.463 22.0678L332.47 22.0605L331.749 21.368ZM368.229 33.4L367.244 33.571L369.179 33.712L368.229 33.4ZM377.445 19.704L378.07 20.4849L378.07 20.4849L377.445 19.704ZM392.421 14.584L392.431 13.584H392.421V14.584ZM412.389 24.696L411.557 25.2507L411.56 25.2557L412.389 24.696ZM421.989 99.32L421.153 99.8692L421.159 99.8774L421.164 99.8855L421.989 99.32ZM441.957 79.736L440.971 79.5716L440.957 79.6532V79.736H441.957ZM445.157 79.352L445.748 78.5456L445.711 78.5183L445.672 78.4945L445.157 79.352ZM441.957 103.032L442.75 103.642L442.75 103.642L441.957 103.032ZM411.877 101.88L411.012 102.382L411.017 102.39L411.022 102.399L411.877 101.88ZM382.309 23.928L382.864 24.7601L382.869 24.7563L382.309 23.928ZM375.653 30.968L376.52 31.467L376.52 31.467L375.653 30.968ZM371.813 41.08L372.782 41.3287L372.784 41.3206L372.786 41.3126L371.813 41.08ZM364.261 104.312L363.384 103.831L363.382 103.836L364.261 104.312ZM333.797 108.792L334.476 108.058L334.466 108.049L333.797 108.792ZM337.765 87.416L337.21 88.248L337.244 88.2705L337.279 88.2902L337.765 87.416ZM339.685 89.592L340.619 89.948L340.776 89.5376L340.579 89.1448L339.685 89.592ZM341.349 105.592L340.642 106.299L340.65 106.307L340.659 106.315L341.349 105.592ZM354.405 25.336L353.569 25.8852L353.575 25.8934L353.58 25.9015L354.405 25.336ZM337.893 25.08L337.096 24.4761L337.093 24.48L337.893 25.08ZM333.821 39.8C333.821 41.4886 334.197 43.1624 334.931 44.8141L336.759 44.0019C336.128 42.5815 335.821 41.1833 335.821 39.8H333.821ZM335.045 43.808C334.534 44.4894 333.616 44.944 332.005 44.944V46.944C333.978 46.944 335.62 46.3746 336.645 45.008L335.045 43.808ZM332.005 44.944C330.481 44.944 329.199 44.4115 328.104 43.3169L326.69 44.7311C328.155 46.1965 329.945 46.944 332.005 46.944V44.944ZM328.128 43.3417C327.189 42.336 326.605 40.5562 326.605 37.752H324.605C324.605 40.7504 325.215 43.152 326.666 44.7063L328.128 43.3417ZM326.605 37.752C326.605 31.2294 328.578 26.0336 332.463 22.0678L331.035 20.6682C326.728 25.065 324.605 30.7919 324.605 37.752H326.605ZM332.47 22.0605C336.348 18.021 341.533 15.968 348.133 15.968V13.968C341.08 13.968 335.342 16.1816 331.028 20.6755L332.47 22.0605ZM348.133 15.968C353.577 15.968 357.806 17.4482 360.929 20.313C364.065 23.1888 366.201 27.5648 367.244 33.571L369.214 33.2289C368.124 26.9472 365.844 22.1072 362.281 18.839C358.706 15.5598 353.953 13.968 348.133 13.968V15.968ZM369.179 33.712C371.002 28.1598 373.97 23.7647 378.07 20.4849L376.82 18.9231C372.387 22.47 369.21 27.2055 367.279 33.088L369.179 33.712ZM378.07 20.4849C382.15 17.2203 386.919 15.584 392.421 15.584V13.584C386.488 13.584 381.273 15.361 376.82 18.9231L378.07 20.4849ZM392.411 15.5839C400.998 15.6665 407.326 18.9036 411.557 25.2507L413.221 24.1413C408.578 17.1764 401.594 13.6721 392.431 13.584L392.411 15.5839ZM411.56 25.2557C415.85 31.6071 418.045 40.2213 418.045 51.192H420.045C420.045 39.976 417.803 30.9262 413.218 24.1363L411.56 25.2557ZM418.045 51.192V87.416H420.045V51.192H418.045ZM418.045 87.416C418.045 92.488 419.05 96.6678 421.153 99.8692L422.825 98.7708C421.003 95.9988 420.045 92.2427 420.045 87.416H418.045ZM421.164 99.8855C423.373 103.107 426.31 104.8 429.925 104.8V102.8C427.055 102.8 424.701 101.506 422.814 98.7545L421.164 99.8855ZM429.925 104.8C432.105 104.8 434.058 104.252 435.744 103.128C437.423 102.008 438.781 100.355 439.843 98.2312C441.953 94.0116 442.957 87.8084 442.957 79.736H440.957C440.957 87.7063 439.955 93.5351 438.055 97.3368C437.111 99.2235 435.963 100.578 434.634 101.464C433.312 102.345 431.755 102.8 429.925 102.8V104.8ZM442.943 79.9004C442.944 79.8945 442.941 79.9191 442.917 79.9547C442.893 79.9913 442.866 80.0114 442.856 80.0175C442.849 80.0213 442.869 80.0078 442.935 79.9938C443 79.9798 443.098 79.968 443.237 79.968V77.968C442.762 77.968 442.258 78.0437 441.827 78.3025C441.35 78.5885 441.059 79.0409 440.971 79.5716L442.943 79.9004ZM443.237 79.968C444.023 79.968 444.446 80.0917 444.643 80.2095L445.672 78.4945C445.014 78.1003 444.158 77.968 443.237 77.968V79.968ZM444.566 80.1584C444.977 80.46 445.361 81.0011 445.641 81.9167C445.921 82.8333 446.077 84.0588 446.077 85.624H448.077C448.077 83.9465 447.913 82.5053 447.553 81.3313C447.193 80.1562 446.617 79.1826 445.748 78.5456L444.566 80.1584ZM446.077 85.624C446.077 92.6339 444.41 98.2035 441.164 102.422L442.75 103.642C446.331 98.9858 448.077 92.9501 448.077 85.624H446.077ZM441.164 102.422C437.942 106.612 433.713 108.688 428.389 108.688V110.688C434.329 110.688 439.146 108.327 442.75 103.642L441.164 102.422ZM428.389 108.688C420.772 108.688 415.655 106.181 412.732 101.361L411.022 102.399C414.413 107.99 420.304 110.688 428.389 110.688V108.688ZM412.742 101.378C409.794 96.3014 408.269 89.1201 408.269 79.736H406.269C406.269 89.2959 407.816 96.8773 411.012 102.382L412.742 101.378ZM408.269 79.736V51.192H406.269V79.736H408.269ZM408.269 51.192C408.269 41.0729 407.031 33.3363 404.454 28.0949C403.159 25.4603 401.51 23.4221 399.478 22.0444C397.44 20.6618 395.074 19.984 392.421 19.984V21.984C394.717 21.984 396.682 22.5648 398.356 23.6996C400.036 24.8393 401.48 26.5771 402.66 28.9771C405.033 33.805 406.269 41.1725 406.269 51.192H408.269ZM392.421 19.984C388.401 19.984 384.831 21.0144 381.749 23.0997L382.869 24.7563C385.589 22.9163 388.761 21.984 392.421 21.984V19.984ZM381.754 23.0959C378.816 25.0551 376.488 27.5138 374.786 30.469L376.52 31.467C378.061 28.7901 380.17 26.5555 382.864 24.76L381.754 23.0959ZM374.786 30.469C373.107 33.3855 371.796 36.8503 370.84 40.8474L372.786 41.3126C373.707 37.4591 374.956 34.1824 376.52 31.467L374.786 30.469ZM370.844 40.8313C369.198 47.2441 368.381 54.5409 368.381 62.712H370.381C370.381 54.6698 371.185 47.5452 372.782 41.3287L370.844 40.8313ZM368.381 62.712V79.096H370.381V62.712H368.381ZM368.381 79.096C368.381 89.5854 366.687 97.8042 363.384 103.831L365.138 104.793C368.662 98.3612 370.381 89.7693 370.381 79.096H368.381ZM363.382 103.836C361.787 106.779 359.801 108.94 357.439 110.368C355.079 111.796 352.288 112.528 349.029 112.528V114.528C352.597 114.528 355.758 113.724 358.475 112.08C361.191 110.436 363.407 107.989 365.14 104.788L363.382 103.836ZM349.029 112.528C342.427 112.528 337.636 110.981 334.476 108.058L333.118 109.526C336.785 112.918 342.148 114.528 349.029 114.528V112.528ZM334.466 108.049C331.289 105.189 329.677 101.377 329.677 96.504H327.677C327.677 101.871 329.478 106.251 333.128 109.535L334.466 108.049ZM329.677 96.504C329.677 93.2949 330.204 91.061 331.116 89.6566C331.979 88.3268 333.246 87.648 335.077 87.648V85.648C332.641 85.648 330.708 86.6118 329.438 88.5674C328.217 90.4483 327.677 93.1424 327.677 96.504H329.677ZM335.077 87.648C335.926 87.648 336.624 87.8574 337.21 88.248L338.32 86.5839C337.37 85.9506 336.276 85.648 335.077 85.648V87.648ZM337.279 88.2902C337.825 88.5932 338.342 89.1413 338.791 90.0392L340.579 89.1448C340.004 87.9947 339.241 87.0921 338.251 86.5418L337.279 88.2902ZM338.751 89.236C338.002 91.2015 337.661 94.0372 337.661 97.656H339.661C339.661 94.1068 340.003 91.5665 340.619 89.948L338.751 89.236ZM337.661 97.656C337.661 101.317 338.6 104.258 340.642 106.299L342.056 104.885C340.514 103.342 339.661 100.992 339.661 97.656H337.661ZM340.659 106.315C342.739 108.301 345.34 109.28 348.389 109.28V107.28C345.806 107.28 343.714 106.467 342.039 104.869L340.659 106.315ZM348.389 109.28C350.117 109.28 351.663 108.763 352.984 107.721C354.29 106.691 355.325 105.189 356.126 103.293C357.72 99.5221 358.477 93.9841 358.477 86.776H356.477C356.477 93.9039 355.719 99.1179 354.284 102.515C353.57 104.203 352.712 105.389 351.746 106.151C350.795 106.901 349.69 107.28 348.389 107.28V109.28ZM358.477 86.776V37.24H356.477V86.776H358.477ZM358.477 37.24C358.477 32.1609 357.427 27.9746 355.23 24.7705L353.58 25.9015C355.479 28.6708 356.477 32.4204 356.477 37.24H358.477ZM355.241 24.7868C353.098 21.5261 350.057 19.856 346.213 19.856V21.856C349.366 21.856 351.787 23.1726 353.569 25.8852L355.241 24.7868ZM346.213 19.856C342.474 19.856 339.411 21.4208 337.096 24.4761L338.69 25.6839C340.642 23.1072 343.125 21.856 346.213 21.856V19.856ZM337.093 24.48C334.835 27.4912 333.821 32.692 333.821 39.8H335.821C335.821 32.7427 336.855 28.1301 338.693 25.68L337.093 24.48ZM478.358 51.192L479.02 51.9418L479.032 51.9312L479.043 51.9202L478.358 51.192ZM488.47 50.936H489.47V50.5218L489.177 50.2289L488.47 50.936ZM490.774 98.68L491.624 98.1526L491.624 98.1526L490.774 98.68ZM504.726 97.784L505.505 98.4114L505.51 98.4042L504.726 97.784ZM509.078 77.432L508.092 77.2676L508.078 77.3492V77.432H509.078ZM508.566 100.856L507.757 100.269L507.749 100.279L508.566 100.856ZM477.846 95.224L478.791 94.8959L477.924 92.4009L476.921 94.8442L477.846 95.224ZM446.742 102.648L446.035 103.355L446.044 103.364L446.742 102.648ZM443.798 51.192L444.505 51.8991L444.517 51.8877L444.528 51.8759L443.798 51.192ZM453.398 50.936H454.398V50.5218L454.105 50.2289L453.398 50.936ZM471.446 95.992L470.621 95.4267L470.614 95.4373L471.446 95.992ZM477.182 56.952C477.182 54.5809 477.848 52.9756 479.02 51.9418L477.696 50.4422C475.967 51.9684 475.182 54.2031 475.182 56.952H477.182ZM479.043 51.9202C480.303 50.7348 481.805 50.144 483.606 50.144V48.144C481.311 48.144 479.314 48.9185 477.673 50.4638L479.043 51.9202ZM483.606 50.144C485.449 50.144 486.794 50.6745 487.763 51.6431L489.177 50.2289C487.756 48.8081 485.859 48.144 483.606 48.144V50.144ZM487.47 50.936V87.672H489.47V50.936H487.47ZM487.47 87.672C487.47 92.611 488.244 96.5008 489.924 99.2074L491.624 98.1526C490.232 95.9098 489.47 92.461 489.47 87.672H487.47ZM489.924 99.2074C491.621 101.94 494.015 103.392 497.046 103.392V101.392C494.786 101.392 492.999 100.369 491.624 98.1526L489.924 99.2074ZM497.046 103.392C500.119 103.392 502.936 101.6 505.505 98.4113L503.947 97.1567C501.567 100.112 499.264 101.392 497.046 101.392V103.392ZM505.51 98.4042C508.64 94.4459 510.078 87.3503 510.078 77.432H508.078C508.078 87.311 506.614 93.7834 503.942 97.1638L505.51 98.4042ZM510.064 77.5964C510.052 77.668 510.016 77.7369 509.973 77.7826C509.939 77.8191 509.929 77.8103 509.993 77.7845C510.139 77.7263 510.448 77.664 510.998 77.664V75.664C510.353 75.664 509.745 75.7297 509.251 75.9275C508.726 76.1372 508.21 76.5561 508.092 77.2676L510.064 77.5964ZM510.998 77.664C511.113 77.664 511.443 77.692 511.779 78.6816C512.109 79.6535 512.302 81.2166 512.302 83.448H514.302C514.302 81.1568 514.111 79.3278 513.673 78.0384C513.241 76.7667 512.419 75.664 510.998 75.664V77.664ZM512.302 83.448C512.302 90.5629 510.753 96.1381 507.757 100.269L509.375 101.443C512.693 96.8699 514.302 90.8397 514.302 83.448H512.302ZM507.749 100.279C504.877 104.348 500.839 106.384 495.51 106.384V108.384C501.445 108.384 506.111 106.068 509.383 101.433L507.749 100.279ZM495.51 106.384C491.181 106.384 487.68 105.406 484.941 103.52C482.205 101.637 480.143 98.7894 478.791 94.8959L476.901 95.5521C478.365 99.7653 480.655 102.998 483.807 105.168C486.956 107.335 490.879 108.384 495.51 108.384V106.384ZM476.921 94.8442C475.318 98.7497 473.075 101.615 470.221 103.511C467.366 105.408 463.825 106.384 459.542 106.384V108.384C464.134 108.384 468.081 107.334 471.327 105.177C474.575 103.02 477.046 99.805 478.771 95.6038L476.921 94.8442ZM459.542 106.384C454.465 106.384 450.464 104.877 447.44 101.932L446.044 103.364C449.505 106.734 454.038 108.384 459.542 108.384V106.384ZM447.449 101.941C444.446 98.9376 442.878 94.6157 442.878 88.824H440.878C440.878 94.979 442.553 99.8731 446.035 103.355L447.449 101.941ZM442.878 88.824V56.952H440.878V88.824H442.878ZM442.878 56.952C442.878 54.5461 443.479 52.9254 444.505 51.8991L443.091 50.4849C441.557 52.0186 440.878 54.2379 440.878 56.952H442.878ZM444.528 51.8759C445.608 50.723 446.961 50.144 448.662 50.144V48.144C446.438 48.144 444.548 48.9303 443.068 50.5081L444.528 51.8759ZM448.662 50.144C450.406 50.144 451.714 50.6664 452.691 51.6431L454.105 50.2289C452.692 48.8163 450.844 48.144 448.662 48.144V50.144ZM452.398 50.936V87.672H454.398V50.936H452.398ZM452.398 87.672C452.398 92.801 453.039 96.7975 454.425 99.5462C455.125 100.935 456.031 102.035 457.167 102.786C458.308 103.541 459.625 103.904 461.078 103.904V101.904C459.971 101.904 459.048 101.632 458.269 101.118C457.485 100.599 456.791 99.7958 456.211 98.6458C455.037 96.3171 454.398 92.6976 454.398 87.672H452.398ZM461.078 103.904C465.385 103.904 469.109 101.301 472.278 96.5467L470.614 95.4373C467.639 99.8994 464.451 101.904 461.078 101.904V103.904ZM472.271 96.5572C475.586 91.719 477.182 85.006 477.182 76.536H475.182C475.182 84.7914 473.621 91.049 470.621 95.4268L472.271 96.5572ZM477.182 76.536V56.952H475.182V76.536H477.182ZM532.93 81.272L532.6 82.2159L532.602 82.2166L532.93 81.272ZM522.69 77.56L522.31 78.4852L522.325 78.491L522.339 78.4963L522.69 77.56ZM514.242 71.8L513.51 72.4814L513.51 72.4814L514.242 71.8ZM516.162 52.856L516.717 53.688L516.723 53.6835L516.73 53.6789L516.162 52.856ZM547.906 52.728L547.378 53.5771L547.386 53.5822L547.906 52.728ZM552.002 64.76L551.384 63.9737L551.37 63.9849L551.356 63.9966L552.002 64.76ZM544.45 64.632L543.691 63.9812L543.198 64.5564L543.618 65.1867L544.45 64.632ZM541.25 56.312L541.731 55.4352L541.731 55.4352L541.25 56.312ZM524.354 55.928L524.843 56.8005L524.843 56.8005L524.354 55.928ZM524.738 67.704L524.138 68.504L524.145 68.509L524.151 68.5139L524.738 67.704ZM533.57 72.184L533.24 73.1279L533.247 73.1303L533.57 72.184ZM543.938 76.024L543.567 76.9525L543.574 76.9556L543.938 76.024ZM552.77 81.912L552.039 82.5943L552.051 82.6069L552.063 82.6191L552.77 81.912ZM549.314 103.416L549.805 104.287L549.81 104.284L549.314 103.416ZM511.81 100.728L511.123 101.454L511.129 101.461L511.136 101.467L511.81 100.728ZM506.05 78.328L506.874 78.8945L506.874 78.8945L506.05 78.328ZM513.09 77.432L512.176 77.8381L512.211 77.9159L512.258 77.9867L513.09 77.432ZM513.346 77.816L514.274 78.1874L514.47 77.699L514.178 77.2613L513.346 77.816ZM517.57 96.76L518.318 96.0967L518.318 96.0967L517.57 96.76ZM545.09 92.792L546.09 92.8053V92.792H545.09ZM533.26 80.3281C529.854 79.1359 526.448 77.9011 523.041 76.6237L522.339 78.4963C525.759 79.7789 529.179 81.0187 532.6 82.2159L533.26 80.3281ZM523.07 76.6348C519.867 75.3208 517.173 73.4808 514.974 71.1186L513.51 72.4814C515.919 75.0685 518.857 77.0686 522.31 78.4852L523.07 76.6348ZM514.974 71.1186C512.866 68.8544 511.786 65.9521 511.786 62.328H509.786C509.786 66.3839 511.01 69.7963 513.51 72.4814L514.974 71.1186ZM511.786 62.328C511.786 58.7737 513.379 55.9132 516.717 53.688L515.607 52.0239C511.777 54.5774 509.786 58.0316 509.786 62.328H511.786ZM516.73 53.6789C520.077 51.3681 525.048 50.144 531.778 50.144V48.144C524.855 48.144 519.415 49.3946 515.594 52.0331L516.73 53.6789ZM531.778 50.144C538.595 50.144 543.759 51.3255 547.378 53.5771L548.434 51.8789C544.373 49.3519 538.785 48.144 531.778 48.144V50.144ZM547.386 53.5822C551.161 55.8801 552.794 58.3836 552.794 61.048H554.794C554.794 57.3978 552.501 54.3545 548.426 51.8738L547.386 53.5822ZM552.794 61.048C552.794 62.2811 552.334 63.227 551.384 63.9737L552.62 65.5463C554.059 64.4156 554.794 62.8869 554.794 61.048H552.794ZM551.356 63.9966C550.37 64.8305 549.482 65.168 548.674 65.168V67.168C550.085 67.168 551.415 66.5668 552.648 65.5234L551.356 63.9966ZM548.674 65.168C546.631 65.168 545.676 64.6681 545.282 64.0773L543.618 65.1867C544.589 66.6439 546.45 67.168 548.674 67.168V65.168ZM545.209 65.2828C545.612 64.8126 545.855 64.1995 546.002 63.5369C546.151 62.8659 546.218 62.073 546.218 61.176H544.218C544.218 61.9857 544.157 62.6221 544.05 63.1031C543.941 63.5925 543.8 63.8541 543.691 63.9812L545.209 65.2828ZM546.218 61.176C546.218 58.817 544.468 56.9362 541.731 55.4352L540.769 57.1888C543.323 58.5891 544.218 59.951 544.218 61.176H546.218ZM541.731 55.4352C538.927 53.8977 535.816 53.136 532.418 53.136V55.136C535.506 55.136 538.282 55.825 540.769 57.1888L541.731 55.4352ZM532.418 53.136C529.058 53.136 526.189 53.7543 523.865 55.0555L524.843 56.8005C526.786 55.7123 529.293 55.136 532.418 55.136V53.136ZM523.865 55.0555C522.667 55.7268 521.726 56.6031 521.089 57.6974C520.454 58.7911 520.154 60.0477 520.154 61.432H522.154C522.154 60.3416 522.388 59.4436 522.819 58.7026C523.249 57.9623 523.908 57.3239 524.843 56.8005L523.865 55.0555ZM520.154 61.432C520.154 64.2142 521.567 66.5755 524.138 68.504L525.338 66.904C523.131 65.2485 522.154 63.4285 522.154 61.432H520.154ZM524.151 68.5139C526.717 70.372 529.751 71.9069 533.24 73.1279L533.9 71.2401C530.562 70.0718 527.708 68.6199 525.325 66.8941L524.151 68.5139ZM533.247 73.1303C536.729 74.3195 540.169 75.5935 543.567 76.9525L544.309 75.0955C540.88 73.7238 537.408 72.4378 533.893 71.2376L533.247 73.1303ZM543.574 76.9556C546.944 78.2704 549.759 80.1517 552.039 82.5943L553.501 81.2297C551.002 78.5523 547.93 76.5082 544.302 75.0924L543.574 76.9556ZM552.063 82.6191C554.34 84.8964 555.482 87.7096 555.482 91.128H557.482C557.482 87.2078 556.149 83.877 553.477 81.2049L552.063 82.6191ZM555.482 91.128C555.482 96.227 553.288 99.9934 548.818 102.548L549.81 104.284C554.897 101.377 557.482 96.9517 557.482 91.128H555.482ZM548.823 102.545C544.331 105.077 538.291 106.384 530.626 106.384V108.384C538.492 108.384 544.91 107.046 549.805 104.287L548.823 102.545ZM530.626 106.384C523.151 106.384 517.133 104.231 512.484 99.9892L511.136 101.467C516.215 106.1 522.741 108.384 530.626 108.384V106.384ZM512.497 100.002C507.921 95.6704 505.642 90.3449 505.642 83.96H503.642C503.642 90.8871 506.142 96.7403 511.123 101.454L512.497 100.002ZM505.642 83.96C505.642 81.6875 506.09 80.0344 506.874 78.8945L505.226 77.7615C504.132 79.3522 503.642 81.4538 503.642 83.96H505.642ZM506.874 78.8945C507.705 77.6865 508.502 77.28 509.25 77.28V75.28C507.608 75.28 506.273 76.2388 505.226 77.7615L506.874 78.8945ZM509.25 77.28C510.317 77.28 511.081 77.3741 511.587 77.5258C511.836 77.6006 511.99 77.6798 512.079 77.7432C512.162 77.8025 512.176 77.8378 512.176 77.8381L514.004 77.0259C513.66 76.2517 512.918 75.8371 512.161 75.6102C511.387 75.3779 510.402 75.28 509.25 75.28V77.28ZM512.258 77.9867L512.514 78.3707L514.178 77.2613L513.922 76.8773L512.258 77.9867ZM512.418 77.4446C511.845 78.8771 511.578 80.5905 511.578 82.552H513.578C513.578 80.7588 513.823 79.3149 514.274 78.1874L512.418 77.4446ZM511.578 82.552C511.578 88.4773 513.309 93.4602 516.822 97.4233L518.318 96.0967C515.175 92.5505 513.578 88.0613 513.578 82.552H511.578ZM516.822 97.4233C520.373 101.43 525.274 103.392 531.394 103.392V101.392C525.738 101.392 521.423 99.5995 518.318 96.0967L516.822 97.4233ZM531.394 103.392C536.005 103.392 539.65 102.582 542.176 100.811C544.764 98.9971 546.044 96.2721 546.09 92.8053L544.09 92.7787C544.051 95.7119 543.006 97.7869 541.028 99.1731C538.989 100.602 535.828 101.392 531.394 101.392V103.392ZM546.09 92.792C546.09 87.2297 541.428 83.1653 533.258 80.3274L532.602 82.2166C540.645 85.0107 544.09 88.6263 544.09 92.792H546.09ZM602.016 52.856L601.309 53.5631L602.335 54.5892L602.929 53.2651L602.016 52.856ZM612.768 50.936H613.768V50.5218L613.475 50.2289L612.768 50.936ZM615.072 98.68L615.922 98.1526L615.922 98.1526L615.072 98.68ZM633.376 77.432L632.39 77.2676L632.376 77.3492V77.432H633.376ZM632.864 100.856L632.055 100.269L632.047 100.279L632.864 100.856ZM602.656 95.992L603.594 95.6443L602.759 93.3923L601.749 95.5715L602.656 95.992ZM596 104.312L595.412 103.503L595.412 103.503L596 104.312ZM570.912 56.184L570.205 55.4769L570.198 55.4834L570.912 56.184ZM577.952 93.816L578.905 93.5128L578.905 93.5128L577.952 93.816ZM582.048 100.984L581.493 101.816L581.51 101.827L581.527 101.837L582.048 100.984ZM596.512 97.656L595.786 96.9683L595.786 96.9688L596.512 97.656ZM597.92 57.848L597.15 58.4856L597.156 58.4933L597.163 58.5009L597.92 57.848ZM584.736 54.904L585.052 55.8527L585.052 55.8527L584.736 54.904ZM580.384 58.104L581.121 58.7797L581.135 58.7642L581.149 58.7481L580.384 58.104ZM602.929 53.2651C603.429 52.1483 604.043 51.3796 604.737 50.8884C605.424 50.4028 606.251 50.144 607.264 50.144V48.144C605.887 48.144 604.645 48.5039 603.583 49.2556C602.528 50.0017 601.712 51.0891 601.103 52.4469L602.929 53.2651ZM607.264 50.144C609.596 50.144 611.126 50.708 612.061 51.6431L613.475 50.2289C612.021 48.7747 609.881 48.144 607.264 48.144V50.144ZM611.768 50.936V87.672H613.768V50.936H611.768ZM611.768 87.672C611.768 92.611 612.542 96.5008 614.222 99.2074L615.922 98.1526C614.53 95.9098 613.768 92.461 613.768 87.672H611.768ZM614.222 99.2074C615.919 101.94 618.313 103.392 621.344 103.392V101.392C619.084 101.392 617.297 100.369 615.922 98.1526L614.222 99.2074ZM621.344 103.392C623.532 103.392 625.489 102.821 627.177 101.655C628.856 100.493 630.21 98.7819 631.269 96.5862C633.373 92.2219 634.376 85.8004 634.376 77.432H632.376C632.376 85.7036 631.374 91.7621 629.467 95.7178C628.52 97.6821 627.368 99.0906 626.039 100.009C624.719 100.923 623.167 101.392 621.344 101.392V103.392ZM634.362 77.5964C634.35 77.668 634.314 77.7369 634.271 77.7826C634.237 77.8191 634.227 77.8103 634.291 77.7845C634.437 77.7263 634.746 77.664 635.296 77.664V75.664C634.651 75.664 634.043 75.7297 633.549 75.9275C633.024 76.1372 632.508 76.5561 632.39 77.2676L634.362 77.5964ZM635.296 77.664C635.411 77.664 635.741 77.692 636.077 78.6816C636.407 79.6535 636.6 81.2166 636.6 83.448H638.6C638.6 81.1568 638.409 79.3278 637.971 78.0384C637.539 76.7667 636.717 75.664 635.296 75.664V77.664ZM636.6 83.448C636.6 90.5629 635.051 96.1381 632.055 100.269L633.673 101.443C636.991 96.8699 638.6 90.8397 638.6 83.448H636.6ZM632.047 100.279C629.175 104.348 625.137 106.384 619.808 106.384V108.384C625.743 108.384 630.409 106.068 633.681 101.433L632.047 100.279ZM619.808 106.384C615.645 106.384 612.267 105.468 609.609 103.703C606.957 101.941 604.942 99.2801 603.594 95.6443L601.718 96.3397C603.186 100.299 605.438 103.333 608.503 105.369C611.563 107.401 615.352 108.384 619.808 108.384V106.384ZM601.749 95.5715C600.191 98.9327 598.076 101.566 595.412 103.503L596.588 105.121C599.556 102.962 601.878 100.049 603.563 96.4125L601.749 95.5715ZM595.412 103.503C592.772 105.423 589.779 106.384 586.4 106.384V108.384C590.189 108.384 593.596 107.297 596.588 105.121L595.412 103.503ZM586.4 106.384C579.17 106.384 573.898 104.033 570.395 99.4488C566.853 94.8139 565 87.7435 565 78.072H563C563 87.9418 564.881 95.5274 568.805 100.663C572.769 105.85 578.696 108.384 586.4 108.384V106.384ZM565 78.072C565 68.3051 567.276 61.315 571.626 56.8846L570.198 55.4834C565.332 60.4397 563 68.0415 563 78.072H565ZM571.619 56.8911C576.095 52.415 582.012 50.144 589.472 50.144V48.144C581.572 48.144 575.115 50.5664 570.205 55.4769L571.619 56.8911ZM589.472 50.144C595.265 50.144 599.115 51.3694 601.309 53.5631L602.723 52.1489C599.968 49.3933 595.455 48.144 589.472 48.144V50.144ZM576.999 94.1192C577.609 96.0375 578.275 97.6444 579.004 98.9201C579.729 100.189 580.548 101.186 581.493 101.816L582.603 100.152C582.012 99.7579 581.381 99.0484 580.74 97.9279C580.104 96.8143 579.489 95.3492 578.905 93.5128L576.999 94.1192ZM581.527 101.837C583.272 102.904 585.522 103.392 588.192 103.392V101.392C585.742 101.392 583.896 100.941 582.569 100.131L581.527 101.837ZM588.192 103.392C591.167 103.392 594.188 101.568 597.238 98.3432L595.786 96.9688C592.863 100.058 590.337 101.392 588.192 101.392V103.392ZM597.238 98.3437C600.512 94.888 602.12 90.4476 602.12 85.112H600.12C600.12 90.0164 598.656 93.9387 595.786 96.9683L597.238 98.3437ZM602.12 85.112V67.576H600.12V85.112H602.12ZM602.12 67.576C602.12 63.3823 601.001 59.89 598.677 57.1951L597.163 58.5009C599.106 60.7553 600.12 63.7483 600.12 67.576H602.12ZM598.69 57.2104C596.497 54.5603 593.887 53.136 590.88 53.136V55.136C593.164 55.136 595.247 56.1863 597.15 58.4856L598.69 57.2104ZM590.88 53.136C588.267 53.136 586.099 53.3955 584.42 53.9553L585.052 55.8527C586.445 55.3885 588.373 55.136 590.88 55.136V53.136ZM584.42 53.9553C582.663 54.541 581.067 55.7402 579.619 57.4599L581.149 58.7481C582.431 57.2251 583.737 56.291 585.052 55.8527L584.42 53.9553ZM579.647 57.4283C578.064 59.1549 576.958 61.7892 576.238 65.193C575.514 68.614 575.16 72.9136 575.16 78.072H577.16C577.16 72.9904 577.51 68.842 578.194 65.607C578.882 62.3547 579.888 60.1251 581.121 58.7797L579.647 57.4283ZM575.16 78.072C575.16 84.8541 575.759 90.221 576.999 94.1192L578.905 93.5128C577.756 89.9016 577.16 84.7725 577.16 78.072H575.16ZM700.441 100.856L699.632 100.269L699.624 100.279L700.441 100.856ZM673.049 101.24L672.257 101.851L672.265 101.861L673.049 101.24ZM649.497 60.536L650.343 61.0688L650.343 61.0688L649.497 60.536ZM645.145 105.592L645.959 106.173L646.145 105.912V105.592H645.145ZM635.545 105.464L634.815 106.148L634.826 106.16L634.838 106.171L635.545 105.464ZM633.625 50.936L632.811 50.3548L632.625 50.6155V50.936H633.625ZM645.145 58.744H644.145V62.5764L646.018 59.2326L645.145 58.744ZM675.353 54.392L674.62 55.0718L674.628 55.0812L675.353 54.392ZM682.649 98.68L683.499 98.1526L683.499 98.1526L682.649 98.68ZM697.497 96.76L698.349 97.283L698.354 97.2745L697.497 96.76ZM700.953 77.432L699.967 77.2676L699.953 77.3492V77.432H700.953ZM702.873 77.664C702.988 77.664 703.318 77.692 703.654 78.6816C703.984 79.6535 704.177 81.2166 704.177 83.448H706.177C706.177 81.1568 705.986 79.3278 705.548 78.0384C705.116 76.7667 704.294 75.664 702.873 75.664V77.664ZM704.177 83.448C704.177 90.5629 702.628 96.1381 699.632 100.269L701.25 101.443C704.568 96.8699 706.177 90.8397 706.177 83.448H704.177ZM699.624 100.279C696.764 104.331 692.567 106.384 686.873 106.384V108.384C693.126 108.384 697.974 106.085 701.258 101.433L699.624 100.279ZM686.873 106.384C681.156 106.384 676.857 104.439 673.833 100.619L672.265 101.861C675.726 106.233 680.644 108.384 686.873 108.384V106.384ZM673.841 100.629C670.867 96.7719 669.313 91.2169 669.313 83.832H667.313C667.313 91.4658 668.916 97.5161 672.257 101.851L673.841 100.629ZM669.313 83.832V68.856H667.313V83.832H669.313ZM669.313 68.856C669.313 63.727 668.672 59.7305 667.286 56.9818C666.586 55.5932 665.68 54.4927 664.544 53.7418C663.403 52.9871 662.086 52.624 660.633 52.624V54.624C661.74 54.624 662.663 54.8956 663.442 55.4102C664.226 55.9286 664.92 56.7322 665.5 57.8822C666.674 60.2109 667.313 63.8304 667.313 68.856H669.313ZM660.633 52.624C655.693 52.624 651.692 55.1732 648.651 60.0032L650.343 61.0688C653.105 56.6828 656.528 54.624 660.633 54.624V52.624ZM648.651 60.0032C645.59 64.864 644.145 72.8319 644.145 83.704H646.145C646.145 72.9014 647.601 65.424 650.343 61.0688L648.651 60.0032ZM644.145 83.704V105.592H646.145V83.704H644.145ZM644.331 105.011C643.741 105.838 642.63 106.384 640.665 106.384V108.384C642.966 108.384 644.843 107.736 645.959 106.173L644.331 105.011ZM640.665 106.384C638.746 106.384 637.311 105.816 636.252 104.757L634.838 106.171C636.339 107.672 638.317 108.384 640.665 108.384V106.384ZM636.275 104.78C635.224 103.659 634.625 101.977 634.625 99.576H632.625C632.625 102.295 633.306 104.538 634.815 106.148L636.275 104.78ZM634.625 99.576V50.936H632.625V99.576H634.625ZM634.439 51.5172C635.011 50.7165 636.218 50.144 638.489 50.144V48.144C635.981 48.144 633.946 48.7662 632.811 50.3548L634.439 51.5172ZM638.489 50.144C640.433 50.144 641.765 50.8241 642.659 52.1138C643.599 53.4699 644.145 55.6287 644.145 58.744H646.145C646.145 55.4593 645.581 52.8181 644.303 50.9742C642.978 49.0639 640.983 48.144 638.489 48.144V50.144ZM646.018 59.2326C649.412 53.1706 654.739 50.144 662.169 50.144V48.144C654.068 48.144 648.046 51.5174 644.272 58.2554L646.018 59.2326ZM662.169 50.144C667.487 50.144 671.597 51.811 674.62 55.0718L676.086 53.7122C672.623 49.9757 667.944 48.144 662.169 48.144V50.144ZM674.628 55.0812C677.724 58.3354 679.345 63.0877 679.345 69.496H681.345C681.345 62.763 679.638 57.4459 676.078 53.7028L674.628 55.0812ZM679.345 69.496V87.672H681.345V69.496H679.345ZM679.345 87.672C679.345 92.611 680.119 96.5008 681.799 99.2074L683.499 98.1526C682.107 95.9098 681.345 92.461 681.345 87.672H679.345ZM681.799 99.2074C683.523 101.985 686.111 103.392 689.433 103.392V101.392C686.782 101.392 684.847 100.324 683.499 98.1526L681.799 99.2074ZM689.433 103.392C692.991 103.392 695.95 101.193 698.349 97.283L696.645 96.237C694.436 99.8361 692.019 101.392 689.433 101.392V103.392ZM698.354 97.2745C700.807 93.1872 701.953 86.508 701.953 77.432H699.953C699.953 86.4467 698.795 92.6528 696.64 96.2455L698.354 97.2745ZM701.939 77.5964C701.927 77.668 701.891 77.7369 701.848 77.7826C701.814 77.8191 701.804 77.8103 701.868 77.7845C702.014 77.7263 702.323 77.664 702.873 77.664V75.664C702.228 75.664 701.62 75.7297 701.126 75.9275C700.601 76.1372 700.085 76.5561 699.967 77.2676L701.939 77.5964ZM703.17 32.248L703.877 32.9551L703.889 32.9437L703.9 32.9319L703.17 32.248ZM712.77 31.992H713.77V31.5778L713.477 31.2849L712.77 31.992ZM712.77 50.936H711.77V51.936H712.77V50.936ZM733.762 51.96L732.962 52.56L732.985 52.5901L733.009 52.6185L733.762 51.96ZM734.658 55.416V56.416H735.658V55.416H734.658ZM712.77 55.416V54.416H711.77V55.416H712.77ZM716.738 98.552L716.043 99.2706L716.048 99.2761L716.054 99.2815L716.738 98.552ZM737.73 96.504L738.576 97.0373L738.576 97.0373L737.73 96.504ZM741.442 77.432L740.493 77.1158L740.442 77.2697V77.432H741.442ZM740.418 100.6L739.627 99.9881L739.62 99.9976L740.418 100.6ZM707.522 101.752L708.19 101.008L708.19 101.008L707.522 101.752ZM702.25 38.008C702.25 35.6021 702.851 33.9814 703.877 32.9551L702.463 31.5409C700.929 33.0746 700.25 35.2939 700.25 38.008H702.25ZM703.9 32.9319C704.98 31.779 706.333 31.2 708.034 31.2V29.2C705.81 29.2 703.92 29.9863 702.44 31.5641L703.9 32.9319ZM708.034 31.2C709.778 31.2 711.086 31.7224 712.063 32.6991L713.477 31.2849C712.064 29.8723 710.216 29.2 708.034 29.2V31.2ZM711.77 31.992V50.936H713.77V31.992H711.77ZM712.77 51.936H730.306V49.936H712.77V51.936ZM730.306 51.936C731.148 51.936 731.779 52.0173 732.23 52.1508C732.682 52.2846 732.878 52.4482 732.962 52.56L734.562 51.36C734.134 50.7892 733.498 50.4407 732.798 50.2332C732.097 50.0253 731.256 49.936 730.306 49.936V51.936ZM733.009 52.6185C733.362 53.0217 733.658 53.8654 733.658 55.416H735.658C735.658 53.7239 735.356 52.2637 734.515 51.3015L733.009 52.6185ZM734.658 54.416H712.77V56.416H734.658V54.416ZM711.77 55.416V87.672H713.77V55.416H711.77ZM711.77 87.672C711.77 92.5577 713.153 96.4738 716.043 99.2706L717.433 97.8334C715.033 95.5102 713.77 92.173 713.77 87.672H711.77ZM716.054 99.2815C718.956 102.002 722.31 103.392 726.082 103.392V101.392C722.856 101.392 719.981 100.222 717.422 97.8225L716.054 99.2815ZM726.082 103.392C731.659 103.392 735.89 101.298 738.576 97.0373L736.884 95.9707C734.621 99.5605 731.086 101.392 726.082 101.392V103.392ZM738.576 97.0373C741.207 92.864 742.442 86.2677 742.442 77.432H740.442C740.442 86.175 739.202 92.2933 736.884 95.9707L738.576 97.0373ZM742.391 77.7482C742.358 77.8451 742.293 77.8359 742.421 77.7845C742.573 77.7237 742.866 77.664 743.362 77.664V75.664C742.748 75.664 742.167 75.7323 741.679 75.9275C741.167 76.1321 740.696 76.5069 740.493 77.1158L742.391 77.7482ZM743.362 77.664C743.477 77.664 743.807 77.692 744.143 78.6816C744.473 79.6535 744.666 81.2166 744.666 83.448H746.666C746.666 81.1568 746.475 79.3278 746.037 78.0384C745.605 76.7667 744.783 75.664 743.362 75.664V77.664ZM744.666 83.448C744.666 90.1862 742.964 95.6749 739.627 99.9881L741.209 101.212C744.87 96.4797 746.666 90.5338 746.666 83.448H744.666ZM739.62 99.9976C736.445 104.205 731.492 106.384 724.546 106.384V108.384C731.936 108.384 737.565 106.041 741.216 101.202L739.62 99.9976ZM724.546 106.384C717.554 106.384 712.142 104.556 708.19 101.008L706.854 102.496C711.265 106.457 717.202 108.384 724.546 108.384V106.384ZM708.19 101.008C704.282 97.4989 702.25 92.2202 702.25 84.984H700.25C700.25 92.5958 702.399 98.4958 706.854 102.496L708.19 101.008ZM702.25 84.984V38.008H700.25V84.984H702.25ZM779.766 52.856L779.059 53.5631L780.085 54.5892L780.679 53.2651L779.766 52.856ZM790.518 50.936H791.518V50.5218L791.225 50.2289L790.518 50.936ZM792.822 98.68L793.672 98.1526L793.672 98.1526L792.822 98.68ZM811.126 77.432L810.14 77.2676L810.126 77.3492V77.432H811.126ZM810.614 100.856L809.805 100.269L809.797 100.279L810.614 100.856ZM780.406 95.992L781.344 95.6443L780.509 93.3923L779.499 95.5715L780.406 95.992ZM773.75 104.312L773.162 103.503L773.162 103.503L773.75 104.312ZM748.662 56.184L747.955 55.4769L747.948 55.4834L748.662 56.184ZM755.702 93.816L756.655 93.5128L756.655 93.5128L755.702 93.816ZM759.798 100.984L759.243 101.816L759.26 101.827L759.277 101.837L759.798 100.984ZM774.262 97.656L773.536 96.9683L773.536 96.9688L774.262 97.656ZM775.67 57.848L774.9 58.4856L774.906 58.4933L774.913 58.5009L775.67 57.848ZM762.486 54.904L762.802 55.8527L762.802 55.8527L762.486 54.904ZM758.134 58.104L758.871 58.7797L758.885 58.7642L758.899 58.7481L758.134 58.104ZM780.679 53.2651C781.179 52.1483 781.793 51.3796 782.487 50.8884C783.174 50.4028 784.001 50.144 785.014 50.144V48.144C783.637 48.144 782.395 48.5039 781.333 49.2556C780.278 50.0017 779.462 51.0891 778.853 52.4469L780.679 53.2651ZM785.014 50.144C787.346 50.144 788.876 50.708 789.811 51.6431L791.225 50.2289C789.771 48.7747 787.631 48.144 785.014 48.144V50.144ZM789.518 50.936V87.672H791.518V50.936H789.518ZM789.518 87.672C789.518 92.611 790.292 96.5008 791.972 99.2074L793.672 98.1526C792.28 95.9098 791.518 92.461 791.518 87.672H789.518ZM791.972 99.2074C793.669 101.94 796.063 103.392 799.094 103.392V101.392C796.834 101.392 795.047 100.369 793.672 98.1526L791.972 99.2074ZM799.094 103.392C801.282 103.392 803.239 102.821 804.927 101.655C806.606 100.493 807.96 98.7819 809.019 96.5862C811.123 92.2219 812.126 85.8004 812.126 77.432H810.126C810.126 85.7036 809.124 91.7621 807.217 95.7178C806.27 97.6821 805.118 99.0906 803.789 100.009C802.469 100.923 800.917 101.392 799.094 101.392V103.392ZM812.112 77.5964C812.1 77.668 812.064 77.7369 812.021 77.7826C811.987 77.8191 811.977 77.8103 812.041 77.7845C812.187 77.7263 812.496 77.664 813.046 77.664V75.664C812.401 75.664 811.793 75.7297 811.299 75.9275C810.774 76.1372 810.258 76.5561 810.14 77.2676L812.112 77.5964ZM813.046 77.664C813.161 77.664 813.491 77.692 813.827 78.6816C814.157 79.6535 814.35 81.2166 814.35 83.448H816.35C816.35 81.1568 816.159 79.3278 815.721 78.0384C815.289 76.7667 814.467 75.664 813.046 75.664V77.664ZM814.35 83.448C814.35 90.5629 812.801 96.1381 809.805 100.269L811.423 101.443C814.741 96.8699 816.35 90.8397 816.35 83.448H814.35ZM809.797 100.279C806.925 104.348 802.887 106.384 797.558 106.384V108.384C803.493 108.384 808.159 106.068 811.431 101.433L809.797 100.279ZM797.558 106.384C793.395 106.384 790.017 105.468 787.359 103.703C784.707 101.941 782.692 99.2801 781.344 95.6443L779.468 96.3397C780.936 100.299 783.188 103.333 786.253 105.369C789.313 107.401 793.102 108.384 797.558 108.384V106.384ZM779.499 95.5715C777.941 98.9327 775.826 101.566 773.162 103.503L774.338 105.121C777.306 102.962 779.628 100.049 781.313 96.4125L779.499 95.5715ZM773.162 103.503C770.522 105.423 767.529 106.384 764.15 106.384V108.384C767.939 108.384 771.346 107.297 774.338 105.121L773.162 103.503ZM764.15 106.384C756.92 106.384 751.648 104.033 748.145 99.4488C744.603 94.8139 742.75 87.7435 742.75 78.072H740.75C740.75 87.9418 742.631 95.5274 746.555 100.663C750.519 105.85 756.446 108.384 764.15 108.384V106.384ZM742.75 78.072C742.75 68.3051 745.026 61.315 749.376 56.8846L747.948 55.4834C743.082 60.4397 740.75 68.0415 740.75 78.072H742.75ZM749.369 56.8911C753.845 52.415 759.762 50.144 767.222 50.144V48.144C759.322 48.144 752.865 50.5664 747.955 55.4769L749.369 56.8911ZM767.222 50.144C773.015 50.144 776.865 51.3694 779.059 53.5631L780.473 52.1489C777.718 49.3933 773.205 48.144 767.222 48.144V50.144ZM754.749 94.1192C755.359 96.0375 756.025 97.6444 756.754 98.9201C757.479 100.189 758.298 101.186 759.243 101.816L760.353 100.152C759.762 99.7579 759.131 99.0484 758.49 97.9279C757.854 96.8143 757.239 95.3492 756.655 93.5128L754.749 94.1192ZM759.277 101.837C761.022 102.904 763.272 103.392 765.942 103.392V101.392C763.492 101.392 761.646 100.941 760.319 100.131L759.277 101.837ZM765.942 103.392C768.917 103.392 771.938 101.568 774.988 98.3432L773.536 96.9688C770.613 100.058 768.087 101.392 765.942 101.392V103.392ZM774.988 98.3437C778.262 94.888 779.87 90.4476 779.87 85.112H777.87C777.87 90.0164 776.406 93.9387 773.536 96.9683L774.988 98.3437ZM779.87 85.112V67.576H777.87V85.112H779.87ZM779.87 67.576C779.87 63.3823 778.751 59.89 776.427 57.1951L774.913 58.5009C776.856 60.7553 777.87 63.7483 777.87 67.576H779.87ZM776.44 57.2104C774.247 54.5603 771.637 53.136 768.63 53.136V55.136C770.914 55.136 772.997 56.1863 774.9 58.4856L776.44 57.2104ZM768.63 53.136C766.017 53.136 763.849 53.3955 762.17 53.9553L762.802 55.8527C764.195 55.3885 766.123 55.136 768.63 55.136V53.136ZM762.17 53.9553C760.413 54.541 758.817 55.7402 757.369 57.4599L758.899 58.7481C760.181 57.2251 761.487 56.291 762.802 55.8527L762.17 53.9553ZM757.397 57.4283C755.814 59.1549 754.708 61.7892 753.988 65.193C753.264 68.614 752.91 72.9136 752.91 78.072H754.91C754.91 72.9904 755.26 68.842 755.944 65.607C756.632 62.3547 757.638 60.1251 758.871 58.7797L757.397 57.4283ZM752.91 78.072C752.91 84.8541 753.509 90.221 754.749 94.1192L756.655 93.5128C755.506 89.9016 754.91 84.7725 754.91 78.072H752.91ZM823.023 105.592L823.837 106.173L824.023 105.912V105.592H823.023ZM813.423 105.464L812.693 106.148L812.704 106.16L812.716 106.171L813.423 105.464ZM811.503 50.936L810.689 50.3548L810.503 50.6155V50.936H811.503ZM821.103 51.192L820.373 51.8759L820.384 51.8877L820.396 51.8991L821.103 51.192ZM823.023 66.68H822.023L823.95 67.054L823.023 66.68ZM852.463 55.16L851.702 55.8089L851.707 55.8146L851.712 55.8201L852.463 55.16ZM846.191 70.776L845.263 70.4046L845.067 70.893L845.359 71.3307L846.191 70.776ZM844.527 58.744L843.756 59.3809L843.756 59.3809L844.527 58.744ZM827.759 66.808L826.844 66.4038L826.842 66.4089L827.759 66.808ZM822.023 85.24V105.592H824.023V85.24H822.023ZM822.209 105.011C821.619 105.838 820.508 106.384 818.543 106.384V108.384C820.844 108.384 822.721 107.736 823.837 106.173L822.209 105.011ZM818.543 106.384C816.624 106.384 815.189 105.816 814.13 104.757L812.716 106.171C814.217 107.672 816.195 108.384 818.543 108.384V106.384ZM814.153 104.78C813.102 103.659 812.503 101.977 812.503 99.576H810.503C810.503 102.295 811.184 104.538 812.693 106.148L814.153 104.78ZM812.503 99.576V50.936H810.503V99.576H812.503ZM812.317 51.5172C812.907 50.6902 814.018 50.144 815.983 50.144V48.144C813.682 48.144 811.805 48.7925 810.689 50.3548L812.317 51.5172ZM815.983 50.144C817.882 50.144 819.31 50.7413 820.373 51.8759L821.833 50.5081C820.336 48.912 818.35 48.144 815.983 48.144V50.144ZM820.396 51.8991C821.422 52.9254 822.023 54.5461 822.023 56.952H824.023C824.023 54.2379 823.344 52.0186 821.81 50.4849L820.396 51.8991ZM822.023 56.952V66.68H824.023V56.952H822.023ZM823.95 67.054C828.156 56.6242 833.785 51.808 840.687 51.808V49.808C832.571 49.808 826.423 55.5731 822.096 66.306L823.95 67.054ZM840.687 51.808C845.895 51.808 849.486 53.2103 851.702 55.8089L853.224 54.511C850.491 51.307 846.231 49.808 840.687 49.808V51.808ZM851.712 55.8201C854.018 58.4444 855.175 61.5771 855.175 65.272H857.175C857.175 61.1162 855.857 57.5076 853.214 54.4999L851.712 55.8201ZM855.175 65.272C855.175 67.1911 854.607 68.6256 853.548 69.6849L854.962 71.0991C856.463 69.5984 857.175 67.6196 857.175 65.272H855.175ZM853.548 69.6849C852.36 70.8725 851.363 71.312 850.543 71.312V73.312C852.112 73.312 853.59 72.4715 854.962 71.0991L853.548 69.6849ZM850.543 71.312C848.397 71.312 847.411 70.8036 847.023 70.2213L845.359 71.3307C846.336 72.7964 848.252 73.312 850.543 73.312V71.312ZM847.119 71.1474C847.701 69.6929 847.959 67.7091 847.959 65.272H845.959C845.959 67.6136 845.705 69.2991 845.263 70.4046L847.119 71.1474ZM847.959 65.272C847.959 62.6343 847.057 60.2364 845.298 58.1071L843.756 59.3809C845.24 61.177 845.959 63.131 845.959 65.272H847.959ZM845.298 58.1071C843.509 55.9418 841.275 54.8 838.639 54.8V56.8C840.611 56.8 842.302 57.6208 843.756 59.3809L845.298 58.1071ZM838.639 54.8C836.296 54.8 834.145 55.8813 832.2 57.849C830.267 59.8044 828.491 62.6782 826.844 66.4038L828.674 67.2122C830.27 63.5991 831.928 60.9689 833.622 59.255C835.304 57.5533 836.972 56.8 838.639 56.8V54.8ZM826.842 66.4089C823.658 73.724 822.023 80.0121 822.023 85.24H824.023C824.023 80.3986 825.545 74.3986 828.676 67.2071L826.842 66.4089ZM899.141 52.856L898.434 53.5631L899.46 54.5892L900.054 53.2651L899.141 52.856ZM909.893 50.936H910.893V50.5218L910.6 50.2289L909.893 50.936ZM912.197 98.68L913.047 98.1526L913.047 98.1526L912.197 98.68ZM930.501 77.432L929.515 77.2676L929.501 77.3492V77.432H930.501ZM929.989 100.856L929.18 100.269L929.172 100.279L929.989 100.856ZM899.781 95.992L900.719 95.6443L899.884 93.3923L898.874 95.5715L899.781 95.992ZM893.125 104.312L892.537 103.503L892.537 103.503L893.125 104.312ZM868.037 56.184L867.33 55.4769L867.323 55.4834L868.037 56.184ZM875.077 93.816L876.03 93.5128L876.03 93.5128L875.077 93.816ZM879.173 100.984L878.618 101.816L878.635 101.827L878.652 101.837L879.173 100.984ZM893.637 97.656L892.911 96.9683L892.911 96.9688L893.637 97.656ZM895.045 57.848L894.275 58.4856L894.281 58.4933L894.288 58.5009L895.045 57.848ZM881.861 54.904L882.177 55.8527L882.177 55.8527L881.861 54.904ZM877.509 58.104L878.246 58.7797L878.26 58.7642L878.274 58.7481L877.509 58.104ZM900.054 53.2651C900.554 52.1483 901.168 51.3796 901.862 50.8884C902.549 50.4028 903.376 50.144 904.389 50.144V48.144C903.012 48.144 901.77 48.5039 900.708 49.2556C899.653 50.0017 898.837 51.0891 898.228 52.4469L900.054 53.2651ZM904.389 50.144C906.721 50.144 908.251 50.708 909.186 51.6431L910.6 50.2289C909.146 48.7747 907.006 48.144 904.389 48.144V50.144ZM908.893 50.936V87.672H910.893V50.936H908.893ZM908.893 87.672C908.893 92.611 909.667 96.5008 911.347 99.2074L913.047 98.1526C911.655 95.9098 910.893 92.461 910.893 87.672H908.893ZM911.347 99.2074C913.044 101.94 915.438 103.392 918.469 103.392V101.392C916.209 101.392 914.422 100.369 913.047 98.1526L911.347 99.2074ZM918.469 103.392C920.657 103.392 922.614 102.821 924.302 101.655C925.981 100.493 927.335 98.7819 928.394 96.5862C930.498 92.2219 931.501 85.8004 931.501 77.432H929.501C929.501 85.7036 928.499 91.7621 926.592 95.7178C925.645 97.6821 924.493 99.0906 923.164 100.009C921.844 100.923 920.292 101.392 918.469 101.392V103.392ZM931.487 77.5964C931.475 77.668 931.439 77.7369 931.396 77.7826C931.362 77.8191 931.352 77.8103 931.416 77.7845C931.562 77.7263 931.871 77.664 932.421 77.664V75.664C931.776 75.664 931.168 75.7297 930.674 75.9275C930.149 76.1372 929.633 76.5561 929.515 77.2676L931.487 77.5964ZM932.421 77.664C932.536 77.664 932.866 77.692 933.202 78.6816C933.532 79.6535 933.725 81.2166 933.725 83.448H935.725C935.725 81.1568 935.534 79.3278 935.096 78.0384C934.664 76.7667 933.842 75.664 932.421 75.664V77.664ZM933.725 83.448C933.725 90.5629 932.176 96.1381 929.18 100.269L930.798 101.443C934.116 96.8699 935.725 90.8397 935.725 83.448H933.725ZM929.172 100.279C926.3 104.348 922.262 106.384 916.933 106.384V108.384C922.868 108.384 927.534 106.068 930.806 101.433L929.172 100.279ZM916.933 106.384C912.77 106.384 909.392 105.468 906.734 103.703C904.082 101.941 902.067 99.2801 900.719 95.6443L898.843 96.3397C900.311 100.299 902.563 103.333 905.628 105.369C908.688 107.401 912.477 108.384 916.933 108.384V106.384ZM898.874 95.5715C897.316 98.9327 895.201 101.566 892.537 103.503L893.713 105.121C896.681 102.962 899.003 100.049 900.688 96.4125L898.874 95.5715ZM892.537 103.503C889.897 105.423 886.904 106.384 883.525 106.384V108.384C887.314 108.384 890.721 107.297 893.713 105.121L892.537 103.503ZM883.525 106.384C876.295 106.384 871.023 104.033 867.52 99.4488C863.978 94.8139 862.125 87.7435 862.125 78.072H860.125C860.125 87.9418 862.006 95.5274 865.93 100.663C869.894 105.85 875.821 108.384 883.525 108.384V106.384ZM862.125 78.072C862.125 68.3051 864.401 61.315 868.751 56.8846L867.323 55.4834C862.457 60.4397 860.125 68.0415 860.125 78.072H862.125ZM868.744 56.8911C873.22 52.415 879.137 50.144 886.597 50.144V48.144C878.697 48.144 872.24 50.5664 867.33 55.4769L868.744 56.8911ZM886.597 50.144C892.39 50.144 896.24 51.3694 898.434 53.5631L899.848 52.1489C897.093 49.3933 892.58 48.144 886.597 48.144V50.144ZM874.124 94.1192C874.734 96.0375 875.4 97.6444 876.129 98.9201C876.854 100.189 877.673 101.186 878.618 101.816L879.728 100.152C879.137 99.7579 878.506 99.0484 877.865 97.9279C877.229 96.8143 876.614 95.3492 876.03 93.5128L874.124 94.1192ZM878.652 101.837C880.397 102.904 882.647 103.392 885.317 103.392V101.392C882.867 101.392 881.021 100.941 879.694 100.131L878.652 101.837ZM885.317 103.392C888.292 103.392 891.313 101.568 894.363 98.3432L892.911 96.9688C889.988 100.058 887.462 101.392 885.317 101.392V103.392ZM894.363 98.3437C897.637 94.888 899.245 90.4476 899.245 85.112H897.245C897.245 90.0164 895.781 93.9387 892.911 96.9683L894.363 98.3437ZM899.245 85.112V67.576H897.245V85.112H899.245ZM899.245 67.576C899.245 63.3823 898.126 59.89 895.802 57.1951L894.288 58.5009C896.231 60.7553 897.245 63.7483 897.245 67.576H899.245ZM895.815 57.2104C893.622 54.5603 891.012 53.136 888.005 53.136V55.136C890.289 55.136 892.372 56.1863 894.275 58.4856L895.815 57.2104ZM888.005 53.136C885.392 53.136 883.224 53.3955 881.545 53.9553L882.177 55.8527C883.57 55.3885 885.498 55.136 888.005 55.136V53.136ZM881.545 53.9553C879.788 54.541 878.192 55.7402 876.744 57.4599L878.274 58.7481C879.556 57.2251 880.862 56.291 882.177 55.8527L881.545 53.9553ZM876.772 57.4283C875.189 59.1549 874.083 61.7892 873.363 65.193C872.639 68.614 872.285 72.9136 872.285 78.072H874.285C874.285 72.9904 874.635 68.842 875.319 65.607C876.007 62.3547 877.013 60.1251 878.246 58.7797L876.772 57.4283ZM872.285 78.072C872.285 84.8541 872.884 90.221 874.124 94.1192L876.03 93.5128C874.881 89.9016 874.285 84.7725 874.285 78.072H872.285Z" fill="white"/>
</svg>
